<?xml version="1.0" standalone="no"?>
<!DOCTYPE svg PUBLIC "-//W3C//DTD SVG 1.1//EN" "http://www.w3.org/Graphics/SVG/1.1/DTD/svg11.dtd" >
<svg xmlns="http://www.w3.org/2000/svg">
<metadata>
This is a custom SVG webfont generated by Font Squirrel.
Designer    : Robert Slimbach and Carol Twombly
Foundry URL : http://www.adobe.com/type
</metadata>
<defs>
<font id="webfontJGUXSExF" horiz-adv-x="300" >
<font-face units-per-em="1000" ascent="750" descent="-250" />
<missing-glyph horiz-adv-x="212" />
<glyph unicode="ffj" horiz-adv-x="809" d="M679 624q-17 11 -42.5 18.5t-55.5 7.5q-35 0 -58 -11.5t-37 -31t-20 -45t-6 -54.5v-24h282v-441q0 -71 -13 -118.5t-45 -80.5q-15 -15 -33.5 -25t-38.5 -17t-40 -10t-38 -3l-9 69q30 2 55 11t40 26q9 10 15.5 23.5t10.5 34t6 50.5t2 74v340h-193v-417h-88v417h-204v-417 h-88v417h-67v67h67v17q0 46 13.5 88t44.5 73q22 22 53 34.5t72 12.5q25 0 48 -7t37 -14l-25 -65q-11 7 -27 12t-33 5q-40 0 -63 -26q-19 -19 -26 -50t-7 -63v-17h205v27q0 48 14 86.5t41 66t66.5 42.5t90.5 15q32 0 66 -9t54 -22z" />
<glyph unicode="fj" horiz-adv-x="522" d="M81 0v417h-67v67h67v27q0 48 14 86.5t41 66t66.5 42.5t90.5 15q34 0 69 -9t54 -23l-25 -67q-17 11 -43.5 19.5t-58.5 8.5q-35 0 -58 -11.5t-37 -31t-20 -45t-6 -54.5v-24h282v-441q0 -71 -13 -118.5t-45 -80.5q-15 -15 -33.5 -25t-38.5 -17t-40 -10t-38 -3l-9 69 q30 2 55 11t40 26q9 10 15.5 23.5t10.5 34t6 50.5t2 74v340h-193v-417h-88z" />
<glyph unicode="&#xfb00;" horiz-adv-x="583" d="M372 0v417h-203v-417h-88v417h-67v67h67v14q0 51 12.5 94t41.5 72q22 21 52 33t71 12q21 0 39.5 -5.5t29.5 -11.5l-19 -66q-10 5 -23.5 9t-27.5 4q-26 0 -43 -10.5t-27.5 -28.5t-14.5 -43t-4 -53v-20h204v23q0 51 13 95.5t44 73.5q25 24 56 34.5t61 10.5q24 0 43 -4.5 t32 -9.5l-11 -68q-11 5 -24 8t-33 3q-28 0 -46 -11.5t-28.5 -31t-15 -44.5t-4.5 -53v-26h117v-67h-116v-417h-88z" />
<glyph unicode="&#xfb01;" horiz-adv-x="523" d="M81 0v417h-67v67h67v27q0 48 14 86.5t41 66t66.5 42.5t90.5 15q34 0 69 -9t54 -23l-25 -67q-17 11 -43.5 19.5t-58.5 8.5q-35 0 -58 -11.5t-37 -31t-20 -45t-6 -54.5v-24h282v-484h-88v417h-193v-417h-88z" />
<glyph unicode="&#xfb02;" horiz-adv-x="523" d="M81 0v417h-67v67h67v21q0 51 17 94.5t52 72.5q28 24 66 36.5t89 12.5q43 0 80.5 -8.5t65.5 -23.5v-689h-88v640q-11 6 -28.5 9.5t-43.5 3.5q-35 0 -58.5 -11.5t-37.5 -31.5t-20.5 -46t-6.5 -55v-25h114v-67h-113v-417h-88z" />
<glyph unicode="&#xfb03;" horiz-adv-x="815" d="M679 624q-17 11 -42.5 18.5t-55.5 7.5q-35 0 -58 -11.5t-37 -31t-20 -45t-6 -54.5v-24h282v-484h-88v417h-193v-417h-88v417h-204v-417h-88v417h-67v67h67v17q0 46 13.5 88t44.5 73q22 22 53 34.5t72 12.5q25 0 48 -7t37 -14l-25 -65q-11 7 -27 12t-33 5q-40 0 -63 -26 q-19 -19 -26 -50t-7 -63v-17h205v27q0 48 14 86.5t41 66t66.5 42.5t90.5 15q32 0 66 -9t54 -22z" />
<glyph unicode="&#xfb04;" horiz-adv-x="815" d="M325 625q-26 15 -60 15q-41 0 -64 -26q-18 -19 -25.5 -48.5t-7.5 -63.5v-18h205v21q0 51 17 94.5t52 72.5q28 24 66 36.5t89 12.5q42 0 79.5 -8.5t65.5 -23.5v-689h-88v640q-11 6 -28.5 9.5t-43.5 3.5q-34 0 -57.5 -11.5t-37.5 -31.5t-20.5 -46t-6.5 -55v-25h114v-67 h-113v-417h-88v417h-204v-417h-88v417h-67v67h67v11q0 48 12.5 91.5t44.5 74.5q23 23 55.5 35.5t74.5 12.5q25 0 47.5 -6.5t33.5 -11.5z" />
<glyph unicode=" "  horiz-adv-x="212" />
<glyph unicode="&#x09;" horiz-adv-x="212" />
<glyph unicode="&#xa0;" horiz-adv-x="212" />
<glyph unicode="!" horiz-adv-x="230" d="M114 -11q-26 0 -42 18t-16 44q0 27 16.5 44.5t42.5 17.5q27 0 43 -17.5t16 -44.5q0 -26 -16 -44t-43 -18h-1zM81 193l-14 481h96l-14 -481h-68z" />
<glyph unicode="&#x22;" horiz-adv-x="337" d="M137 692l-16 -240h-54l-16 240h86zM286 692l-16 -240h-54l-16 240h86z" />
<glyph unicode="#" horiz-adv-x="497" d="M94 0l26 196h-83v59h92l19 145h-87v59h95l26 191h59l-26 -191h105l25 191h59l-25 -191h82v-59h-91l-18 -145h86v-59h-95l-26 -196h-60l26 196h-104l-25 -196h-60zM292 255l19 145h-104l-19 -145h104z" />
<glyph unicode="$" horiz-adv-x="513" d="M218 -86v101q-44 1 -85 13t-67 31l24 67q26 -18 63 -30.5t79 -12.5q54 0 87 27.5t33 70.5q0 42 -28.5 69t-84.5 50q-77 30 -121 69.5t-44 104.5q0 63 40.5 106.5t109.5 54.5v100h63v-97q45 -2 76.5 -12t53.5 -23l-25 -66q-16 9 -47 22t-79 13q-29 0 -49 -8t-33 -20.5 t-18.5 -28t-5.5 -30.5q0 -38 29.5 -62t94.5 -52q78 -32 116.5 -73.5t38.5 -108.5q0 -30 -10 -58t-30 -51t-49.5 -39.5t-68.5 -22.5v-104h-63z" />
<glyph unicode="%" horiz-adv-x="792" d="M607 339q-20 0 -36 -11.5t-26.5 -31t-16 -46t-5.5 -57.5q-1 -31 4.5 -58t16.5 -46.5t27 -31t37 -11.5q43 0 63.5 42t20.5 107q0 30 -4.5 56t-14.5 45.5t-26 31t-39 11.5h-1zM612 392q68 0 108.5 -49.5t40.5 -143.5q0 -52 -12.5 -90.5t-33.5 -64t-49.5 -38.5t-59.5 -13 t-58.5 12.5t-48 37t-33 61t-12.5 85.5t12.5 87t33.5 63.5t49.5 39t61.5 13.5h1zM175 -12l383 674h56l-383 -674h-56zM183 608q-20 0 -36 -11.5t-26.5 -31.5t-16 -46.5t-5.5 -57.5q-1 -31 4.5 -57.5t16.5 -46t27 -30.5t37 -11q44 0 64 41t20 106q0 30 -4.5 56t-14.5 46 t-26 31.5t-39 11.5h-1zM188 661q68 0 108.5 -50t40.5 -144q0 -51 -12.5 -89.5t-33.5 -64t-49.5 -38t-59.5 -12.5t-58.5 12t-48 36.5t-33 61t-12.5 85.5t12.5 86.5t33.5 63.5t49.5 39.5t61.5 13.5h1z" />
<glyph unicode="&#x26;" horiz-adv-x="605" d="M271 625q-42 0 -63 -29.5t-21 -68.5q0 -36 15 -65t36 -56q52 29 82 59t30 73q0 15 -4.5 30.5t-14 28t-24 20.5t-35.5 8h-1zM254 55q44 0 79 17.5t59 43.5l-36 39l-46 51l-52 59l-55 63q-14 -9 -29.5 -21.5t-28 -29t-21 -38t-8.5 -48.5q0 -29 10 -54t28 -43t43.5 -28.5 t55.5 -10.5h1zM498 0l-28 30l-35 35q-44 -40 -92 -58t-105 -18q-49 0 -87.5 15.5t-65 41.5t-40.5 60t-14 72q0 69 37 117t95 80v3q-26 33 -41.5 69t-15.5 72q0 31 11 60.5t33 53t54 38t74 14.5q31 0 58.5 -10t47.5 -28.5t31.5 -45t11.5 -59.5q0 -54 -33.5 -97t-114.5 -83v-3 l43 -51l44 -50l42 -46l35 -41q45 69 65 197h80q-14 -80 -36.5 -142t-60.5 -107l54 -58l57 -61h-104z" />
<glyph unicode="'" horiz-adv-x="188" d="M137 692l-16 -240h-54l-16 240h86z" />
<glyph unicode="(" horiz-adv-x="284" d="M263 694q-55 -75 -90 -174t-35 -236q0 -67 9.5 -124.5t26.5 -107.5t40 -93t49 -80h-68q-24 31 -47 71t-42 90t-30.5 111t-11.5 134t12 134.5t30.5 112t41.5 90.5t47 72h68z" />
<glyph unicode=")" horiz-adv-x="284" d="M20 -121q26 37 49 80t40 93.5t26.5 108.5t9.5 126q0 67 -9.5 125t-26.5 108.5t-39.5 93t-49.5 80.5h68q24 -31 47 -71t42 -90t30.5 -111.5t11.5 -134.5q0 -74 -12 -134.5t-30.5 -111t-41.5 -90.5t-47 -72h-68z" />
<glyph unicode="*" horiz-adv-x="415" d="M329 650l-95 -124v-2l151 20v-68l-151 18v-2l96 -121l-63 -35l-61 140h-2l-64 -141l-57 36l95 122v2l-148 -19v68l147 -19v2l-94 123l61 34l62 -139h2l61 140z" />
<glyph unicode="+" horiz-adv-x="596" d="M330 532v-235h226v-60h-226v-237h-64v237h-226v60h226v235h64z" />
<glyph unicode="," horiz-adv-x="207" d="M16 -124q8 22 17 52.5t17 63t15 65t11 59.5l98 10q-9 -32 -21 -67.5t-25.5 -68.5t-26.5 -61t-23 -46z" />
<glyph unicode="-" horiz-adv-x="307" d="M277 302v-64h-247v64h247z" />
<glyph unicode="&#xad;" horiz-adv-x="307" d="M277 302v-64h-247v64h247z" />
<glyph unicode="." horiz-adv-x="207" d="M110 -11q-26 0 -42 18t-16 45t17 45t43 18t42.5 -17.5t16.5 -45.5q0 -27 -16.5 -45t-43.5 -18h-1z" />
<glyph unicode="/" horiz-adv-x="343" d="M-1 -40l278 725h69l-280 -725h-67z" />
<glyph unicode="0" horiz-adv-x="513" d="M257 57q33 0 58 19t41.5 54t24.5 85.5t8 112.5q0 60 -7.5 109t-24 83.5t-41.5 53.5t-59 19q-30 0 -54.5 -18.5t-41.5 -53t-26.5 -83.5t-9.5 -110q-1 -63 8 -113.5t26.5 -85.5t42 -53.5t54.5 -18.5h1zM252 -11q-96 0 -155 86t-61 248q0 82 17 145t47 106t71.5 65t91.5 22 q103 0 159 -86.5t56 -242.5q0 -167 -59 -255t-166 -88h-1z" />
<glyph unicode="1" horiz-adv-x="513" d="M236 568h-2l-113 -61l-17 67l142 76h75v-650h-85v568z" />
<glyph unicode="2" horiz-adv-x="513" d="M45 0v54l69 67l108 106q45 47 75 86.5t44.5 75t14.5 72.5q0 25 -6.5 48t-21.5 40.5t-39.5 28t-60.5 10.5q-45 0 -80 -18t-58 -37l-28 62q33 28 80 47t104 19q52 0 89.5 -16.5t61.5 -43t35.5 -60.5t11.5 -69q0 -45 -15.5 -86.5t-45 -83.5t-71 -86t-92.5 -93l-51 -48v-2 h291v-73h-415z" />
<glyph unicode="3" horiz-adv-x="513" d="M66 100q9 -6 24 -13t34 -13t41 -10t45 -4q42 0 70.5 12t45.5 30.5t24 40.5t7 43q0 34 -14.5 58.5t-38 40.5t-53.5 23.5t-62 7.5h-49v66h49q24 0 49.5 6.5t47 20t35 34t13.5 49.5q0 39 -26.5 68.5t-87.5 29.5q-39 0 -74 -14t-56 -29l-24 64q26 19 72 34.5t99 15.5 q48 0 83 -13t58 -35t34 -49.5t11 -57.5q0 -51 -30 -91.5t-90 -62.5v-2q30 -6 56.5 -19.5t46 -35t31 -49.5t11.5 -62q0 -39 -15 -74.5t-45 -62t-74.5 -42.5t-102.5 -16q-55 0 -100 14t-69 30z" />
<glyph unicode="4" horiz-adv-x="513" d="M317 246v217q0 51 3 102h-3l-27 -51l-27 -45l-159 -221v-2h213zM317 0v178h-302v57l290 415h95v-404h91v-68h-91v-178h-83z" />
<glyph unicode="5" horiz-adv-x="513" d="M433 576h-248l-25 -167q11 2 23 3t30 1q38 0 74 -8.5t66 -26.5q38 -21 65.5 -63t27.5 -104q0 -48 -18 -88.5t-50 -70t-76.5 -46.5t-97.5 -17q-54 0 -96 12.5t-66 27.5l22 67q20 -12 57.5 -24t82.5 -12q31 0 59 10t49 28t33 44.5t12 59.5q0 62 -44.5 102.5t-141.5 40.5 q-29 0 -51 -2t-40 -5l42 312h311v-74z" />
<glyph unicode="6" horiz-adv-x="513" d="M265 57q57 0 91.5 43t34.5 113t-36.5 109.5t-97.5 39.5q-40 0 -74.5 -22t-52.5 -58q-4 -8 -6.5 -17t-2.5 -21q0 -40 9.5 -74.5t27.5 -59.5t44.5 -39t61.5 -14h1zM416 588q-26 1 -66 -5q-52 -8 -92 -30t-67.5 -53t-44 -69t-22.5 -78h2q23 32 63.5 54t94.5 22q43 0 79 -15 t62 -42.5t40.5 -66.5t14.5 -86q0 -45 -15 -86.5t-42.5 -73.5t-68 -51t-91.5 -19q-52 0 -94 19.5t-72 55.5t-46.5 87.5t-16.5 114.5q0 97 30.5 171t79.5 122q41 40 93.5 64t114.5 32q20 3 36 4t28 1v-72z" />
<glyph unicode="7" horiz-adv-x="513" d="M467 650v-58l-283 -592h-90l281 575v2h-318v73h410z" />
<glyph unicode="8" horiz-adv-x="513" d="M258 598q-55 0 -84 -31t-29 -73q-1 -49 33 -77t91 -43q42 14 70.5 43.5t28.5 74.5q0 19 -6 38t-19 34t-34 24.5t-50 9.5h-1zM257 53q60 0 95 32.5t35 83.5q0 59 -38.5 91t-104.5 51q-57 -17 -87 -52.5t-30 -82.5q-1 -24 7.5 -46.5t25 -39.5t41 -27t55.5 -10h1zM263 661 q47 0 82.5 -13.5t59.5 -36t36 -51t12 -59.5q0 -42 -24 -83t-84 -69v-3q61 -24 96 -66.5t35 -101.5q0 -43 -17 -78t-47 -59.5t-70.5 -38t-86.5 -13.5q-51 0 -91.5 14t-68.5 38t-43 55.5t-15 67.5q0 62 34 105.5t94 69.5v3q-55 26 -79.5 65t-24.5 81q0 39 15.5 70.5t42.5 54.5 t63.5 35.5t79.5 12.5h1z" />
<glyph unicode="9" horiz-adv-x="513" d="M255 594q-28 0 -51 -12t-40 -33t-26.5 -50t-9.5 -63q0 -61 34 -99.5t91 -38.5q45 0 78 19.5t51 48.5q3 6 5 13.5t2 18.5q0 42 -7.5 78t-24 62t-42 41t-59.5 15h-1zM96 62q14 -1 31 0t40 4q38 5 73 20.5t63 41.5q32 30 54.5 72.5t31.5 100.5h-3q-27 -33 -65.5 -51.5 t-88.5 -18.5q-44 0 -79.5 15.5t-60.5 42.5t-38.5 63.5t-13.5 78.5q0 46 16 87.5t45.5 73t70.5 50.5t91 19t90 -19.5t67.5 -55t42.5 -86t15 -113.5q0 -108 -32 -183t-80 -122q-38 -36 -87 -58.5t-102 -28.5q-24 -3 -45 -4.5t-36 -0.5v72z" />
<glyph unicode=":" horiz-adv-x="207" d="M111 -11q-26 0 -42 18t-16 44q0 28 16.5 45.5t42.5 17.5q27 0 43 -17.5t16 -45.5q0 -26 -16 -44t-43 -18h-1zM111 342q-26 0 -42 18t-16 44q0 28 16.5 45.5t42.5 17.5q27 0 43 -17.5t16 -45.5q0 -26 -16 -44t-43 -18h-1z" />
<glyph unicode=";" horiz-adv-x="207" d="M118 342q-26 0 -42 18t-16 44q0 28 16.5 45.5t42.5 17.5q27 0 43 -17.5t16 -45.5q0 -26 -16 -44t-43 -18h-1zM17 -123q8 22 17 52t17 62.5t15 65t11 59.5l97 10q-9 -32 -21 -67.5t-25.5 -68.5t-26.5 -61t-23 -46z" />
<glyph unicode="&#x3c;" horiz-adv-x="596" d="M66 293l464 239v-69l-391 -196v-2l391 -196v-69l-464 239v54z" />
<glyph unicode="=" horiz-adv-x="596" d="M556 397v-60h-516v60h516zM556 201v-60h-516v60h516z" />
<glyph unicode="&#x3e;" horiz-adv-x="596" d="M530 238l-464 -238v69l394 196v2l-394 196v69l464 -237v-57z" />
<glyph unicode="?" horiz-adv-x="406" d="M178 -11q-26 0 -42 18t-16 44q0 28 16.5 45.5t42.5 17.5q27 0 43 -17.5t16 -45.5q0 -26 -16 -44t-43 -18h-1zM141 192l-2 25q-5 41 9.5 84.5t52.5 88.5q34 41 52 72t18 65q0 38 -23.5 62t-71.5 24q-27 0 -54.5 -8t-46.5 -23l-24 63q25 19 64 30t79 11q43 0 74.5 -12.5 t52 -33t30.5 -47.5t10 -55q0 -50 -25 -90.5t-61 -82.5q-33 -40 -46 -75t-11 -73l1 -25h-78z" />
<glyph unicode="@" horiz-adv-x="737" d="M524 -65q-42 -22 -84.5 -31t-93.5 -9q-62 0 -117 22t-96 62.5t-65.5 98.5t-24.5 130q0 77 26 147t73.5 122.5t115 83.5t150.5 31q65 0 118.5 -21.5t91.5 -60t59 -91.5t21 -116q0 -56 -14.5 -100.5t-39 -75t-56.5 -46.5t-67 -16q-15 0 -28.5 5t-24 15.5t-16.5 27.5t-5 40 h-3q-54 -88 -142 -88q-22 0 -41.5 8.5t-34.5 25t-23.5 39.5t-8.5 53q0 46 17.5 89t49 76t75 52.5t95.5 19.5q32 0 60 -6t47 -15l-33 -181q-11 -57 -3.5 -84t32.5 -28q19 -1 38.5 11.5t35 36t25 57.5t9.5 77q0 55 -16 101t-47 79t-76 51.5t-103 18.5q-61 0 -115.5 -23.5 t-95.5 -66.5t-65 -104.5t-24 -137.5q0 -63 19.5 -113t53.5 -85t81 -54t103 -19q44 0 82.5 9t68.5 26zM470 367q-8 3 -20.5 5.5t-29.5 2.5q-33 0 -62.5 -14.5t-51 -39t-34 -57.5t-12.5 -69q0 -33 16.5 -54.5t49.5 -21.5q22 0 42.5 12.5t37 32t28 44t15.5 47.5z" />
<glyph unicode="A" horiz-adv-x="612" d="M406 280l-67 194q-11 33 -18.5 63.5t-15.5 59.5h-3l-15 -60q-8 -31 -18 -62l-66 -195h203zM185 212l-70 -212h-90l229 674h105l230 -674h-93l-72 212h-239z" />
<glyph unicode="B" horiz-adv-x="542" d="M163 66q14 -2 32 -3t41 -1q34 0 65 6.5t55 22t38.5 40.5t14.5 62q0 34 -14 58.5t-37.5 40.5t-55 23.5t-67.5 7.5h-72v-257zM163 388h79q69 0 107 32.5t38 81.5q0 59 -40.5 84.5t-106.5 25.5q-30 0 -48 -2t-29 -4v-218zM76 664q29 7 71.5 11t87.5 4q66 0 109.5 -11.5 t74.5 -37.5q26 -20 41.5 -49.5t15.5 -69.5q0 -50 -30.5 -89.5t-83.5 -58.5v-3q24 -6 48.5 -18.5t45 -33.5t33 -50t12.5 -66q0 -44 -16 -77t-42 -58q-67 -63 -232 -63q-45 0 -79 2.5t-56 5.5v662z" />
<glyph unicode="C" horiz-adv-x="580" d="M546 22q-23 -12 -69.5 -22t-108.5 -10q-71 0 -132 22t-105.5 65.5t-69.5 107t-25 146.5q0 79 25.5 144t72 111.5t111.5 72t143 25.5q63 0 103 -10.5t57 -18.5l-22 -72q-24 12 -58.5 20t-76.5 8q-59 0 -107.5 -18.5t-83 -54t-53.5 -87t-19 -117.5q0 -62 17.5 -112 t50.5 -85t81 -54t109 -19q41 0 79 7.5t64 20.5z" />
<glyph unicode="D" horiz-adv-x="666" d="M163 68q17 -3 39.5 -3.5t48.5 -0.5q140 -1 213.5 74t73.5 212q0 60 -16.5 108t-50.5 81.5t-85.5 52t-120.5 18.5q-34 0 -59.5 -2.5t-42.5 -6.5v-533zM75 665q41 6 87.5 10t98.5 4q94 0 161 -21t112 -63q46 -42 71 -101t25 -141q0 -83 -25 -149t-72 -113 q-48 -48 -124 -72.5t-175 -24.5q-48 0 -86.5 1.5t-72.5 6.5v663z" />
<glyph unicode="E" horiz-adv-x="492" d="M424 316h-261v-243h292v-73h-380v674h365v-73h-277v-213h261v-72z" />
<glyph unicode="F" horiz-adv-x="487" d="M75 674h363v-73h-275v-224h254v-72h-254v-305h-88v674z" />
<glyph unicode="G" horiz-adv-x="646" d="M590 30q-15 -6 -36.5 -12.5t-48 -12t-58 -9t-65.5 -3.5q-77 0 -139.5 20.5t-112.5 68.5q-44 42 -69 107t-25 144q0 75 25 139t72.5 110.5t115 72.5t152.5 26q59 0 103 -10t66 -21l-22 -71q-27 13 -62.5 21t-86.5 8q-62 0 -112 -18.5t-85 -53.5t-54.5 -85.5t-19.5 -113.5 q0 -64 18.5 -114.5t52.5 -85.5t82 -53.5t107 -18.5q43 0 72 5t44 13v201h-136v70h222v-324z" />
<glyph unicode="H" horiz-adv-x="652" d="M163 674v-282h326v282h88v-674h-88v316h-326v-316h-88v674h88z" />
<glyph unicode="I" horiz-adv-x="239" d="M163 674v-674h-88v674h88z" />
<glyph unicode="J" horiz-adv-x="370" d="M213 674h88v-451q0 -67 -15.5 -112t-43 -72t-65 -38.5t-80.5 -11.5q-25 0 -51 4.5t-42 11.5l12 71q14 -5 32.5 -9t41.5 -4q29 0 52 7.5t38.5 26.5t24 51t8.5 82v444z" />
<glyph unicode="K" horiz-adv-x="542" d="M76 674h87v-325h3l27 37l26 35l206 253h108l-244 -286l263 -388h-103l-221 331l-65 -74v-257h-87v674z" />
<glyph unicode="L" horiz-adv-x="472" d="M75 674h88v-601h288v-73h-376v674z" />
<glyph unicode="M" horiz-adv-x="804" d="M644 296l-4 73q-2 38 -3.5 76t-2.5 74.5t-1 67.5h-2l-39 -123q-20 -64 -46 -133l-119 -327h-66l-110 321q-24 72 -43.5 137t-33.5 125h-2q-2 -63 -5 -142.5t-8 -155.5l-18 -289h-83l47 674h111l115 -326q21 -63 37.5 -119t30.5 -109h2q14 51 31.5 107.5t40.5 120.5 l120 326h111l42 -674h-86z" />
<glyph unicode="N" horiz-adv-x="658" d="M76 0v674h96l215 -341q37 -60 67 -113.5t53 -105.5l3 1q-6 68 -8 133t-2 143v283h82v-674h-88l-214 342l-68 114q-32 56 -57 111l-3 -1q4 -64 5 -129t1 -149v-288h-82z" />
<glyph unicode="O" horiz-adv-x="689" d="M344 60q52 0 92 22t67.5 60.5t42 89.5t14.5 108q0 50 -13 99t-40 88t-67.5 63t-94.5 24t-95 -23.5t-68 -62.5t-40.5 -89.5t-13.5 -105.5q0 -53 14.5 -102.5t42 -87.5t67.5 -60.5t91 -22.5h1zM339 -11q-67 0 -123 24.5t-96 69.5t-62 108t-22 140q0 80 23.5 145.5t65 112 t98.5 71.5t125 25q69 0 125.5 -25t96 -70.5t61 -108t21.5 -137.5q0 -87 -24.5 -153t-67 -111t-99.5 -68t-121 -23h-1z" />
<glyph unicode="P" horiz-adv-x="532" d="M163 342q27 -7 72 -7q79 0 124 37t45 106q0 67 -43.5 99.5t-115.5 32.5q-29 0 -50 -2t-32 -5v-261zM76 665q32 6 73 10t94 4q127 0 189 -56q28 -24 44 -59.5t16 -80.5q0 -91 -53 -144q-35 -37 -88.5 -55.5t-117.5 -18.5q-20 0 -37.5 1t-32.5 5v-271h-87v665z" />
<glyph unicode="Q" horiz-adv-x="689" d="M344 60q52 0 92 22t67.5 60.5t42 89.5t14.5 108q0 51 -13 100t-39.5 87.5t-66.5 62.5t-94 24q-55 0 -96 -23.5t-68.5 -62.5t-41 -90t-13.5 -106q0 -54 14.5 -103t42 -86.5t67.5 -60t91 -22.5h1zM632 -98q-69 17 -134 37t-124 40q-11 4 -21 7t-20 3q-60 2 -114 25 t-94.5 66t-64.5 106t-24 144t23.5 146.5t65 112t99 71.5t125.5 25q69 0 125 -25.5t95.5 -70.5t61 -107.5t21.5 -137.5q0 -65 -14.5 -118t-40 -93.5t-60.5 -68.5t-77 -43v-4q51 -13 102.5 -24t94.5 -19z" />
<glyph unicode="R" horiz-adv-x="538" d="M163 358h89q70 0 111 35t41 93q0 66 -43 95.5t-112 29.5q-32 0 -53.5 -2.5t-32.5 -5.5v-245zM76 664q33 7 77.5 11t89.5 4q70 0 117 -13.5t79 -42.5q25 -22 39 -55t14 -73q0 -33 -10 -60.5t-27.5 -49t-40.5 -37t-49 -24.5v-3q38 -14 62 -48.5t37 -87.5l29 -118 q12 -47 22 -67h-90q-8 15 -19 56.5t-25 104.5q-15 70 -46 99.5t-90 31.5h-82v-292h-87v664z" />
<glyph unicode="S" horiz-adv-x="493" d="M65 106q29 -18 69.5 -30.5t85.5 -12.5q67 0 104 31.5t37 82.5q0 47 -29.5 77.5t-97.5 56.5q-83 29 -130.5 74t-47.5 116q0 39 15.5 72.5t44 58t69 38.5t89.5 14q51 0 88.5 -10t59.5 -22l-24 -72q-16 10 -48.5 21t-78.5 11q-35 0 -59 -9.5t-39 -24t-22 -32.5t-7 -35 q0 -23 8 -41t24.5 -33t41.5 -28.5t60 -26.5q43 -17 75 -36t53.5 -42.5t32 -53t10.5 -66.5q0 -39 -14.5 -74t-43.5 -61.5t-73 -42.5t-104 -16q-24 0 -49 3.5t-48 9.5t-42.5 14t-32.5 17z" />
<glyph unicode="T" horiz-adv-x="497" d="M204 600h-205v74h499v-74h-206v-600h-88v600z" />
<glyph unicode="U" horiz-adv-x="647" d="M163 674v-400q0 -56 12 -96.5t33 -66.5t49.5 -38.5t62.5 -12.5q74 0 119 51.5t45 162.5v400h88v-394q0 -78 -19.5 -133t-53.5 -90t-80.5 -51.5t-101.5 -16.5q-52 0 -96 15.5t-76.5 50t-51 89t-18.5 133.5v397h88z" />
<glyph unicode="V" horiz-adv-x="558" d="M224 0l-221 674h95l105 -332l39 -131q19 -62 33 -121h2q14 59 34 122l43 129l114 333h93l-241 -674h-96z" />
<glyph unicode="W" horiz-adv-x="846" d="M186 0l-171 674h92l80 -341l28 -124q13 -60 22 -109h2q8 51 23 110l32 124l90 340h91l82 -342l27 -119q12 -58 20 -112h2q11 56 24 113l30 120l89 340h89l-191 -674h-91l-85 350q-16 66 -26.5 118t-17.5 103h-2q-8 -51 -20.5 -102.5t-31.5 -117.5l-96 -351h-91z" />
<glyph unicode="X" horiz-adv-x="571" d="M445 0l-87 149l-44 73l-33 60h-2q-14 -29 -31 -60l-42 -74l-81 -148h-100l206 341l-198 333h101l89 -158l33 -60l29 -54h3q14 30 28 56t33 58l91 158h101l-205 -328l210 -346h-101z" />
<glyph unicode="Y" horiz-adv-x="541" d="M226 0v286l-214 388h100l95 -186l35 -71l32 -68h2q14 33 31 67l37 72l97 186h98l-225 -387v-287h-88z" />
<glyph unicode="Z" horiz-adv-x="553" d="M30 51l374 547v3h-342v73h455v-53l-372 -545v-3h377v-73h-492v51z" />
<glyph unicode="[" horiz-adv-x="284" d="M81 -112v798h183v-55h-114v-688h114v-55h-183z" />
<glyph unicode="\" horiz-adv-x="341" d="M274 -40l-272 725h68l272 -725h-68z" />
<glyph unicode="]" horiz-adv-x="284" d="M203 686v-798h-183v55h114v688h-114v55h183z" />
<glyph unicode="^" horiz-adv-x="596" d="M466 189l-167 388h-2l-167 -388h-69l206 461h63l206 -461h-70z" />
<glyph unicode="_" horiz-adv-x="500" d="M500 -75v-50h-500v50h500z" />
<glyph unicode="`" d="M118 693l88 -143h-62l-122 143h96z" />
<glyph unicode="a" horiz-adv-x="482" d="M328 247q-36 1 -72.5 -3t-66 -15.5t-48 -33.5t-18.5 -57q0 -44 24.5 -64t57.5 -20q48 0 78 25t41 56q4 12 4 28v84zM414 116q0 -32 1.5 -61.5t5.5 -54.5h-79l-8 61h-3q-20 -29 -58 -50.5t-90 -21.5q-37 0 -64.5 12t-46 31.5t-28 44.5t-9.5 51q0 88 75 134.5t216 45.5v10 q0 15 -3.5 34.5t-14.5 37t-33 29t-59 11.5q-35 0 -68 -9.5t-59 -26.5l-20 59q30 19 72 30.5t88 11.5q56 0 92 -17.5t56.5 -45.5t28.5 -63.5t8 -71.5v-181z" />
<glyph unicode="b" horiz-adv-x="569" d="M161 194q0 -17 3 -32q13 -46 48.5 -74.5t83.5 -28.5q35 0 62.5 13.5t46 38t28.5 58.5t10 76q0 37 -9.5 69.5t-27.5 57.5t-45 39.5t-62 14.5q-45 0 -82.5 -29t-50.5 -79q-5 -18 -5 -37v-87zM73 710h88v-303h2q23 41 64.5 64.5t100.5 23.5q45 0 82.5 -18t64.5 -50.5 t42 -77.5t15 -100q0 -65 -19 -114t-49.5 -81.5t-70 -48.5t-79.5 -16q-53 0 -93.5 21.5t-68.5 69.5h-2l-5 -80h-76q2 25 3 59t1 66v585z" />
<glyph unicode="c" horiz-adv-x="448" d="M418 18q-17 -8 -53.5 -18t-85.5 -10q-55 0 -99.5 18t-76 50t-48.5 77.5t-17 101.5t18.5 103t52.5 81.5t82 54t107 19.5q39 0 71.5 -8t50.5 -18l-20 -67q-16 8 -41 15.5t-61 7.5q-42 0 -73.5 -14.5t-53.5 -39.5t-33 -58.5t-11 -70.5q0 -42 12.5 -75.5t35 -57t53.5 -36 t67 -12.5q38 0 63.5 7.5t44.5 15.5z" />
<glyph unicode="d" horiz-adv-x="564" d="M403 287q0 9 -1 19t-3 19q-10 42 -43.5 71.5t-83.5 29.5q-34 0 -61 -14t-45.5 -39t-28.5 -59t-10 -74q0 -37 9 -70t27 -57.5t45 -38.5t62 -14q45 0 81 28t48 78q4 15 4 37v84zM491 710v-585q0 -32 1 -66t3 -59h-79l-4 84h-2q-20 -41 -62 -68t-102 -27q-44 0 -82 18 t-66 50t-44 77.5t-16 100.5q0 61 17 109t47 81.5t69.5 51.5t83.5 18q57 0 93.5 -22t52.5 -51h2v288h88z" />
<glyph unicode="e" horiz-adv-x="501" d="M380 289q0 21 -5 46t-18.5 46.5t-37 36t-60.5 14.5q-34 0 -58 -14t-40.5 -35t-25 -46t-11.5 -48h256zM123 226q1 -44 14.5 -76t36 -52t52 -29.5t62.5 -9.5q48 0 79 7t55 18l16 -63q-23 -11 -63.5 -21t-98.5 -10q-56 0 -100 17.5t-74.5 50t-47 77.5t-16.5 99 q0 55 16 102.5t45.5 82.5t71.5 55.5t95 20.5q59 0 97.5 -23t61 -57.5t31.5 -74.5t9 -73q0 -26 -3 -41h-339z" />
<glyph unicode="f" horiz-adv-x="292" d="M81 0v417h-67v67h67v23q0 51 13 95.5t44 73.5q25 24 56 34.5t61 10.5q24 0 43 -4.5t32 -9.5l-11 -68q-11 5 -24 8t-33 3q-28 0 -46 -11.5t-28.5 -31t-15 -44.5t-4.5 -53v-26h117v-67h-116v-417h-88z" />
<glyph unicode="g" horiz-adv-x="559" d="M399 294q0 11 -1 20.5t-4 18.5q-12 39 -43 66.5t-80 27.5q-32 0 -58 -13t-45.5 -37t-30 -58t-10.5 -76q0 -35 9 -66.5t27 -55.5t45 -38t62 -14q42 0 75 24t47 67q4 11 5.5 23t1.5 24v87zM487 71q0 -84 -17.5 -137t-51.5 -85q-36 -32 -83.5 -45t-93.5 -13q-44 0 -88 10 t-73 30l22 68q24 -16 60.5 -27.5t81.5 -11.5q34 0 62.5 9.5t49.5 29.5t32.5 52.5t11.5 78.5v53h-2q-20 -34 -58.5 -57.5t-95.5 -23.5q-45 0 -83 18t-65 50t-42.5 75t-15.5 94q0 61 18.5 109t49 80.5t70 49.5t81.5 17q31 0 55.5 -7.5t43 -19.5t31.5 -27t21 -30h2l3 73h78 q-2 -26 -3 -57t-1 -75v-281z" />
<glyph unicode="h" horiz-adv-x="555" d="M73 710h88v-302h2q11 19 27 35t36 27q41 25 90 25q24 0 53.5 -9t55 -32t43 -63t17.5 -103v-288h-88v279q0 29 -6 55t-19 45.5t-34.5 31t-52.5 11.5q-43 0 -74 -26t-44 -62q-4 -9 -5 -19t-1 -23v-292h-88v710z" />
<glyph unicode="i" horiz-adv-x="234" d="M73 0v484h88v-484h-88zM115 566q-24 0 -38.5 16t-14.5 38q0 23 15 39t40 16q24 0 39 -16t15 -39q0 -22 -14.5 -38t-40.5 -16h-1z" />
<glyph unicode="j" horiz-adv-x="243" d="M126 566q-24 0 -38.5 16t-14.5 38q0 23 15 39t40 16t39.5 -16t14.5 -39q0 -22 -14.5 -38t-40.5 -16h-1zM-46 -142q31 2 55.5 11t40.5 26q9 10 15.5 23.5t10.5 34t6 50.5t2 74v407h88v-441q0 -71 -13 -118.5t-45 -80.5q-15 -15 -33.5 -25t-38.5 -17t-40 -10t-38 -3z" />
<glyph unicode="k" horiz-adv-x="469" d="M161 262h2q9 13 20 27.5t22 27.5l143 167h105l-187 -199l213 -285h-107l-166 232l-45 -50v-182h-88v710h88v-448z" />
<glyph unicode="l" horiz-adv-x="236" d="M73 710h88v-710h-88v710z" />
<glyph unicode="m" horiz-adv-x="834" d="M73 353q0 38 -1 69.5t-3 61.5h77l4 -78h3q10 17 24 33t32.5 28.5t42.5 20t54 7.5q49 0 84.5 -27t51.5 -70h2q11 21 25.5 36.5t29.5 26.5q22 17 46.5 25.5t59.5 8.5q24 0 52 -9t52 -33t40 -64.5t16 -103.5v-285h-86v274q0 71 -26 110t-79 39q-38 0 -65.5 -23.5 t-39.5 -55.5q-3 -10 -5 -21.5t-2 -22.5v-300h-86v291q0 58 -25 95t-76 37q-41 0 -69.5 -27.5t-39.5 -60.5q-7 -18 -7 -43v-292h-86v353z" />
<glyph unicode="n" horiz-adv-x="555" d="M73 353q0 38 -1 69.5t-3 61.5h78l5 -79h2q9 17 24 33t35 29t45.5 20.5t55.5 7.5q25 0 55 -9t55.5 -32t43 -63t17.5 -102v-289h-88v279q0 29 -6 55.5t-19 46t-34.5 31t-52.5 11.5q-43 0 -74.5 -26.5t-43.5 -63.5q-3 -8 -4.5 -19t-1.5 -22v-292h-88v353z" />
<glyph unicode="o" horiz-adv-x="549" d="M274 55q31 0 58 14t47 39t31 60t11 76q0 31 -8 63.5t-25.5 59.5t-45 44.5t-66.5 17.5t-67 -16.5t-46 -43t-26.5 -60.5t-8.5 -68q0 -40 10.5 -74t30 -59t46 -39t58.5 -14h1zM270 -11q-49 0 -91 17.5t-73.5 49.5t-49.5 78.5t-18 103.5q0 61 19 108.5t51.5 80.5t76 50.5 t93.5 17.5q52 0 95 -18t73.5 -51t47.5 -78.5t17 -100.5q0 -68 -21.5 -116.5t-55.5 -80t-77 -46.5t-86 -15h-1z" />
<glyph unicode="p" horiz-adv-x="569" d="M161 197q0 -9 1 -18.5t3 -17.5q11 -46 47.5 -74.5t83.5 -28.5q35 0 62.5 13.5t46 38.5t28.5 59t10 76q0 36 -9.5 69t-27.5 57.5t-44.5 39t-61.5 14.5q-45 0 -83 -29.5t-51 -79.5q-2 -8 -3.5 -17.5t-1.5 -17.5v-84zM73 326q0 47 -1 85t-3 73h79l5 -83h2q26 45 69 69.5 t102 24.5q44 0 82 -18t65.5 -50t43 -77.5t15.5 -100.5q0 -65 -18.5 -114t-49 -81.5t-70.5 -48.5t-82 -16q-49 0 -88 20t-61 56h-2v-263h-88v524z" />
<glyph unicode="q" horiz-adv-x="563" d="M403 288q0 22 -4 37q-11 41 -43.5 70.5t-82.5 29.5q-34 0 -61 -13.5t-46 -38.5t-29 -59t-10 -75q0 -36 8.5 -69t26.5 -57.5t45 -39t63 -14.5q43 0 77 25t49 71q3 9 5 20.5t2 21.5v91zM403 74h-2q-20 -35 -59.5 -60t-98.5 -25q-42 0 -79.5 17.5t-65.5 49.5t-44 77t-16 101 q0 68 20 117t51.5 81t70.5 47.5t77 15.5q57 0 94 -24.5t55 -59.5h2l3 73h84q-2 -30 -3 -62.5t-1 -70.5v-549h-88v272z" />
<glyph unicode="r" horiz-adv-x="327" d="M73 333q0 43 -1 80t-3 71h77l4 -95h3q17 49 53.5 77.5t81.5 28.5q7 0 12.5 -0.5t11.5 -1.5v-83q-7 1 -14 1.5t-16 0.5q-47 0 -78 -31.5t-40 -80.5q-3 -20 -3 -41v-259h-88v333z" />
<glyph unicode="s" horiz-adv-x="396" d="M61 90q20 -12 52 -23t65 -11q48 0 70.5 20.5t22.5 51.5q0 32 -20.5 51t-68.5 37q-66 24 -97.5 59t-31.5 78q0 29 11.5 55t33.5 45.5t52.5 30.5t69.5 11q37 0 67.5 -8.5t50.5 -21.5l-21 -63q-14 8 -39.5 18t-59.5 10q-39 0 -59.5 -19.5t-20.5 -46.5q0 -30 21.5 -47 t69.5 -36q63 -23 95 -57t32 -88q0 -65 -47.5 -105.5t-132.5 -40.5q-40 0 -75 9.5t-61 24.5z" />
<glyph unicode="t" horiz-adv-x="331" d="M179 600v-116h126v-67h-126v-260q0 -45 14.5 -69.5t51.5 -24.5q18 0 29.5 1.5t21.5 4.5l4 -67q-13 -5 -32.5 -8.5t-45.5 -3.5q-31 0 -55 10t-40 27q-18 20 -26 52t-8 75v263h-75v67h75v89z" />
<glyph unicode="u" horiz-adv-x="551" d="M478 133q0 -38 1 -71t3 -62h-78l-5 79h-2q-8 -15 -22 -30.5t-34 -29t-46 -22t-58 -8.5q-29 0 -58.5 9.5t-53.5 33.5t-39.5 65t-15.5 104v283h88v-267q0 -69 24.5 -112t83.5 -43q45 0 74.5 25.5t41.5 55.5q8 19 8 45v296h88v-351z" />
<glyph unicode="v" horiz-adv-x="481" d="M107 484l95 -271q12 -34 21.5 -64.5t17.5 -60.5h3q8 30 18 60l23 65l94 271h92l-190 -484h-84l-184 484h94z" />
<glyph unicode="w" horiz-adv-x="736" d="M108 484l65 -245l19 -79q9 -38 16 -76h3q8 37 19 76l24 78l79 246h74l75 -242q14 -43 24.5 -82t18.5 -76h3q6 37 15.5 75.5t21.5 81.5l69 243h87l-156 -484h-80l-74 231q-13 42 -23.5 79.5t-19.5 80.5h-2q-9 -44 -20 -83t-24 -78l-78 -230h-80l-146 484h90z" />
<glyph unicode="x" horiz-adv-x="463" d="M114 484l69 -104q14 -20 25 -39l24 -40h3q12 22 24 41l25 39l67 103h96l-165 -234l169 -250h-100l-71 109l-26 41l-26 43h-2l-24 -42l-27 -42l-70 -109h-97l172 247l-164 237h98z" />
<glyph unicode="y" horiz-adv-x="471" d="M105 484l105 -286q9 -24 17.5 -50.5t14.5 -48.5h2q7 22 14.5 48.5t16.5 52.5l96 284h93l-132 -345q-24 -62 -44.5 -110t-40 -84t-39.5 -62.5t-42 -46.5q-33 -28 -62 -40.5t-46 -15.5l-22 73q17 5 37 15.5t40 27.5q18 14 38 39t36 59q7 16 7 21q0 8 -7 23l-178 446h96z " />
<glyph unicode="z" horiz-adv-x="428" d="M18 51l219 285l32 38l32 38v2h-263v70h369v-55l-217 -282l-30 -39q-15 -18 -32 -36v-2h283v-70h-393v51z" />
<glyph unicode="{" horiz-adv-x="284" d="M28 314q27 0 43 6.5t24.5 17t11 24t2.5 26.5q0 21 -2.5 42t-5.5 42t-5.5 42t-2.5 41q0 69 41 100t105 31h20v-55h-17q-45 -1 -62.5 -23t-17.5 -63q0 -17 2.5 -35t4.5 -36q3 -19 5.5 -37.5t2.5 -38.5q1 -48 -19 -73.5t-53 -34.5v-2q33 -8 53 -34.5t19 -74.5 q0 -20 -2.5 -39t-5.5 -38q-2 -18 -4.5 -36t-2.5 -36q0 -42 19 -64t61 -23h17v-55h-21q-31 0 -57.5 7t-46 23.5t-30.5 42.5t-11 64q0 20 2.5 41t6.5 41q2 21 4.5 41t2.5 40q0 12 -2.5 25t-11 24.5t-24.5 18.5t-43 7v51z" />
<glyph unicode="|" horiz-adv-x="239" d="M153 750v-1000h-67v1000h67z" />
<glyph unicode="}" horiz-adv-x="284" d="M256 263q-27 0 -43 -7t-24.5 -18.5t-11 -24.5t-2.5 -25q0 -20 2.5 -40t5.5 -41q3 -20 5.5 -41t2.5 -41q0 -38 -11 -64t-30.5 -42.5t-46 -23.5t-57.5 -7h-21v55h17q42 1 61 23t19 64q0 18 -2.5 36t-4.5 36q-3 19 -5.5 38t-2.5 39q-1 48 19 74.5t53 34.5v2q-33 9 -53 34.5 t-19 73.5q0 20 2.5 38.5t5.5 37.5q2 18 4.5 36t2.5 35q0 41 -17.5 63t-62.5 23h-17v55h20q64 0 105 -31t41 -100q0 -20 -2.5 -41t-5.5 -42t-5.5 -42t-2.5 -42q0 -13 2.5 -26.5t11 -24t24.5 -17t43 -6.5v-51z" />
<glyph unicode="~" horiz-adv-x="596" d="M49 211q-2 75 32.5 112.5t86.5 37.5q16 0 30.5 -2.5t31 -8t35.5 -14.5l45 -20q38 -18 67 -30t57 -12q52 0 54 84h59q2 -42 -7 -70.5t-25 -46.5t-37.5 -26t-44.5 -8q-29 0 -61 10t-84 34l-64 31q-29 13 -56 13t-42.5 -19.5t-16.5 -64.5h-60z" />
<glyph unicode="&#xa1;" horiz-adv-x="230" d="M116 488q26 0 42 -17.5t16 -44.5q0 -26 -16 -44t-43 -18q-26 0 -42.5 18t-16.5 44q0 27 16.5 44.5t42.5 17.5h1zM67 -195l14 478h68l14 -478h-96z" />
<glyph unicode="&#xa2;" horiz-adv-x="513" d="M268 -15v102q-48 5 -82.5 23t-61.5 47q-26 29 -41.5 71.5t-15.5 97.5q0 48 14 90t40.5 74.5t63.5 53.5t83 29v101h63v-99q34 -1 62.5 -8.5t46.5 -16.5l-20 -67q-16 9 -41.5 17t-63.5 8q-37 0 -66.5 -14t-50.5 -38.5t-32 -57t-11 -69.5q0 -41 12 -73.5t33.5 -55t50 -34.5 t61.5 -12q41 0 68.5 8t45.5 17l15 -64q-14 -8 -43.5 -17.5t-66.5 -11.5v-101h-63z" />
<glyph unicode="&#xa3;" horiz-adv-x="513" d="M55 0v50q51 26 82.5 72t31.5 103q0 18 -1 34t-4 36h-102v63h93q-4 23 -7.5 51t-3.5 57q0 44 14.5 80t40 61.5t60.5 39.5t77 14q39 0 66 -7.5t43 -17.5l-19 -66q-14 8 -36 14t-54 6q-59 0 -84 -36t-25 -89q0 -32 3 -57.5t8 -49.5h143v-63h-135q2 -29 2.5 -57t-6.5 -55 q-16 -63 -69 -108v-2h298v-73h-416z" />
<glyph unicode="&#xa4;" horiz-adv-x="513" d="M254 471q-27 0 -49 -11t-37.5 -30t-23.5 -45t-8 -55q0 -36 11 -62.5t28.5 -43.5t38 -25t40.5 -8q21 0 42 7.5t38.5 24.5t28 44t10.5 66q0 26 -7.5 51t-22.5 44.5t-37 31t-51 11.5h-1zM257 534q35 0 65 -11t50 -29l71 75l45 -46l-79 -71q15 -20 25 -50.5t10 -67.5 q0 -41 -10.5 -72t-24.5 -50l75 -74l-44 -44l-69 76q-23 -21 -55 -31.5t-62 -10.5q-31 0 -62.5 10.5t-51.5 29.5l-67 -74l-43 44l72 70q-15 20 -26 51.5t-11 69.5q0 39 11 70.5t28 52.5l-76 71l45 46l68 -76q22 19 52 30t63 11h1z" />
<glyph unicode="&#xa5;" horiz-adv-x="513" d="M209 0v176h-155v49h155v73h-155v49h131l-169 303h94l104 -206l22 -47l18 -44h3l17 44q10 23 23 49l108 204h92l-179 -303h130v-49h-156v-73h156v-49h-156v-176h-83z" />
<glyph unicode="&#xa6;" horiz-adv-x="239" d="M153 674v-350h-67v350h67zM153 174v-350h-67v350h67z" />
<glyph unicode="&#xa7;" horiz-adv-x="519" d="M396 593q-19 12 -48.5 22t-70.5 10q-45 0 -74.5 -20t-29.5 -54q0 -38 34 -57.5t91 -38.5q34 -11 64 -24.5t51.5 -31.5t34 -42.5t12.5 -58.5q0 -39 -17.5 -68.5t-46.5 -52.5q12 -11 25 -34.5t13 -54.5q0 -39 -16.5 -67.5t-43.5 -46.5t-61 -27t-69 -9q-45 0 -86.5 10.5 t-70.5 31.5l24 57q18 -13 53 -26.5t80 -13.5q48 0 79.5 21t31.5 60q0 18 -6 32t-20 26t-37.5 23.5t-58.5 23.5q-38 13 -70 27.5t-55 32.5t-36 41.5t-13 55.5q0 29 17 60.5t57 57.5q-16 11 -26.5 34t-10.5 49q0 33 14.5 59.5t39 45t58 28t72.5 9.5q42 0 77 -9.5t61 -23.5z M131 351q0 -27 22.5 -50t82.5 -44q38 -14 67.5 -26t46.5 -23q38 30 38 77q0 29 -20 52.5t-69 40.5l-63 24q-35 13 -60 27q-24 -17 -34.5 -36t-10.5 -41v-1z" />
<glyph unicode="&#xa8;" d="M242 570q-22 0 -35.5 15.5t-13.5 35.5q0 21 14.5 36t35.5 15t35 -14.5t14 -36.5q0 -20 -13.5 -35.5t-35.5 -15.5h-1zM56 570q-21 0 -35 15.5t-14 35.5q0 21 14.5 36t36.5 15q20 0 34 -14.5t14 -36.5q0 -20 -13.5 -35.5t-35.5 -15.5h-1z" />
<glyph unicode="&#xa9;" horiz-adv-x="677" d="M462 454q-10 5 -36 14t-61 9q-71 0 -105.5 -40t-34.5 -100q0 -29 9 -55t27 -45t44 -30t61 -11q30 0 57 7.5t44 18.5l12 -38q-26 -17 -58.5 -24t-64.5 -7q-44 0 -78 14t-57 38.5t-35.5 57.5t-12.5 71q0 43 15.5 77.5t42 58.5t61 37t72.5 13q39 0 69 -9t41 -18zM339 607 q-54 0 -100 -21t-80 -57t-53.5 -85.5t-19.5 -106.5q0 -56 19.5 -104.5t53.5 -84.5t80.5 -56.5t100.5 -20.5q53 -1 99 19.5t79.5 57t53 86t19.5 106.5q0 56 -19.5 104.5t-53 84.5t-79.5 57t-99 21h-1zM341 648q63 0 117.5 -24t95 -66t64 -98t23.5 -120q0 -65 -23.5 -121.5 t-64 -98.5t-95.5 -66t-118 -24q-64 0 -119.5 24t-96.5 66t-64.5 98.5t-23.5 121.5q0 64 23.5 120t64.5 98t96.5 66t119.5 24h1z" />
<glyph unicode="&#xaa;" horiz-adv-x="346" d="M235 427q-24 1 -48 -1.5t-43.5 -10t-32 -20.5t-12.5 -34q0 -25 17.5 -38t40.5 -13t41 11t27 25q10 14 10 27v54zM245 267l-5 42h-2q-15 -17 -41 -32t-61 -15q-50 0 -76.5 28t-26.5 67q0 54 52 84.5t149 28.5v10q0 6 -2.5 16.5t-10.5 20.5t-22.5 17.5t-39.5 7.5 q-50 0 -85 -26l-16 42q22 16 52 24.5t62 8.5q37 0 62 -12t39 -31.5t20 -44.5t6 -52v-106q0 -20 1.5 -40t3.5 -38h-59z" />
<glyph unicode="&#xab;" horiz-adv-x="419" d="M99 252l134 -184h-71l-133 184l132 184h71zM263 252l134 -184h-71l-133 184l132 184h71z" />
<glyph unicode="&#xac;" horiz-adv-x="596" d="M556 399v-278h-64v218h-452v60h516z" />
<glyph unicode="&#xae;" horiz-adv-x="419" d="M209 650q-27 0 -50 -10.5t-40 -28t-26.5 -41.5t-9.5 -51t9.5 -51t27 -42t41 -28t50.5 -10t49.5 10t39.5 27.5t26.5 41.5t9.5 51t-9.5 51t-26.5 42t-40 28.5t-50 10.5h-1zM211 683q35 0 65.5 -12.5t53 -35t35.5 -52.5t13 -64q0 -35 -13 -65t-35.5 -52t-53.5 -35t-66 -13 t-66 13t-54 35t-36 52t-13 65q0 34 13 64t36 52.5t54 35t66 12.5h1zM185 526h18q16 0 27 5.5t11 18.5q0 25 -35 25q-13 0 -21 -2v-47zM184 434h-38v164q11 2 27 3.5t36 1.5q23 0 35.5 -3.5t20.5 -9.5q17 -12 17 -35q0 -15 -10 -24.5t-24 -14.5v-2q12 -4 18.5 -13.5 t10.5 -26.5q4 -19 7 -27l5 -13h-40q-4 5 -7 15l-6 25q-4 25 -34 25h-18v-65z" />
<glyph unicode="&#xaf;" d="M263 643v-57h-225v57h225z" />
<glyph unicode="&#x2c9;" d="M263 643v-57h-225v57h225z" />
<glyph unicode="&#xb0;" horiz-adv-x="318" d="M160 638q-19 0 -33.5 -7.5t-24 -20t-14.5 -28t-5 -31.5q0 -35 22 -58.5t56 -23.5q35 0 57 24t22 61q0 14 -4.5 29t-14 27t-24.5 20t-36 8h-1zM163 685q31 0 55 -11t41 -29t26 -41.5t9 -48.5q0 -30 -11 -54.5t-30 -42t-43 -27t-50 -9.5q-29 0 -53.5 10.5t-41.5 28 t-26.5 41t-9.5 49.5q0 28 10.5 52.5t28.5 42.5t42 28.5t52 10.5h1z" />
<glyph unicode="&#xb1;" horiz-adv-x="596" d="M556 60v-60h-516v60h516zM330 571v-194h226v-60h-226v-200h-64v200h-226v60h226v194h64z" />
<glyph unicode="&#xb2;" horiz-adv-x="311" d="M12 481l63 58q63 57 94.5 96.5t31.5 77.5q0 29 -18.5 49t-57.5 20q-26 0 -48 -10t-36 -21l-21 46q20 17 52.5 29t70.5 12q35 0 60 -10t41 -26t23.5 -36t7.5 -40q0 -28 -10 -53t-28 -48.5t-43 -46.5l-52 -49l-30 -28v-2h170v-55h-270v37z" />
<glyph unicode="&#xb3;" horiz-adv-x="305" d="M28 807q17 11 47.5 21t67.5 10q32 0 55 -8t38 -21t22 -30t7 -35q0 -30 -20.5 -53.5t-56.5 -36.5v-2q41 -5 67 -31.5t26 -64.5q0 -23 -10.5 -44.5t-30.5 -37.5t-49.5 -25.5t-67.5 -9.5q-36 0 -67 8.5t-48 19.5l18 50q12 -8 38.5 -17t54.5 -9q23 0 40 6t27.5 16t15.5 21.5 t5 23.5q0 19 -9 32t-24 21.5t-34 12.5t-39 4h-27v46h28q14 0 30 3.5t29.5 11t22.5 19.5t9 29q0 18 -14.5 33.5t-48.5 15.5q-27 0 -50 -9t-35 -17z" />
<glyph unicode="&#xb4;" d="M285 693l-122 -143h-62l88 143h96z" />
<glyph unicode="&#xb5;" horiz-adv-x="553" d="M400 76q-8 -14 -20.5 -29t-29.5 -27.5t-39.5 -20.5t-49.5 -8q-33 0 -61.5 12.5t-44.5 41.5v-60q0 -20 0.5 -45.5t1.5 -51t3.5 -48.5t5.5 -38h-79q-8 23 -11 71.5t-3 106.5v504h88v-286q0 -28 6 -53t19 -43.5t34 -29t50 -10.5q22 0 40.5 7t33 18.5t25 25.5t16.5 29 q8 21 8 46v296h88v-350q0 -41 9.5 -58t36.5 -19l-7 -64q-8 -2 -14 -3t-17 -1q-32 0 -56 19.5t-30 67.5h-3z" />
<glyph unicode="&#xb6;" horiz-adv-x="512" d="M231 -48v313h-7q-30 0 -63 11.5t-61 35t-46.5 59.5t-19.5 84q0 39 12 78.5t43 71t84.5 51.5t135.5 20q77 0 117 -8v-716h-62v664h-71v-664h-62z" />
<glyph unicode="&#xb7;" horiz-adv-x="207" d="M102 200q-26 0 -42 18t-16 44q0 28 17 45.5t43 17.5t42.5 -17.5t16.5 -45.5q0 -26 -16.5 -44t-43.5 -18h-1z" />
<glyph unicode="&#x2219;" horiz-adv-x="207" d="M102 200q-26 0 -42 18t-16 44q0 28 17 45.5t43 17.5t42.5 -17.5t16.5 -45.5q0 -26 -16.5 -44t-43.5 -18h-1z" />
<glyph unicode="&#xb8;" d="M190 3l-33 -53q27 -3 48.5 -21.5t21.5 -47.5q0 -22 -8.5 -37.5t-23 -25t-33.5 -14t-40 -4.5q-18 0 -36.5 5t-31.5 13l15 42q26 -14 54 -14q17 0 30.5 7t12.5 24q0 20 -21.5 29.5t-56.5 12.5l47 84h55z" />
<glyph unicode="&#xb9;" horiz-adv-x="244" d="M107 444v328h-2l-72 -35l-11 52l94 44h61v-389h-70z" />
<glyph unicode="&#xba;" horiz-adv-x="355" d="M176 541q-24 0 -41 -10.5t-28 -27t-16.5 -37.5t-5.5 -41q0 -24 7.5 -45t20 -36t29.5 -23.5t36 -8.5q40 0 66 31.5t26 83.5q0 19 -5.5 39t-16.5 36.5t-28.5 27.5t-42.5 11h-1zM180 591q36 0 65 -12t49.5 -34t31.5 -51.5t11 -64.5q0 -43 -14.5 -74.5t-37 -52t-51 -30.5 t-57.5 -10q-33 0 -62 11.5t-50.5 32.5t-34 51t-12.5 67q0 39 13 69.5t35 52.5t51.5 33.5t61.5 11.5h1z" />
<glyph unicode="&#xbb;" horiz-adv-x="419" d="M23 436h71l133 -184l-133 -184h-70l133 184zM186 436h71l133 -184l-133 -184h-70l133 184z" />
<glyph unicode="&#xbc;" horiz-adv-x="759" d="M128 267v328h-2l-72 -35l-11 52l94 44h61v-389h-70zM597 271q0 17 1 32.5t2 29.5h-2l-18 -29q-7 -13 -15 -25l-96 -126l1 -1h127v119zM597 0v103h-200v39l193 253h73v-243h60v-49h-60v-103h-66zM138 -11l380 672h56l-379 -672h-57z" />
<glyph unicode="&#xbd;" horiz-adv-x="759" d="M114 267v328h-2l-72 -35l-11 52l94 44h61v-389h-70zM440 37l63 59q63 57 94.5 96.5t31.5 77.5q0 29 -18.5 49t-57.5 20q-26 0 -48 -10t-36 -21l-21 46q20 17 52.5 29t70.5 12q35 0 60 -10t41 -26t23.5 -36t7.5 -40q0 -28 -10 -53t-28 -48.5t-43 -47.5l-52 -49l-30 -28v-2 h170v-55h-270v37zM119 -11l379 672h56l-379 -672h-56z" />
<glyph unicode="&#xbe;" horiz-adv-x="759" d="M608 271q0 18 1 33l2 29h-2l-17 -29l-16 -25l-97 -126l1 -1h128v119zM608 0v103h-200v39l193 253h73v-243h60v-49h-60v-103h-66zM175 -11l380 672h56l-379 -672h-57zM49 629q17 12 47 22t67 10q33 0 56 -8t38 -21t22 -30t7 -35q0 -30 -20.5 -53.5t-55.5 -36.5v-2 q41 -5 67 -32t26 -65q0 -23 -10.5 -44t-30.5 -37t-49.5 -25.5t-67.5 -9.5q-36 0 -67 8.5t-48 19.5l18 49q12 -8 38.5 -16.5t54.5 -8.5q47 0 68 21.5t20 44.5q0 19 -9 32.5t-24 22t-34.5 12.5t-39.5 4h-27v46h28q14 0 30 3.5t29.5 11t22.5 19.5t9 29q0 18 -14.5 33.5 t-49.5 15.5q-27 0 -49.5 -9t-33.5 -17z" />
<glyph unicode="&#xbf;" horiz-adv-x="406" d="M275 286l2 -26q5 -41 -9.5 -84.5t-52.5 -88.5q-34 -41 -52 -72t-18 -65q0 -38 23.5 -62t71.5 -24q27 0 54.5 8.5t47.5 22.5l23 -63q-25 -18 -64 -29.5t-79 -11.5q-43 0 -74.5 12.5t-52 33t-30.5 47t-10 55.5q0 50 25 90.5t61 82.5q33 40 46 75t11 73l-1 26h78zM238 488 q26 0 42 -17.5t16 -45.5q0 -26 -16 -44t-43 -18q-26 0 -42.5 18t-16.5 44q0 28 16.5 45.5t42.5 17.5h1z" />
<glyph unicode="&#xc0;" horiz-adv-x="612" d="M266 827l93 -116h-71l-128 116h106zM406 280l-67 194q-11 33 -18.5 63.5t-15.5 59.5h-3l-15 -60q-8 -31 -18 -62l-66 -195h203zM185 212l-70 -212h-90l229 674h105l230 -674h-93l-72 212h-239z" />
<glyph unicode="&#xc1;" horiz-adv-x="612" d="M454 827l-128 -117h-71l93 117h106zM406 280l-67 194q-11 33 -18.5 63.5t-15.5 59.5h-3l-15 -60q-8 -31 -18 -62l-66 -195h203zM185 212l-70 -212h-90l229 674h105l230 -674h-93l-72 212h-239z" />
<glyph unicode="&#xc2;" horiz-adv-x="612" d="M343 824l105 -114h-74l-63 69h-2l-64 -69h-71l102 114h67zM406 280l-67 194q-11 33 -18.5 63.5t-15.5 59.5h-3l-15 -60q-8 -31 -18 -62l-66 -195h203zM185 212l-70 -212h-90l229 674h105l230 -674h-93l-72 212h-239z" />
<glyph unicode="&#xc3;" horiz-adv-x="612" d="M185 715q-1 46 17.5 74t50.5 28q17 0 30 -6l29 -14q12 -7 24 -12.5t24 -5.5q11 0 18 7.5t9 31.5h46q2 -97 -67 -97q-16 0 -30 5.5t-31 13.5q-14 8 -25 13.5t-22 5.5q-12 0 -18 -12t-8 -32h-47zM406 280l-67 194q-11 33 -18.5 63.5t-15.5 59.5h-3l-15 -60q-8 -31 -18 -62 l-66 -195h203zM185 212l-70 -212h-90l229 674h105l230 -674h-93l-72 212h-239z" />
<glyph unicode="&#xc4;" horiz-adv-x="612" d="M401 719q-21 0 -34.5 15t-13.5 36q0 20 14 35t36 15q21 0 34.5 -14.5t13.5 -35.5t-13 -36t-36 -15h-1zM216 719q-21 0 -34.5 15t-13.5 36q0 20 14 35t35 15t34.5 -14.5t13.5 -35.5t-13 -36t-35 -15h-1zM406 280l-67 194q-11 33 -18.5 63.5t-15.5 59.5h-3l-15 -60 q-8 -31 -18 -62l-66 -195h203zM185 212l-70 -212h-90l229 674h105l230 -674h-93l-72 212h-239z" />
<glyph unicode="&#xc5;" horiz-adv-x="612" d="M305 843q-22 0 -34.5 -16.5t-12.5 -38.5q0 -20 13 -35.5t35 -15.5q23 0 36 15t13 38q0 22 -13 37.5t-36 15.5h-1zM308 879q46 0 72.5 -26.5t26.5 -64.5t-27.5 -63t-72.5 -25t-72.5 25.5t-27.5 62.5q0 38 26.5 64.5t73.5 26.5h1zM406 280l-67 194q-11 33 -18.5 63.5 t-15.5 59.5h-3l-15 -60q-8 -31 -18 -62l-66 -195h203zM185 212l-70 -212h-90l229 674h105l230 -674h-93l-72 212h-239z" />
<glyph unicode="&#xc6;" horiz-adv-x="788" d="M394 308l-22 194q-3 23 -6.5 53t-5.5 56h-4l-20 -52l-23 -54l-87 -197h168zM-1 0l308 674h421v-73h-286l26 -215h251v-72h-240l30 -241h246v-73h-322l-30 237h-206l-108 -237h-90z" />
<glyph unicode="&#xc7;" horiz-adv-x="585" d="M547 22q-23 -12 -67.5 -21.5t-107.5 -10.5l-25 -40q29 -5 49.5 -24.5t20.5 -50.5q0 -22 -9 -37.5t-23 -25t-33 -14t-38 -4.5q-20 0 -38.5 4.5t-32.5 12.5l14 45q23 -14 55 -14q17 0 30 7.5t13 23.5q0 20 -21.5 29.5t-56.5 13.5l42 77q-62 7 -114 32t-89.5 68t-58.5 102.5 t-21 135.5q0 79 25.5 144t72 111.5t111.5 72t144 25.5q63 0 102.5 -10.5t56.5 -18.5l-21 -72q-25 12 -59.5 20t-76.5 8q-59 0 -107.5 -18.5t-83 -54t-53.5 -87.5t-19 -118q0 -62 17.5 -112t50.5 -85t81 -54t110 -19q40 0 78 7.5t65 20.5z" />
<glyph unicode="&#xc8;" horiz-adv-x="492" d="M226 827l93 -116h-71l-128 116h106zM424 316h-261v-243h292v-73h-380v674h365v-73h-277v-213h261v-72z" />
<glyph unicode="&#xc9;" horiz-adv-x="492" d="M409 827l-128 -117h-71l93 117h106zM424 316h-261v-243h292v-73h-380v674h365v-73h-277v-213h261v-72z" />
<glyph unicode="&#xca;" horiz-adv-x="492" d="M290 824l105 -114h-74l-63 69h-2l-64 -69h-71l102 114h67zM424 316h-261v-243h292v-73h-380v674h365v-73h-277v-213h261v-72z" />
<glyph unicode="&#xcb;" horiz-adv-x="492" d="M347 721q-21 0 -34.5 15t-13.5 36q0 20 14 35t36 15q21 0 34.5 -14.5t13.5 -35.5t-13 -36t-36 -15h-1zM162 721q-21 0 -34.5 15t-13.5 36q0 20 14 35t35 15t34.5 -14.5t13.5 -35.5t-13 -36t-35 -15h-1zM424 316h-261v-243h292v-73h-380v674h365v-73h-277v-213h261v-72z " />
<glyph unicode="&#xcc;" horiz-adv-x="239" d="M80 827l93 -116h-71l-128 116h106zM163 674v-674h-88v674h88z" />
<glyph unicode="&#xcd;" horiz-adv-x="239" d="M265 827l-128 -117h-71l93 117h106zM163 674v-674h-88v674h88z" />
<glyph unicode="&#xce;" horiz-adv-x="239" d="M152 824l105 -114h-74l-63 69h-2l-64 -69h-71l102 114h67zM163 674v-674h-88v674h88z" />
<glyph unicode="&#xcf;" horiz-adv-x="239" d="M212 721q-21 0 -34.5 15t-13.5 36q0 20 14 35t36 15q21 0 34.5 -14.5t13.5 -35.5t-13 -36t-36 -15h-1zM27 721q-21 0 -34.5 15t-13.5 36q0 20 14 35t35 15t34.5 -14.5t13.5 -35.5t-13 -36t-35 -15h-1zM163 674v-674h-88v674h88z" />
<glyph unicode="&#xd0;" horiz-adv-x="671" d="M348 307h-180v-240q17 -3 39.5 -3.5t47.5 -0.5q141 0 214 74.5t73 214.5q0 61 -16.5 109t-50.5 82t-85 52t-120 18q-34 0 -59.5 -2.5t-42.5 -6.5v-227h180v-70zM-2 377h82v291q41 6 87.5 10t98.5 4q184 0 272 -83q46 -42 71 -102t25 -144t-25 -150t-72 -113 q-48 -48 -124 -72.5t-174 -24.5q-48 0 -86.5 1.5t-72.5 5.5v307h-82v70z" />
<glyph unicode="&#xd1;" horiz-adv-x="658" d="M210 715q-1 46 17.5 74t50.5 28q17 0 30 -6l29 -14q12 -7 24 -12.5t24 -5.5q11 0 18 7.5t9 31.5h46q2 -97 -67 -97q-16 0 -30 5.5t-31 13.5q-14 8 -25 13.5t-22 5.5q-12 0 -18 -12t-8 -32h-47zM76 0v674h96l215 -341q37 -60 67 -113.5t53 -105.5l3 1q-6 68 -8 133t-2 143 v283h82v-674h-88l-214 342l-68 114q-32 56 -57 111l-3 -1q4 -64 5 -129t1 -149v-288h-82z" />
<glyph unicode="&#xd2;" horiz-adv-x="689" d="M306 830l93 -116h-71l-128 116h106zM344 60q52 0 92 22t67.5 60.5t42 89.5t14.5 108q0 50 -13 99t-40 88t-67.5 63t-94.5 24t-95 -23.5t-68 -62.5t-40.5 -89.5t-13.5 -105.5q0 -53 14.5 -102.5t42 -87.5t67.5 -60.5t91 -22.5h1zM339 -11q-67 0 -123 24.5t-96 69.5 t-62 108t-22 140q0 80 23.5 145.5t65 112t98.5 71.5t125 25q69 0 125.5 -25t96 -70.5t61 -108t21.5 -137.5q0 -87 -24.5 -153t-67 -111t-99.5 -68t-121 -23h-1z" />
<glyph unicode="&#xd3;" horiz-adv-x="689" d="M491 830l-128 -117h-71l93 117h106zM344 60q52 0 92 22t67.5 60.5t42 89.5t14.5 108q0 50 -13 99t-40 88t-67.5 63t-94.5 24t-95 -23.5t-68 -62.5t-40.5 -89.5t-13.5 -105.5q0 -53 14.5 -102.5t42 -87.5t67.5 -60.5t91 -22.5h1zM339 -11q-67 0 -123 24.5t-96 69.5 t-62 108t-22 140q0 80 23.5 145.5t65 112t98.5 71.5t125 25q69 0 125.5 -25t96 -70.5t61 -108t21.5 -137.5q0 -87 -24.5 -153t-67 -111t-99.5 -68t-121 -23h-1z" />
<glyph unicode="&#xd4;" horiz-adv-x="689" d="M377 827l105 -114h-74l-63 69h-2l-64 -69h-71l102 114h67zM344 60q52 0 92 22t67.5 60.5t42 89.5t14.5 108q0 50 -13 99t-40 88t-67.5 63t-94.5 24t-95 -23.5t-68 -62.5t-40.5 -89.5t-13.5 -105.5q0 -53 14.5 -102.5t42 -87.5t67.5 -60.5t91 -22.5h1zM339 -11 q-67 0 -123 24.5t-96 69.5t-62 108t-22 140q0 80 23.5 145.5t65 112t98.5 71.5t125 25q69 0 125.5 -25t96 -70.5t61 -108t21.5 -137.5q0 -87 -24.5 -153t-67 -111t-99.5 -68t-121 -23h-1z" />
<glyph unicode="&#xd5;" horiz-adv-x="689" d="M221 717q-1 46 17.5 74t50.5 28q17 0 30 -6l29 -14q12 -7 24 -12.5t24 -5.5q11 0 18 7.5t9 31.5h46q2 -97 -67 -97q-16 0 -30 5.5t-31 13.5q-14 8 -25 13.5t-22 5.5q-12 0 -18 -12t-8 -32h-47zM344 60q52 0 92 22t67.5 60.5t42 89.5t14.5 108q0 50 -13 99t-40 88 t-67.5 63t-94.5 24t-95 -23.5t-68 -62.5t-40.5 -89.5t-13.5 -105.5q0 -53 14.5 -102.5t42 -87.5t67.5 -60.5t91 -22.5h1zM339 -11q-67 0 -123 24.5t-96 69.5t-62 108t-22 140q0 80 23.5 145.5t65 112t98.5 71.5t125 25q69 0 125.5 -25t96 -70.5t61 -108t21.5 -137.5 q0 -87 -24.5 -153t-67 -111t-99.5 -68t-121 -23h-1z" />
<glyph unicode="&#xd6;" horiz-adv-x="689" d="M437 721q-21 0 -34.5 15t-13.5 36q0 20 14 35t36 15q21 0 34.5 -14.5t13.5 -35.5t-13 -36t-36 -15h-1zM252 721q-21 0 -34.5 15t-13.5 36q0 20 14 35t35 15t34.5 -14.5t13.5 -35.5t-13 -36t-35 -15h-1zM344 60q52 0 92 22t67.5 60.5t42 89.5t14.5 108q0 50 -13 99t-40 88 t-67.5 63t-94.5 24t-95 -23.5t-68 -62.5t-40.5 -89.5t-13.5 -105.5q0 -53 14.5 -102.5t42 -87.5t67.5 -60.5t91 -22.5h1zM339 -11q-67 0 -123 24.5t-96 69.5t-62 108t-22 140q0 80 23.5 145.5t65 112t98.5 71.5t125 25q69 0 125.5 -25t96 -70.5t61 -108t21.5 -137.5 q0 -87 -24.5 -153t-67 -111t-99.5 -68t-121 -23h-1z" />
<glyph unicode="&#xd7;" horiz-adv-x="596" d="M84 527l214 -219l214 219l44 -44l-214 -219l214 -220l-44 -44l-214 219l-214 -219l-44 44l215 220l-215 219z" />
<glyph unicode="&#xd8;" horiz-adv-x="689" d="M218 107q25 -23 54.5 -35.5t71.5 -12.5q52 0 93 22.5t69 61t42.5 89.5t14.5 108q0 43 -10.5 87.5t-36.5 87.5h-3zM472 568q-26 22 -57.5 34.5t-69.5 12.5q-55 0 -96 -23.5t-68.5 -62.5t-41.5 -89t-14 -103q0 -56 13 -99t36 -81l2 1zM63 -4l62 87q-42 46 -65.5 110 t-23.5 140q0 80 23.5 145t65.5 111t99 71t123 25q95 0 168 -53l59 81l53 -36l-62 -86q42 -46 64.5 -109.5t22.5 -138.5q0 -88 -25 -154.5t-67.5 -110.5t-98 -66.5t-116.5 -22.5q-96 0 -170 54l-63 -86z" />
<glyph unicode="&#xd9;" horiz-adv-x="647" d="M290 827l93 -116h-71l-128 116h106zM163 674v-400q0 -56 12 -96.5t33 -66.5t49.5 -38.5t62.5 -12.5q74 0 119 51.5t45 162.5v400h88v-394q0 -78 -19.5 -133t-53.5 -90t-80.5 -51.5t-101.5 -16.5q-52 0 -96 15.5t-76.5 50t-51 89t-18.5 133.5v397h88z" />
<glyph unicode="&#xda;" horiz-adv-x="647" d="M473 827l-128 -117h-71l93 117h106zM163 674v-400q0 -56 12 -96.5t33 -66.5t49.5 -38.5t62.5 -12.5q74 0 119 51.5t45 162.5v400h88v-394q0 -78 -19.5 -133t-53.5 -90t-80.5 -51.5t-101.5 -16.5q-52 0 -96 15.5t-76.5 50t-51 89t-18.5 133.5v397h88z" />
<glyph unicode="&#xdb;" horiz-adv-x="647" d="M362 824l105 -114h-74l-63 69h-2l-64 -69h-71l102 114h67zM163 674v-400q0 -56 12 -96.5t33 -66.5t49.5 -38.5t62.5 -12.5q74 0 119 51.5t45 162.5v400h88v-394q0 -78 -19.5 -133t-53.5 -90t-80.5 -51.5t-101.5 -16.5q-52 0 -96 15.5t-76.5 50t-51 89t-18.5 133.5v397h88 z" />
<glyph unicode="&#xdc;" horiz-adv-x="647" d="M418 721q-21 0 -34.5 15t-13.5 36q0 20 14 35t36 15q21 0 34.5 -14.5t13.5 -35.5t-13 -36t-36 -15h-1zM233 721q-21 0 -34.5 15t-13.5 36q0 20 14 35t35 15t34.5 -14.5t13.5 -35.5t-13 -36t-35 -15h-1zM163 674v-400q0 -56 12 -96.5t33 -66.5t49.5 -38.5t62.5 -12.5 q74 0 119 51.5t45 162.5v400h88v-394q0 -78 -19.5 -133t-53.5 -90t-80.5 -51.5t-101.5 -16.5q-52 0 -96 15.5t-76.5 50t-51 89t-18.5 133.5v397h88z" />
<glyph unicode="&#xdd;" horiz-adv-x="541" d="M427 822l-128 -117h-71l93 117h106zM226 0v286l-214 388h100l95 -186l35 -71l32 -68h2q14 33 31 67l37 72l97 186h98l-225 -387v-287h-88z" />
<glyph unicode="&#xde;" horiz-adv-x="531" d="M162 227q17 -4 36 -5t39 -1q81 0 124 36t43 98q0 65 -43 95.5t-111 30.5q-30 0 -53 -2.5t-35 -5.5v-246zM76 674h86v-131q20 4 44.5 5.5t51.5 1.5q117 0 178 -55q26 -24 40.5 -58t14.5 -72q0 -54 -19 -94t-53 -66.5t-80 -40t-101 -13.5q-21 0 -40.5 1.5t-35.5 3.5v-156 h-86v674z" />
<glyph unicode="&#xdf;" horiz-adv-x="548" d="M73 0v452q0 86 19 137t53 81q55 51 145 51q36 0 68.5 -11t57 -32.5t39 -53t14.5 -72.5q0 -26 -7.5 -47.5t-15.5 -34.5q-34 -14 -53 -34.5t-19 -46.5t14 -44.5t37 -42.5q15 -15 29.5 -31t26 -34t18.5 -40t7 -49q0 -71 -47.5 -115t-131.5 -44q-29 0 -56.5 5t-49.5 16l16 67 q40 -20 84 -20q48 0 73 24.5t25 59.5q0 32 -14 55t-40 48q-32 30 -55 61t-23 72q0 80 89 123q9 18 9 43q0 52 -29 80.5t-75 28.5q-58 0 -89 -45t-31 -151v-456h-88z" />
<glyph unicode="&#xe0;" horiz-adv-x="482" d="M328 247q-36 1 -72.5 -3t-66 -15.5t-48 -33.5t-18.5 -57q0 -44 24.5 -64t57.5 -20q48 0 78 25t41 56q4 12 4 28v84zM414 116q0 -32 1.5 -61.5t5.5 -54.5h-79l-8 61h-3q-20 -29 -58 -50.5t-90 -21.5q-37 0 -64.5 12t-46 31.5t-28 44.5t-9.5 51q0 88 75 134.5t216 45.5v10 q0 15 -3.5 34.5t-14.5 37t-33 29t-59 11.5q-35 0 -68 -9.5t-59 -26.5l-20 59q30 19 72 30.5t88 11.5q56 0 92 -17.5t56.5 -45.5t28.5 -63.5t8 -71.5v-181zM191 693l88 -143h-62l-122 143h96z" />
<glyph unicode="&#xe1;" horiz-adv-x="482" d="M371 693l-122 -143h-62l88 143h96zM328 247q-36 1 -72.5 -3t-66 -15.5t-48 -33.5t-18.5 -57q0 -44 24.5 -64t57.5 -20q48 0 78 25t41 56q4 12 4 28v84zM414 116q0 -32 1.5 -61.5t5.5 -54.5h-79l-8 61h-3q-20 -29 -58 -50.5t-90 -21.5q-37 0 -64.5 12t-46 31.5t-28 44.5 t-9.5 51q0 88 75 134.5t216 45.5v10q0 15 -3.5 34.5t-14.5 37t-33 29t-59 11.5q-35 0 -68 -9.5t-59 -26.5l-20 59q30 19 72 30.5t88 11.5q56 0 92 -17.5t56.5 -45.5t28.5 -63.5t8 -71.5v-181z" />
<glyph unicode="&#xe2;" horiz-adv-x="482" d="M267 693l96 -143h-67l-58 94h-2l-58 -94h-66l94 143h61zM328 247q-36 1 -72.5 -3t-66 -15.5t-48 -33.5t-18.5 -57q0 -44 24.5 -64t57.5 -20q48 0 78 25t41 56q4 12 4 28v84zM414 116q0 -32 1.5 -61.5t5.5 -54.5h-79l-8 61h-3q-20 -29 -58 -50.5t-90 -21.5q-37 0 -64.5 12 t-46 31.5t-28 44.5t-9.5 51q0 88 75 134.5t216 45.5v10q0 15 -3.5 34.5t-14.5 37t-33 29t-59 11.5q-35 0 -68 -9.5t-59 -26.5l-20 59q30 19 72 30.5t88 11.5q56 0 92 -17.5t56.5 -45.5t28.5 -63.5t8 -71.5v-181z" />
<glyph unicode="&#xe3;" horiz-adv-x="482" d="M115 567q-2 49 17 76.5t51 27.5q17 0 31 -6.5t31 -15.5q12 -7 22.5 -12t20.5 -5q11 0 18 8.5t9 33.5h47q2 -101 -68 -101q-17 0 -31.5 6.5t-30.5 14.5q-15 9 -24.5 13.5t-18.5 4.5q-12 0 -18 -12t-8 -33h-48zM328 247q-36 1 -72.5 -3t-66 -15.5t-48 -33.5t-18.5 -57 q0 -44 24.5 -64t57.5 -20q48 0 78 25t41 56q4 12 4 28v84zM414 116q0 -32 1.5 -61.5t5.5 -54.5h-79l-8 61h-3q-20 -29 -58 -50.5t-90 -21.5q-37 0 -64.5 12t-46 31.5t-28 44.5t-9.5 51q0 88 75 134.5t216 45.5v10q0 15 -3.5 34.5t-14.5 37t-33 29t-59 11.5q-35 0 -68 -9.5 t-59 -26.5l-20 59q30 19 72 30.5t88 11.5q56 0 92 -17.5t56.5 -45.5t28.5 -63.5t8 -71.5v-181z" />
<glyph unicode="&#xe4;" horiz-adv-x="482" d="M333 570q-22 0 -35.5 15.5t-13.5 35.5q0 21 14.5 36t35.5 15t35 -14.5t14 -36.5q0 -20 -13.5 -35.5t-35.5 -15.5h-1zM147 570q-21 0 -35 15.5t-14 35.5q0 21 14.5 36t36.5 15q20 0 34 -14.5t14 -36.5q0 -20 -13.5 -35.5t-35.5 -15.5h-1zM328 247q-36 1 -72.5 -3 t-66 -15.5t-48 -33.5t-18.5 -57q0 -44 24.5 -64t57.5 -20q48 0 78 25t41 56q4 12 4 28v84zM414 116q0 -32 1.5 -61.5t5.5 -54.5h-79l-8 61h-3q-20 -29 -58 -50.5t-90 -21.5q-37 0 -64.5 12t-46 31.5t-28 44.5t-9.5 51q0 88 75 134.5t216 45.5v10q0 15 -3.5 34.5t-14.5 37 t-33 29t-59 11.5q-35 0 -68 -9.5t-59 -26.5l-20 59q30 19 72 30.5t88 11.5q56 0 92 -17.5t56.5 -45.5t28.5 -63.5t8 -71.5v-181z" />
<glyph unicode="&#xe5;" horiz-adv-x="482" d="M238 685q-23 0 -36 -16.5t-13 -39.5q0 -20 13.5 -37t36.5 -17q24 0 38 16t14 39t-14 39t-38 16h-1zM241 723q45 0 72 -27t27 -67q0 -39 -28.5 -65.5t-71.5 -26.5q-45 0 -73.5 27t-28.5 65q0 39 27.5 66.5t74.5 27.5h1zM328 247q-36 1 -72.5 -3t-66 -15.5t-48 -33.5 t-18.5 -57q0 -44 24.5 -64t57.5 -20q48 0 78 25t41 56q4 12 4 28v84zM414 116q0 -32 1.5 -61.5t5.5 -54.5h-79l-8 61h-3q-20 -29 -58 -50.5t-90 -21.5q-37 0 -64.5 12t-46 31.5t-28 44.5t-9.5 51q0 88 75 134.5t216 45.5v10q0 15 -3.5 34.5t-14.5 37t-33 29t-59 11.5 q-35 0 -68 -9.5t-59 -26.5l-20 59q30 19 72 30.5t88 11.5q56 0 92 -17.5t56.5 -45.5t28.5 -63.5t8 -71.5v-181z" />
<glyph unicode="&#xe6;" horiz-adv-x="773" d="M653 296q1 18 -4.5 42t-18.5 45t-35.5 35.5t-55.5 14.5t-57 -13.5t-40 -34t-24 -44.5t-9 -45h244zM329 243q-35 1 -71.5 -2.5t-66.5 -15.5t-49 -33.5t-19 -57.5q0 -38 24.5 -59t59.5 -21q48 -1 77 24t40 59q5 18 5 35v71zM409 233q-1 -43 10 -76t32 -55t50 -33.5 t63 -11.5q51 0 81.5 9t50.5 18l16 -62q-29 -15 -70 -24t-89 -9q-63 0 -113 27.5t-71 79.5h-3q-23 -51 -69.5 -79t-109.5 -28q-38 0 -66.5 11.5t-47 31t-28 44t-9.5 51.5q0 85 75 131t216 44v20q0 9 -3.5 27t-15.5 36t-34 31.5t-59 13.5q-35 0 -68.5 -10.5t-55.5 -25.5 l-21 58q32 20 73.5 31.5t77.5 11.5q66 0 103.5 -27.5t52.5 -74.5h2q24 48 67.5 75t101.5 27q55 0 91.5 -23.5t58.5 -58t30.5 -73t8.5 -68.5q0 -11 -0.5 -21.5t-2.5 -17.5h-325z" />
<glyph unicode="&#xe7;" horiz-adv-x="447" d="M418 18q-15 -8 -48 -17.5t-78 -10.5l-25 -40q28 -5 49 -23.5t21 -49.5q0 -23 -8.5 -38.5t-23 -25.5t-33.5 -14.5t-39 -4.5q-17 0 -36.5 4.5t-33.5 12.5l15 45q23 -14 55 -14q17 0 30 7t13 25q-1 20 -22 29t-56 13l42 77q-46 6 -83.5 26t-63.5 51.5t-40.5 74t-14.5 92.5 q0 56 18.5 103t52.5 81.5t82 54t107 19.5q39 0 71.5 -8t50.5 -18l-20 -67q-16 8 -41 15.5t-61 7.5q-42 0 -73.5 -14.5t-53.5 -39.5t-33 -58.5t-11 -71.5q0 -42 12.5 -75.5t35 -57t53.5 -36t67 -12.5q38 0 64 7.5t44 15.5z" />
<glyph unicode="&#xe8;" horiz-adv-x="501" d="M380 289q0 21 -5 46t-18.5 46.5t-37 36t-60.5 14.5q-34 0 -58 -14t-40.5 -35t-25 -46t-11.5 -48h256zM123 226q1 -44 14.5 -76t36 -52t52 -29.5t62.5 -9.5q48 0 79 7t55 18l16 -63q-23 -11 -63.5 -21t-98.5 -10q-56 0 -100 17.5t-74.5 50t-47 77.5t-16.5 99 q0 55 16 102.5t45.5 82.5t71.5 55.5t95 20.5q59 0 97.5 -23t61 -57.5t31.5 -74.5t9 -73q0 -26 -3 -41h-339zM232 693l88 -143h-62l-122 143h96z" />
<glyph unicode="&#xe9;" horiz-adv-x="501" d="M400 693l-122 -143h-62l88 143h96zM380 289q0 21 -5 46t-18.5 46.5t-37 36t-60.5 14.5q-34 0 -58 -14t-40.5 -35t-25 -46t-11.5 -48h256zM123 226q1 -44 14.5 -76t36 -52t52 -29.5t62.5 -9.5q48 0 79 7t55 18l16 -63q-23 -11 -63.5 -21t-98.5 -10q-56 0 -100 17.5 t-74.5 50t-47 77.5t-16.5 99q0 55 16 102.5t45.5 82.5t71.5 55.5t95 20.5q59 0 97.5 -23t61 -57.5t31.5 -74.5t9 -73q0 -26 -3 -41h-339z" />
<glyph unicode="&#xea;" horiz-adv-x="501" d="M294 693l96 -143h-67l-58 94h-2l-58 -94h-66l94 143h61zM380 289q0 21 -5 46t-18.5 46.5t-37 36t-60.5 14.5q-34 0 -58 -14t-40.5 -35t-25 -46t-11.5 -48h256zM123 226q1 -44 14.5 -76t36 -52t52 -29.5t62.5 -9.5q48 0 79 7t55 18l16 -63q-23 -11 -63.5 -21t-98.5 -10 q-56 0 -100 17.5t-74.5 50t-47 77.5t-16.5 99q0 55 16 102.5t45.5 82.5t71.5 55.5t95 20.5q59 0 97.5 -23t61 -57.5t31.5 -74.5t9 -73q0 -26 -3 -41h-339z" />
<glyph unicode="&#xeb;" horiz-adv-x="501" d="M361 570q-22 0 -35.5 15.5t-13.5 35.5q0 21 14.5 36t35.5 15t35 -14.5t14 -36.5q0 -20 -13.5 -35.5t-35.5 -15.5h-1zM175 570q-21 0 -35 15.5t-14 35.5q0 21 14.5 36t36.5 15q20 0 34 -14.5t14 -36.5q0 -20 -13.5 -35.5t-35.5 -15.5h-1zM380 289q0 21 -5 46t-18.5 46.5 t-37 36t-60.5 14.5q-34 0 -58 -14t-40.5 -35t-25 -46t-11.5 -48h256zM123 226q1 -44 14.5 -76t36 -52t52 -29.5t62.5 -9.5q48 0 79 7t55 18l16 -63q-23 -11 -63.5 -21t-98.5 -10q-56 0 -100 17.5t-74.5 50t-47 77.5t-16.5 99q0 55 16 102.5t45.5 82.5t71.5 55.5t95 20.5 q59 0 97.5 -23t61 -57.5t31.5 -74.5t9 -73q0 -26 -3 -41h-339z" />
<glyph unicode="&#xec;" horiz-adv-x="234" d="M73 0v484h88v-484h-88zM68 693l88 -143h-62l-122 143h96z" />
<glyph unicode="&#xed;" horiz-adv-x="234" d="M73 0v484h88v-484h-88zM251 693l-122 -143h-62l88 143h96z" />
<glyph unicode="&#xee;" horiz-adv-x="234" d="M147 693l96 -143h-67l-58 94h-2l-58 -94h-66l94 143h61zM73 0v484h88v-484h-88z" />
<glyph unicode="&#xef;" horiz-adv-x="234" d="M73 0v484h88v-484h-88zM209 570q-22 0 -35.5 15.5t-13.5 35.5q0 21 14.5 36t35.5 15t35 -14.5t14 -36.5q0 -20 -13.5 -35.5t-35.5 -15.5h-1zM23 570q-21 0 -35 15.5t-14 35.5q0 21 14.5 36t36.5 15q20 0 34 -14.5t14 -36.5q0 -20 -13.5 -35.5t-35.5 -15.5h-1z" />
<glyph unicode="&#xf0;" horiz-adv-x="541" d="M97 550l116 55q-22 17 -49 31l-55 29l39 55q35 -17 71.5 -37.5t68.5 -43.5l127 61l22 -44l-106 -50q42 -34 73.5 -74t53.5 -85q21 -42 32 -90t11 -105q0 -69 -20.5 -119t-53.5 -82t-75 -47t-85 -15q-49 0 -91 17.5t-72.5 49.5t-48 77.5t-17.5 102.5q0 58 19 104t50 78 t71 49t83 17q29 0 56.5 -8.5t56.5 -34.5l2 3q-22 35 -51 67.5t-67 61.5l-142 -66zM268 55q33 0 59 14t45 39t29 59.5t10 75.5q0 48 -7.5 79.5t-26.5 54.5q-17 19 -42.5 33t-63.5 14q-39 0 -66 -18t-44.5 -45.5t-25 -60.5t-7.5 -63q0 -38 10.5 -71.5t29 -58t44 -38.5 t55.5 -14h1z" />
<glyph unicode="&#xf1;" horiz-adv-x="555" d="M155 567q-2 49 17 76.5t51 27.5q17 0 31 -6.5t31 -15.5q12 -7 22.5 -12t20.5 -5q11 0 18 8.5t9 33.5h47q2 -101 -68 -101q-17 0 -31.5 6.5t-30.5 14.5q-15 9 -24.5 13.5t-18.5 4.5q-12 0 -18 -12t-8 -33h-48zM73 353q0 38 -1 69.5t-3 61.5h78l5 -79h2q9 17 24 33t35 29 t45.5 20.5t55.5 7.5q25 0 55 -9t55.5 -32t43 -63t17.5 -102v-289h-88v279q0 29 -6 55.5t-19 46t-34.5 31t-52.5 11.5q-43 0 -74.5 -26.5t-43.5 -63.5q-3 -8 -4.5 -19t-1.5 -22v-292h-88v353z" />
<glyph unicode="&#xf2;" horiz-adv-x="549" d="M274 55q31 0 58 14t47 39t31 60t11 76q0 31 -8 63.5t-25.5 59.5t-45 44.5t-66.5 17.5t-67 -16.5t-46 -43t-26.5 -60.5t-8.5 -68q0 -40 10.5 -74t30 -59t46 -39t58.5 -14h1zM270 -11q-49 0 -91 17.5t-73.5 49.5t-49.5 78.5t-18 103.5q0 61 19 108.5t51.5 80.5t76 50.5 t93.5 17.5q52 0 95 -18t73.5 -51t47.5 -78.5t17 -100.5q0 -68 -21.5 -116.5t-55.5 -80t-77 -46.5t-86 -15h-1zM242 693l88 -143h-62l-122 143h96z" />
<glyph unicode="&#xf3;" horiz-adv-x="549" d="M406 693l-122 -143h-62l88 143h96zM274 55q31 0 58 14t47 39t31 60t11 76q0 31 -8 63.5t-25.5 59.5t-45 44.5t-66.5 17.5t-67 -16.5t-46 -43t-26.5 -60.5t-8.5 -68q0 -40 10.5 -74t30 -59t46 -39t58.5 -14h1zM270 -11q-49 0 -91 17.5t-73.5 49.5t-49.5 78.5t-18 103.5 q0 61 19 108.5t51.5 80.5t76 50.5t93.5 17.5q52 0 95 -18t73.5 -51t47.5 -78.5t17 -100.5q0 -68 -21.5 -116.5t-55.5 -80t-77 -46.5t-86 -15h-1z" />
<glyph unicode="&#xf4;" horiz-adv-x="549" d="M305 693l96 -143h-67l-58 94h-2l-58 -94h-66l94 143h61zM274 55q31 0 58 14t47 39t31 60t11 76q0 31 -8 63.5t-25.5 59.5t-45 44.5t-66.5 17.5t-67 -16.5t-46 -43t-26.5 -60.5t-8.5 -68q0 -40 10.5 -74t30 -59t46 -39t58.5 -14h1zM270 -11q-49 0 -91 17.5t-73.5 49.5 t-49.5 78.5t-18 103.5q0 61 19 108.5t51.5 80.5t76 50.5t93.5 17.5q52 0 95 -18t73.5 -51t47.5 -78.5t17 -100.5q0 -68 -21.5 -116.5t-55.5 -80t-77 -46.5t-86 -15h-1z" />
<glyph unicode="&#xf5;" horiz-adv-x="549" d="M152 567q-2 49 17 76.5t51 27.5q17 0 31 -6.5t31 -15.5q12 -7 22.5 -12t20.5 -5q11 0 18 8.5t9 33.5h47q2 -101 -68 -101q-17 0 -31.5 6.5t-30.5 14.5q-15 9 -24.5 13.5t-18.5 4.5q-12 0 -18 -12t-8 -33h-48zM274 55q31 0 58 14t47 39t31 60t11 76q0 31 -8 63.5 t-25.5 59.5t-45 44.5t-66.5 17.5t-67 -16.5t-46 -43t-26.5 -60.5t-8.5 -68q0 -40 10.5 -74t30 -59t46 -39t58.5 -14h1zM270 -11q-49 0 -91 17.5t-73.5 49.5t-49.5 78.5t-18 103.5q0 61 19 108.5t51.5 80.5t76 50.5t93.5 17.5q52 0 95 -18t73.5 -51t47.5 -78.5t17 -100.5 q0 -68 -21.5 -116.5t-55.5 -80t-77 -46.5t-86 -15h-1z" />
<glyph unicode="&#xf6;" horiz-adv-x="549" d="M367 570q-22 0 -35.5 15.5t-13.5 35.5q0 21 14.5 36t35.5 15t35 -14.5t14 -36.5q0 -20 -13.5 -35.5t-35.5 -15.5h-1zM181 570q-21 0 -35 15.5t-14 35.5q0 21 14.5 36t36.5 15q20 0 34 -14.5t14 -36.5q0 -20 -13.5 -35.5t-35.5 -15.5h-1zM274 55q31 0 58 14t47 39t31 60 t11 76q0 31 -8 63.5t-25.5 59.5t-45 44.5t-66.5 17.5t-67 -16.5t-46 -43t-26.5 -60.5t-8.5 -68q0 -40 10.5 -74t30 -59t46 -39t58.5 -14h1zM270 -11q-49 0 -91 17.5t-73.5 49.5t-49.5 78.5t-18 103.5q0 61 19 108.5t51.5 80.5t76 50.5t93.5 17.5q52 0 95 -18t73.5 -51 t47.5 -78.5t17 -100.5q0 -68 -21.5 -116.5t-55.5 -80t-77 -46.5t-86 -15h-1z" />
<glyph unicode="&#xf7;" horiz-adv-x="596" d="M556 297v-60h-516v60h516zM297 36q-23 0 -37.5 16t-14.5 39q0 25 15 40.5t38 15.5q24 0 38.5 -15.5t14.5 -40.5q0 -23 -14.5 -39t-38.5 -16h-1zM297 387q-23 0 -37.5 16t-14.5 39q0 25 15 40.5t38 15.5q24 0 38.5 -15.5t14.5 -40.5q0 -23 -14.5 -39t-38.5 -16h-1z" />
<glyph unicode="&#xf8;" horiz-adv-x="549" d="M191 83q18 -15 38 -21.5t43 -6.5q34 0 62.5 14t48.5 39t31 59.5t11 75.5q0 25 -7 57t-27 61l-2 1zM359 400q-34 29 -85 29q-40 0 -68.5 -17t-46.5 -44t-26.5 -60.5t-8.5 -66.5q0 -32 8 -63.5t27 -57.5l2 -1zM277 495q32 0 63.5 -8.5t58.5 -25.5l42 60l39 -27l-43 -62 q35 -35 54.5 -82t19.5 -104q0 -67 -21 -115.5t-54.5 -80t-76 -46.5t-84.5 -15q-34 0 -65.5 8.5t-57.5 25.5l-44 -61l-37 30l42 60q-35 32 -55 79.5t-20 107.5t18.5 107.5t51 80.5t75.5 50.5t93 17.5h1z" />
<glyph unicode="&#xf9;" horiz-adv-x="551" d="M478 133q0 -38 1 -71t3 -62h-78l-5 79h-2q-8 -15 -22 -30.5t-34 -29t-46 -22t-58 -8.5q-29 0 -58.5 9.5t-53.5 33.5t-39.5 65t-15.5 104v283h88v-267q0 -69 24.5 -112t83.5 -43q45 0 74.5 25.5t41.5 55.5q8 19 8 45v296h88v-351zM237 693l88 -143h-62l-122 143h96z" />
<glyph unicode="&#xfa;" horiz-adv-x="551" d="M418 693l-122 -143h-62l88 143h96zM478 133q0 -38 1 -71t3 -62h-78l-5 79h-2q-8 -15 -22 -30.5t-34 -29t-46 -22t-58 -8.5q-29 0 -58.5 9.5t-53.5 33.5t-39.5 65t-15.5 104v283h88v-267q0 -69 24.5 -112t83.5 -43q45 0 74.5 25.5t41.5 55.5q8 19 8 45v296h88v-351z" />
<glyph unicode="&#xfb;" horiz-adv-x="551" d="M306 693l96 -143h-67l-58 94h-2l-58 -94h-66l94 143h61zM478 133q0 -38 1 -71t3 -62h-78l-5 79h-2q-8 -15 -22 -30.5t-34 -29t-46 -22t-58 -8.5q-29 0 -58.5 9.5t-53.5 33.5t-39.5 65t-15.5 104v283h88v-267q0 -69 24.5 -112t83.5 -43q45 0 74.5 25.5t41.5 55.5 q8 19 8 45v296h88v-351z" />
<glyph unicode="&#xfc;" horiz-adv-x="551" d="M371 570q-22 0 -35.5 15.5t-13.5 35.5q0 21 14.5 36t35.5 15t35 -14.5t14 -36.5q0 -20 -13.5 -35.5t-35.5 -15.5h-1zM185 570q-21 0 -35 15.5t-14 35.5q0 21 14.5 36t36.5 15q20 0 34 -14.5t14 -36.5q0 -20 -13.5 -35.5t-35.5 -15.5h-1zM478 133q0 -38 1 -71t3 -62h-78 l-5 79h-2q-8 -15 -22 -30.5t-34 -29t-46 -22t-58 -8.5q-29 0 -58.5 9.5t-53.5 33.5t-39.5 65t-15.5 104v283h88v-267q0 -69 24.5 -112t83.5 -43q45 0 74.5 25.5t41.5 55.5q8 19 8 45v296h88v-351z" />
<glyph unicode="&#xfd;" horiz-adv-x="471" d="M381 693l-122 -143h-62l88 143h96zM105 484l105 -286q9 -24 17.5 -50.5t14.5 -48.5h2q7 22 14.5 48.5t16.5 52.5l96 284h93l-132 -345q-24 -62 -44.5 -110t-40 -84t-39.5 -62.5t-42 -46.5q-33 -28 -62 -40.5t-46 -15.5l-22 73q17 5 37 15.5t40 27.5q18 14 38 39t36 59 q7 16 7 21q0 8 -7 23l-178 446h96z" />
<glyph unicode="&#xfe;" horiz-adv-x="569" d="M161 191q0 -11 2 -22.5t7 -21.5q15 -42 49.5 -65.5t79.5 -23.5q65 0 104.5 50.5t39.5 138.5q0 36 -9.5 68.5t-27.5 56.5t-44.5 38.5t-60.5 14.5q-43 0 -79 -25t-52 -70q-3 -11 -6 -24.5t-3 -24.5v-90zM161 670v-262h2q24 39 64 63t100 24q43 0 80 -17t65 -49.5t44 -78 t16 -102.5q0 -66 -19 -115t-50 -81t-70.5 -47.5t-80.5 -15.5q-48 0 -87 20t-62 56h-2v-263h-88v868h88z" />
<glyph unicode="&#xff;" horiz-adv-x="471" d="M340 570q-22 0 -35.5 15.5t-13.5 35.5q0 21 14.5 36t35.5 15t35 -14.5t14 -36.5q0 -20 -13.5 -35.5t-35.5 -15.5h-1zM154 570q-21 0 -35 15.5t-14 35.5q0 21 14.5 36t36.5 15q20 0 34 -14.5t14 -36.5q0 -20 -13.5 -35.5t-35.5 -15.5h-1zM105 484l105 -286 q9 -24 17.5 -50.5t14.5 -48.5h2q7 22 14.5 48.5t16.5 52.5l96 284h93l-132 -345q-24 -62 -44.5 -110t-40 -84t-39.5 -62.5t-42 -46.5q-33 -28 -62 -40.5t-46 -15.5l-22 73q17 5 37 15.5t40 27.5q18 14 38 39t36 59q7 16 7 21q0 8 -7 23l-178 446h96z" />
<glyph unicode="&#x100;" horiz-adv-x="612" d="M425 788v-55h-240v55h240zM406 280l-67 194q-11 33 -18.5 63.5t-15.5 59.5h-3l-15 -60q-8 -31 -18 -62l-66 -195h203zM185 212l-70 -212h-90l229 674h105l230 -674h-93l-72 212h-239z" />
<glyph unicode="&#x101;" horiz-adv-x="482" d="M354 643v-57h-225v57h225zM328 247q-36 1 -72.5 -3t-66 -15.5t-48 -33.5t-18.5 -57q0 -44 24.5 -64t57.5 -20q48 0 78 25t41 56q4 12 4 28v84zM414 116q0 -32 1.5 -61.5t5.5 -54.5h-79l-8 61h-3q-20 -29 -58 -50.5t-90 -21.5q-37 0 -64.5 12t-46 31.5t-28 44.5t-9.5 51 q0 88 75 134.5t216 45.5v10q0 15 -3.5 34.5t-14.5 37t-33 29t-59 11.5q-35 0 -68 -9.5t-59 -26.5l-20 59q30 19 72 30.5t88 11.5q56 0 92 -17.5t56.5 -45.5t28.5 -63.5t8 -71.5v-181z" />
<glyph unicode="&#x102;" horiz-adv-x="612" d="M233 817q4 -17 19.5 -33t52.5 -16q36 0 52 14.5t21 34.5h50q0 -22 -7.5 -41.5t-22.5 -33.5t-38.5 -22.5t-55.5 -8.5q-64 0 -92.5 30.5t-30.5 75.5h52zM406 280l-67 194q-11 33 -18.5 63.5t-15.5 59.5h-3l-15 -60q-8 -31 -18 -62l-66 -195h203zM185 212l-70 -212h-90 l229 674h105l230 -674h-93l-72 212h-239z" />
<glyph unicode="&#x103;" horiz-adv-x="482" d="M169 682q5 -29 23 -49t49 -20q36 0 53 21.5t19 47.5h52q0 -57 -33.5 -91t-90.5 -34q-33 0 -56.5 10.5t-38.5 28t-22 40t-7 46.5h52zM328 247q-36 1 -72.5 -3t-66 -15.5t-48 -33.5t-18.5 -57q0 -44 24.5 -64t57.5 -20q48 0 78 25t41 56q4 12 4 28v84zM414 116 q0 -32 1.5 -61.5t5.5 -54.5h-79l-8 61h-3q-20 -29 -58 -50.5t-90 -21.5q-37 0 -64.5 12t-46 31.5t-28 44.5t-9.5 51q0 88 75 134.5t216 45.5v10q0 15 -3.5 34.5t-14.5 37t-33 29t-59 11.5q-35 0 -68 -9.5t-59 -26.5l-20 59q30 19 72 30.5t88 11.5q56 0 92 -17.5t56.5 -45.5 t28.5 -63.5t8 -71.5v-181z" />
<glyph unicode="&#x104;" horiz-adv-x="612" d="M407 280l-67 194q-11 33 -19 64l-16 59h-2q-8 -29 -15.5 -60t-18.5 -62l-66 -195h204zM590 0l-37 -2q-6 -6 -15 -16t-17.5 -23t-14.5 -27t-6 -27q0 -24 14.5 -37.5t36.5 -13.5q13 0 24.5 2.5t20.5 6.5l14 -44q-16 -12 -39 -18t-41 -6q-42 0 -68 22t-26 65q0 18 6 35.5 t15 33.5t19 29.5t19 23.5l-71 208h-239l-69 -212h-91l230 674h104z" />
<glyph unicode="&#x105;" horiz-adv-x="482" d="M328 247q-36 1 -72.5 -3t-66 -15.5t-48 -33.5t-18.5 -57q0 -44 24.5 -64t57.5 -20q48 0 78 25t41 56q4 12 4 28v84zM414 116q0 -34 1.5 -63t5.5 -53h-25q-6 -8 -12.5 -19t-12.5 -23.5t-10 -26.5t-4 -27q0 -26 13.5 -38t34.5 -12q14 0 25 2.5t21 7.5l14 -46 q-18 -13 -40.5 -18.5t-42.5 -5.5q-38 0 -63.5 21.5t-25.5 63.5q0 19 5 36.5t12 33.5t16 29l15 25l-7 58h-3q-20 -29 -58 -50.5t-90 -21.5q-37 0 -64.5 12t-46 31.5t-28 44.5t-9.5 51q0 88 75 134.5t216 45.5v10q0 15 -3.5 34.5t-14.5 37t-33 29t-59 11.5q-35 0 -68 -9.5 t-59 -26.5l-20 59q30 19 72 30.5t88 11.5q56 0 92 -17.5t56.5 -45.5t28.5 -63.5t8 -71.5v-181z" />
<glyph unicode="&#x106;" horiz-adv-x="580" d="M506 829l-128 -117h-71l93 117h106zM546 22q-23 -12 -69.5 -22t-108.5 -10q-71 0 -132 22t-105.5 65.5t-69.5 107t-25 146.5q0 79 25.5 144t72 111.5t111.5 72t143 25.5q63 0 103 -10.5t57 -18.5l-22 -72q-24 12 -58.5 20t-76.5 8q-59 0 -107.5 -18.5t-83 -54t-53.5 -87 t-19 -117.5q0 -62 17.5 -112t50.5 -85t81 -54t109 -19q41 0 79 7.5t64 20.5z" />
<glyph unicode="&#x107;" horiz-adv-x="448" d="M398 693l-122 -143h-62l88 143h96zM418 18q-17 -8 -53.5 -18t-85.5 -10q-55 0 -99.5 18t-76 50t-48.5 77.5t-17 101.5t18.5 103t52.5 81.5t82 54t107 19.5q39 0 71.5 -8t50.5 -18l-20 -67q-16 8 -41 15.5t-61 7.5q-42 0 -73.5 -14.5t-53.5 -39.5t-33 -58.5t-11 -70.5 q0 -42 12.5 -75.5t35 -57t53.5 -36t67 -12.5q38 0 63.5 7.5t44.5 15.5z" />
<glyph unicode="&#x108;" horiz-adv-x="580" d="M381 828l105 -114h-74l-63 69h-2l-64 -69h-71l102 114h67zM546 22q-23 -12 -69.5 -22t-108.5 -10q-71 0 -132 22t-105.5 65.5t-69.5 107t-25 146.5q0 79 25.5 144t72 111.5t111.5 72t143 25.5q63 0 103 -10.5t57 -18.5l-22 -72q-24 12 -58.5 20t-76.5 8 q-59 0 -107.5 -18.5t-83 -54t-53.5 -87t-19 -117.5q0 -62 17.5 -112t50.5 -85t81 -54t109 -19q41 0 79 7.5t64 20.5z" />
<glyph unicode="&#x109;" horiz-adv-x="448" d="M290 693l96 -143h-67l-58 94h-2l-58 -94h-66l94 143h61zM418 18q-17 -8 -53.5 -18t-85.5 -10q-55 0 -99.5 18t-76 50t-48.5 77.5t-17 101.5t18.5 103t52.5 81.5t82 54t107 19.5q39 0 71.5 -8t50.5 -18l-20 -67q-16 8 -41 15.5t-61 7.5q-42 0 -73.5 -14.5t-53.5 -39.5 t-33 -58.5t-11 -70.5q0 -42 12.5 -75.5t35 -57t53.5 -36t67 -12.5q38 0 63.5 7.5t44.5 15.5z" />
<glyph unicode="&#x10a;" horiz-adv-x="580" d="M347 719q-21 0 -35 15.5t-14 35.5t14.5 35t35.5 15q20 0 34 -15t14 -35t-14 -35.5t-34 -15.5h-1zM546 22q-23 -12 -69.5 -22t-108.5 -10q-71 0 -132 22t-105.5 65.5t-69.5 107t-25 146.5q0 79 25.5 144t72 111.5t111.5 72t143 25.5q63 0 103 -10.5t57 -18.5l-22 -72 q-24 12 -58.5 20t-76.5 8q-59 0 -107.5 -18.5t-83 -54t-53.5 -87t-19 -117.5q0 -62 17.5 -112t50.5 -85t81 -54t109 -19q41 0 79 7.5t64 20.5z" />
<glyph unicode="&#x10b;" horiz-adv-x="448" d="M264 570q-22 0 -36 15.5t-14 36.5t15 36t36 15t35 -15t14 -36t-13.5 -36.5t-35.5 -15.5h-1zM418 18q-17 -8 -53.5 -18t-85.5 -10q-55 0 -99.5 18t-76 50t-48.5 77.5t-17 101.5t18.5 103t52.5 81.5t82 54t107 19.5q39 0 71.5 -8t50.5 -18l-20 -67q-16 8 -41 15.5t-61 7.5 q-42 0 -73.5 -14.5t-53.5 -39.5t-33 -58.5t-11 -70.5q0 -42 12.5 -75.5t35 -57t53.5 -36t67 -12.5q38 0 63.5 7.5t44.5 15.5z" />
<glyph unicode="&#x10c;" horiz-adv-x="580" d="M320 713l-105 114h74l64 -69h2l63 69h71l-102 -114h-67zM546 22q-23 -12 -69.5 -22t-108.5 -10q-71 0 -132 22t-105.5 65.5t-69.5 107t-25 146.5q0 79 25.5 144t72 111.5t111.5 72t143 25.5q63 0 103 -10.5t57 -18.5l-22 -72q-24 12 -58.5 20t-76.5 8q-59 0 -107.5 -18.5 t-83 -54t-53.5 -87t-19 -117.5q0 -62 17.5 -112t50.5 -85t81 -54t109 -19q41 0 79 7.5t64 20.5z" />
<glyph unicode="&#x10d;" horiz-adv-x="448" d="M231 550l-96 143h67l59 -95h2l59 95h66l-94 -143h-63zM418 18q-17 -8 -53.5 -18t-85.5 -10q-55 0 -99.5 18t-76 50t-48.5 77.5t-17 101.5t18.5 103t52.5 81.5t82 54t107 19.5q39 0 71.5 -8t50.5 -18l-20 -67q-16 8 -41 15.5t-61 7.5q-42 0 -73.5 -14.5t-53.5 -39.5 t-33 -58.5t-11 -70.5q0 -42 12.5 -75.5t35 -57t53.5 -36t67 -12.5q38 0 63.5 7.5t44.5 15.5z" />
<glyph unicode="&#x10e;" horiz-adv-x="666" d="M276 712l-105 114h74l64 -69h2l63 69h71l-102 -114h-67zM163 68q17 -3 39.5 -3.5t48.5 -0.5q140 -1 213.5 74t73.5 212q0 60 -16.5 108t-50.5 81.5t-85.5 52t-120.5 18.5q-34 0 -59.5 -2.5t-42.5 -6.5v-533zM75 665q41 6 87.5 10t98.5 4q94 0 161 -21t112 -63 q46 -42 71 -101t25 -141q0 -83 -25 -149t-72 -113q-48 -48 -124 -72.5t-175 -24.5q-48 0 -86.5 1.5t-72.5 6.5v663z" />
<glyph unicode="&#x10f;" horiz-adv-x="574" d="M403 287q0 9 -1 19t-3 19q-10 42 -43.5 71.5t-83.5 29.5q-34 0 -61 -14t-45.5 -39t-28.5 -59t-10 -74q0 -37 9 -70t27 -57.5t45 -38.5t62 -14q45 0 81 28t48 78q4 15 4 37v84zM491 710v-585q0 -32 1 -66t3 -59h-79l-4 84h-2q-20 -41 -62 -68t-102 -27q-44 0 -82 18 t-66 50t-44 77.5t-16 100.5q0 61 17 109t47 81.5t69.5 51.5t83.5 18q57 0 93.5 -22t52.5 -51h2v288h88zM535 552q12 14 24 35.5t12 52.5q0 20 -9 37t-21 28l62 14q14 -8 25 -28t11 -45q0 -28 -8.5 -49t-19.5 -36t-22 -25t-17 -14z" />
<glyph unicode="&#x110;" horiz-adv-x="671" d="M348 307h-180v-240q17 -3 39.5 -3.5t47.5 -0.5q141 0 214 74.5t73 214.5q0 61 -16.5 109t-50.5 82t-85 52t-120 18q-34 0 -59.5 -2.5t-42.5 -6.5v-227h180v-70zM-2 377h82v291q41 6 87.5 10t98.5 4q184 0 272 -83q46 -42 71 -102t25 -144t-25 -150t-72 -113 q-48 -48 -124 -72.5t-174 -24.5q-48 0 -86.5 1.5t-72.5 5.5v307h-82v70z" />
<glyph unicode="&#x111;" horiz-adv-x="564" d="M403 287q0 9 -1 19t-3 19q-10 42 -43.5 71.5t-83.5 29.5q-34 0 -61 -14t-45.5 -39t-28.5 -59t-10 -74q0 -37 9 -70t27 -57.5t45 -38.5t62 -14q45 0 81 28t48 78q4 15 4 37v84zM491 552v-427q0 -32 1 -66t3 -59h-79l-4 84h-2q-20 -41 -62 -68t-102 -27q-44 0 -82 18 t-66 50t-44 77.5t-16 100.5q0 61 17 109t47 81.5t69.5 51.5t83.5 18q57 0 93.5 -22t52.5 -51h2v130h-197v55h197v103h88v-103h77v-55h-77z" />
<glyph unicode="&#x112;" horiz-adv-x="492" d="M380 788v-55h-240v55h240zM424 316h-261v-243h292v-73h-380v674h365v-73h-277v-213h261v-72z" />
<glyph unicode="&#x113;" horiz-adv-x="501" d="M367 643v-57h-225v57h225zM380 289q0 21 -5 46t-18.5 46.5t-37 36t-60.5 14.5q-34 0 -58 -14t-40.5 -35t-25 -46t-11.5 -48h256zM123 226q1 -44 14.5 -76t36 -52t52 -29.5t62.5 -9.5q48 0 79 7t55 18l16 -63q-23 -11 -63.5 -21t-98.5 -10q-56 0 -100 17.5t-74.5 50 t-47 77.5t-16.5 99q0 55 16 102.5t45.5 82.5t71.5 55.5t95 20.5q59 0 97.5 -23t61 -57.5t31.5 -74.5t9 -73q0 -26 -3 -41h-339z" />
<glyph unicode="&#x114;" horiz-adv-x="492" d="M183 825q4 -17 19.5 -33t52.5 -16q36 0 52 14.5t21 34.5h50q0 -22 -7.5 -41.5t-22.5 -33.5t-38.5 -22.5t-55.5 -8.5q-64 0 -92.5 30.5t-30.5 75.5h52zM424 316h-261v-243h292v-73h-380v674h365v-73h-277v-213h261v-72z" />
<glyph unicode="&#x115;" horiz-adv-x="501" d="M182 682q5 -29 23 -49t49 -20q36 0 53 21.5t19 47.5h52q0 -57 -33.5 -91t-90.5 -34q-33 0 -56.5 10.5t-38.5 28t-22 40t-7 46.5h52zM380 289q0 21 -5 46t-18.5 46.5t-37 36t-60.5 14.5q-34 0 -58 -14t-40.5 -35t-25 -46t-11.5 -48h256zM123 226q1 -44 14.5 -76t36 -52 t52 -29.5t62.5 -9.5q48 0 79 7t55 18l16 -63q-23 -11 -63.5 -21t-98.5 -10q-56 0 -100 17.5t-74.5 50t-47 77.5t-16.5 99q0 55 16 102.5t45.5 82.5t71.5 55.5t95 20.5q59 0 97.5 -23t61 -57.5t31.5 -74.5t9 -73q0 -26 -3 -41h-339z" />
<glyph unicode="&#x116;" horiz-adv-x="492" d="M250 721q-21 0 -35 15.5t-14 35.5t14.5 35t35.5 15q20 0 34 -15t14 -35t-14 -35.5t-34 -15.5h-1zM424 316h-261v-243h292v-73h-380v674h365v-73h-277v-213h261v-72z" />
<glyph unicode="&#x117;" horiz-adv-x="501" d="M255 570q-22 0 -36 15.5t-14 36.5t15 36t36 15t35 -15t14 -36t-13.5 -36.5t-35.5 -15.5h-1zM380 289q0 21 -5 46t-18.5 46.5t-37 36t-60.5 14.5q-34 0 -58 -14t-40.5 -35t-25 -46t-11.5 -48h256zM123 226q1 -44 14.5 -76t36 -52t52 -29.5t62.5 -9.5q48 0 79 7t55 18 l16 -63q-23 -11 -63.5 -21t-98.5 -10q-56 0 -100 17.5t-74.5 50t-47 77.5t-16.5 99q0 55 16 102.5t45.5 82.5t71.5 55.5t95 20.5q59 0 97.5 -23t61 -57.5t31.5 -74.5t9 -73q0 -26 -3 -41h-339z" />
<glyph unicode="&#x118;" horiz-adv-x="492" d="M460 -185q-35 -21 -81 -21q-42 0 -67 21t-25 60q0 21 7.5 39.5t19.5 35t26 29.5t28 22h-293v673h365v-73h-277v-213h261v-72h-261v-243h292v-72q-4 0 -7.5 -0.5t-8.5 -0.5q-31 -20 -56.5 -49t-25.5 -57q0 -20 12.5 -30t32.5 -10q24 0 44 8z" />
<glyph unicode="&#x119;" horiz-adv-x="501" d="M380 289q0 21 -5 46t-18.5 46.5t-37 36t-60.5 14.5q-34 0 -58 -14t-40.5 -35t-25 -46t-11.5 -48h256zM399 -181q-16 -12 -37 -18t-44 -6q-41 0 -65 20t-24 58q0 19 6.5 36.5t17 32.5t23.5 27.5t25 20.5v1q-6 0 -12.5 -0.5t-14.5 -0.5q-55 0 -99 18t-74.5 50t-46.5 77 t-16 99q0 55 16 102.5t45.5 82.5t71.5 55.5t95 20.5q59 0 97.5 -23t61 -57.5t31.5 -74.5t9 -73q0 -28 -3 -41h-339q1 -44 14.5 -76t36 -52t52 -29.5t62.5 -9.5q48 0 79 7t55 18l16 -63q-11 -5 -25 -10t-21 -7q-15 -6 -31.5 -18t-31 -26.5t-23.5 -31t-9 -32.5q0 -22 12.5 -32 t28.5 -10q11 0 24 2.5t23 7.5z" />
<glyph unicode="&#x11a;" horiz-adv-x="492" d="M225 710l-105 114h74l64 -69h2l63 69h71l-102 -114h-67zM424 316h-261v-243h292v-73h-380v674h365v-73h-277v-213h261v-72z" />
<glyph unicode="&#x11b;" horiz-adv-x="501" d="M223 550l-96 143h67l59 -95h2l59 95h66l-94 -143h-63zM380 289q0 21 -5 46t-18.5 46.5t-37 36t-60.5 14.5q-34 0 -58 -14t-40.5 -35t-25 -46t-11.5 -48h256zM123 226q1 -44 14.5 -76t36 -52t52 -29.5t62.5 -9.5q48 0 79 7t55 18l16 -63q-23 -11 -63.5 -21t-98.5 -10 q-56 0 -100 17.5t-74.5 50t-47 77.5t-16.5 99q0 55 16 102.5t45.5 82.5t71.5 55.5t95 20.5q59 0 97.5 -23t61 -57.5t31.5 -74.5t9 -73q0 -26 -3 -41h-339z" />
<glyph unicode="&#x11c;" horiz-adv-x="646" d="M393 827l105 -114h-74l-63 69h-2l-64 -69h-71l102 114h67zM590 30q-15 -6 -36.5 -12.5t-48 -12t-58 -9t-65.5 -3.5q-77 0 -139.5 20.5t-112.5 68.5q-44 42 -69 107t-25 144q0 75 25 139t72.5 110.5t115 72.5t152.5 26q59 0 103 -10t66 -21l-22 -71q-27 13 -62.5 21 t-86.5 8q-62 0 -112 -18.5t-85 -53.5t-54.5 -85.5t-19.5 -113.5q0 -64 18.5 -114.5t52.5 -85.5t82 -53.5t107 -18.5q43 0 72 5t44 13v201h-136v70h222v-324z" />
<glyph unicode="&#x11d;" horiz-adv-x="559" d="M310 696l96 -143h-67l-58 94h-2l-58 -94h-66l94 143h61zM399 294q0 11 -1 20.5t-4 18.5q-12 39 -43 66.5t-80 27.5q-32 0 -58 -13t-45.5 -37t-30 -58t-10.5 -76q0 -35 9 -66.5t27 -55.5t45 -38t62 -14q42 0 75 24t47 67q4 11 5.5 23t1.5 24v87zM487 71q0 -84 -17.5 -137 t-51.5 -85q-36 -32 -83.5 -45t-93.5 -13q-44 0 -88 10t-73 30l22 68q24 -16 60.5 -27.5t81.5 -11.5q34 0 62.5 9.5t49.5 29.5t32.5 52.5t11.5 78.5v53h-2q-20 -34 -58.5 -57.5t-95.5 -23.5q-45 0 -83 18t-65 50t-42.5 75t-15.5 94q0 61 18.5 109t49 80.5t70 49.5t81.5 17 q31 0 55.5 -7.5t43 -19.5t31.5 -27t21 -30h2l3 73h78q-2 -26 -3 -57t-1 -75v-281z" />
<glyph unicode="&#x11e;" horiz-adv-x="646" d="M283 827q4 -17 19.5 -33t52.5 -16q36 0 52 14.5t21 34.5h50q0 -22 -7.5 -41.5t-22.5 -33.5t-38.5 -22.5t-55.5 -8.5q-64 0 -92.5 30.5t-30.5 75.5h52zM590 30q-15 -6 -36.5 -12.5t-48 -12t-58 -9t-65.5 -3.5q-77 0 -139.5 20.5t-112.5 68.5q-44 42 -69 107t-25 144 q0 75 25 139t72.5 110.5t115 72.5t152.5 26q59 0 103 -10t66 -21l-22 -71q-27 13 -62.5 21t-86.5 8q-62 0 -112 -18.5t-85 -53.5t-54.5 -85.5t-19.5 -113.5q0 -64 18.5 -114.5t52.5 -85.5t82 -53.5t107 -18.5q43 0 72 5t44 13v201h-136v70h222v-324z" />
<glyph unicode="&#x11f;" horiz-adv-x="559" d="M200 682q5 -29 23 -49t49 -20q36 0 53 21.5t19 47.5h52q0 -57 -33.5 -91t-90.5 -34q-33 0 -56.5 10.5t-38.5 28t-22 40t-7 46.5h52zM399 294q0 11 -1 20.5t-4 18.5q-12 39 -43 66.5t-80 27.5q-32 0 -58 -13t-45.5 -37t-30 -58t-10.5 -76q0 -35 9 -66.5t27 -55.5t45 -38 t62 -14q42 0 75 24t47 67q4 11 5.5 23t1.5 24v87zM487 71q0 -84 -17.5 -137t-51.5 -85q-36 -32 -83.5 -45t-93.5 -13q-44 0 -88 10t-73 30l22 68q24 -16 60.5 -27.5t81.5 -11.5q34 0 62.5 9.5t49.5 29.5t32.5 52.5t11.5 78.5v53h-2q-20 -34 -58.5 -57.5t-95.5 -23.5 q-45 0 -83 18t-65 50t-42.5 75t-15.5 94q0 61 18.5 109t49 80.5t70 49.5t81.5 17q31 0 55.5 -7.5t43 -19.5t31.5 -27t21 -30h2l3 73h78q-2 -26 -3 -57t-1 -75v-281z" />
<glyph unicode="&#x120;" horiz-adv-x="646" d="M361 719q-21 0 -35 15.5t-14 35.5t14.5 35t35.5 15q20 0 34 -15t14 -35t-14 -35.5t-34 -15.5h-1zM590 30q-15 -6 -36.5 -12.5t-48 -12t-58 -9t-65.5 -3.5q-77 0 -139.5 20.5t-112.5 68.5q-44 42 -69 107t-25 144q0 75 25 139t72.5 110.5t115 72.5t152.5 26q59 0 103 -10 t66 -21l-22 -71q-27 13 -62.5 21t-86.5 8q-62 0 -112 -18.5t-85 -53.5t-54.5 -85.5t-19.5 -113.5q0 -64 18.5 -114.5t52.5 -85.5t82 -53.5t107 -18.5q43 0 72 5t44 13v201h-136v70h222v-324z" />
<glyph unicode="&#x121;" horiz-adv-x="559" d="M279 573q-22 0 -36 15.5t-14 36.5t15 36t36 15t35 -15t14 -36t-13.5 -36.5t-35.5 -15.5h-1zM399 294q0 11 -1 20.5t-4 18.5q-12 39 -43 66.5t-80 27.5q-32 0 -58 -13t-45.5 -37t-30 -58t-10.5 -76q0 -35 9 -66.5t27 -55.5t45 -38t62 -14q42 0 75 24t47 67q4 11 5.5 23 t1.5 24v87zM487 71q0 -84 -17.5 -137t-51.5 -85q-36 -32 -83.5 -45t-93.5 -13q-44 0 -88 10t-73 30l22 68q24 -16 60.5 -27.5t81.5 -11.5q34 0 62.5 9.5t49.5 29.5t32.5 52.5t11.5 78.5v53h-2q-20 -34 -58.5 -57.5t-95.5 -23.5q-45 0 -83 18t-65 50t-42.5 75t-15.5 94 q0 61 18.5 109t49 80.5t70 49.5t81.5 17q31 0 55.5 -7.5t43 -19.5t31.5 -27t21 -30h2l3 73h78q-2 -26 -3 -57t-1 -75v-281z" />
<glyph unicode="&#x122;" horiz-adv-x="646" d="M281 -181q29 5 52 20.5t23 44.5q0 18 -10 34t-24 27l65 14q15 -10 27.5 -29.5t12.5 -44.5q0 -27 -11.5 -47t-30 -32.5t-41.5 -19.5t-46 -8zM590 30q-15 -6 -36.5 -12.5t-48 -12t-58 -9t-65.5 -3.5q-77 0 -139.5 20.5t-112.5 68.5q-44 42 -69 107t-25 144q0 75 25 139 t72.5 110.5t115 72.5t152.5 26q59 0 103 -10t66 -21l-22 -71q-27 13 -62.5 21t-86.5 8q-62 0 -112 -18.5t-85 -53.5t-54.5 -85.5t-19.5 -113.5q0 -64 18.5 -114.5t52.5 -85.5t82 -53.5t107 -18.5q43 0 72 5t44 13v201h-136v70h222v-324z" />
<glyph unicode="&#x123;" horiz-adv-x="559" d="M355 672q-32 -5 -55 -20t-23 -45q0 -17 10.5 -32t24.5 -26l-64 -14q-15 10 -27 29t-12 42q0 27 11.5 45.5t30 31t41.5 18.5t46 8zM399 294q0 11 -1 20.5t-4 18.5q-12 39 -43.5 66.5t-80.5 27.5q-32 0 -58 -13t-45 -37t-29.5 -58t-10.5 -76q0 -35 9 -66.5t27 -55.5 t44.5 -38t61.5 -14q42 0 75.5 24t47.5 67q4 11 5.5 23t1.5 24v87zM487 71q0 -84 -17.5 -137t-51.5 -85q-36 -32 -83.5 -45t-93.5 -13q-45 0 -88.5 10t-72.5 30l22 68q24 -16 60.5 -27.5t81.5 -11.5q34 0 62.5 9.5t49.5 29.5t32.5 52.5t11.5 78.5v53h-2q-20 -34 -59 -57.5 t-95 -23.5q-45 0 -83 18t-65 50t-42.5 75t-15.5 94q0 61 18.5 109t49 80.5t69.5 49.5t81 17q31 0 56 -7.5t43.5 -19.5t31.5 -27t21 -30h2l3 73h78q-2 -26 -3 -57t-1 -75v-281z" />
<glyph unicode="&#x124;" horiz-adv-x="652" d="M359 824l105 -114h-74l-63 69h-2l-64 -69h-71l102 114h67zM163 674v-282h326v282h88v-674h-88v316h-326v-316h-88v674h88z" />
<glyph unicode="&#x125;" horiz-adv-x="555" d="M152 843l105 -114h-74l-63 69h-2l-64 -69h-71l102 114h67zM73 710h88v-302h2q11 19 27 35t36 27q41 25 90 25q24 0 53.5 -9t55 -32t43 -63t17.5 -103v-288h-88v279q0 29 -6 55t-19 45.5t-34.5 31t-52.5 11.5q-43 0 -74 -26t-44 -62q-4 -9 -5 -19t-1 -23v-292h-88v710z " />
<glyph unicode="&#x126;" horiz-adv-x="657" d="M491 479h-325v-102h325v102zM579 479v-479h-88v301h-325v-301h-88v479h-57v58h57v137h88v-137h325v137h88v-137h57v-58h-57z" />
<glyph unicode="&#x127;" horiz-adv-x="555" d="M397 0v279q0 29 -6 55t-19 45.5t-34.5 31t-52.5 11.5q-43 0 -74 -26t-44 -62q-4 -9 -5 -19t-1 -23v-292h-88v552h-77v55h77v103h88v-103h194v-55h-194v-144h2q22 39 63 62q20 11 42.5 18t47.5 7q24 0 53.5 -9t55 -32t43 -63t17.5 -103v-288h-88z" />
<glyph unicode="&#x128;" horiz-adv-x="239" d="M-4 715q-1 46 17.5 74t50.5 28q17 0 30 -6l29 -14q12 -7 24 -12.5t24 -5.5q11 0 18 7.5t9 31.5h46q2 -97 -67 -97q-16 0 -30 5.5t-31 13.5q-14 8 -25 13.5t-22 5.5q-12 0 -18 -12t-8 -32h-47zM163 674v-674h-88v674h88z" />
<glyph unicode="&#x129;" horiz-adv-x="234" d="M-6 567q-2 49 17 76.5t51 27.5q17 0 31 -6.5t31 -15.5q12 -7 22.5 -12t20.5 -5q11 0 18 8.5t9 33.5h47q2 -101 -68 -101q-17 0 -31.5 6.5t-30.5 14.5q-15 9 -24.5 13.5t-18.5 4.5q-12 0 -18 -12t-8 -33h-48zM73 0v484h88v-484h-88z" />
<glyph unicode="&#x12a;" horiz-adv-x="239" d="M241 788v-55h-240v55h240zM163 674v-674h-88v674h88z" />
<glyph unicode="&#x12b;" horiz-adv-x="234" d="M73 0v484h88v-484h-88zM230 643v-57h-225v57h225z" />
<glyph unicode="&#x12c;" horiz-adv-x="239" d="M48 823q4 -17 19.5 -33t52.5 -16q36 0 52 14.5t21 34.5h50q0 -22 -7.5 -41.5t-22.5 -33.5t-38.5 -22.5t-55.5 -8.5q-64 0 -92.5 30.5t-30.5 75.5h52zM163 674v-674h-88v674h88z" />
<glyph unicode="&#x12d;" horiz-adv-x="234" d="M48 682q5 -29 23 -49t49 -20q36 0 53 21.5t19 47.5h52q0 -57 -33.5 -91t-90.5 -34q-33 0 -56.5 10.5t-38.5 28t-22 40t-7 46.5h52zM73 0v484h88v-484h-88z" />
<glyph unicode="&#x12e;" horiz-adv-x="239" d="M163 0h-30q-6 -8 -13 -19t-13.5 -24t-11 -27t-4.5 -28q0 -25 14.5 -38t36.5 -13q15 0 26.5 2.5t19.5 6.5l13 -46q-15 -11 -38 -17t-43 -6q-41 0 -66.5 22t-25.5 65q0 18 5 35.5t12 33.5t15 29l15 24v674h88v-674z" />
<glyph unicode="&#x12f;" horiz-adv-x="234" d="M161 0h-30q-6 -8 -13 -19t-13.5 -24t-11 -27t-4.5 -28q0 -25 14.5 -38t36.5 -13q15 0 26.5 2.5t19.5 6.5l13 -46q-15 -11 -38 -17t-43 -6q-42 0 -67.5 22t-25.5 65q0 18 5 35.5t12.5 33.5t15.5 29.5t15 23.5v484h88v-484zM115 571q-24 0 -39 16.5t-15 39.5t15.5 39 t40.5 16t40 -16t15 -39t-15 -39.5t-41 -16.5h-1z" />
<glyph unicode="&#x130;" horiz-adv-x="239" d="M120 721q-21 0 -35 15.5t-14 35.5t14.5 35t35.5 15q20 0 34 -15t14 -35t-14 -35.5t-34 -15.5h-1zM163 674v-674h-88v674h88z" />
<glyph unicode="&#x131;" horiz-adv-x="234" d="M73 0v484h88v-484h-88z" />
<glyph unicode="&#x132;" horiz-adv-x="609" d="M452 674h88v-451q0 -67 -15.5 -112t-43 -72t-65 -38.5t-80.5 -11.5q-25 0 -51 4.5t-42 11.5l12 71q14 -5 32.5 -9t41.5 -4q29 0 52 7.5t38.5 26.5t24 51t8.5 82v444zM163 674v-674h-88v674h88z" />
<glyph unicode="&#x133;" horiz-adv-x="477" d="M360 566q-24 0 -38.5 16t-14.5 38q0 23 15 39t40 16t39.5 -16t14.5 -39q0 -22 -14.5 -38t-40.5 -16h-1zM188 -142q31 2 55.5 11t40.5 26q9 10 15.5 23.5t10.5 34t6 50.5t2 74v407h88v-441q0 -71 -13 -118.5t-45 -80.5q-15 -15 -33.5 -25t-38.5 -17t-40 -10t-38 -3zM73 0 v484h88v-484h-88zM115 566q-24 0 -38.5 16t-14.5 38q0 23 15 39t40 16q24 0 39 -16t15 -39q0 -22 -14.5 -38t-40.5 -16h-1z" />
<glyph unicode="&#x134;" horiz-adv-x="370" d="M286 824l105 -114h-74l-63 69h-2l-64 -69h-71l102 114h67zM213 674h88v-451q0 -67 -15.5 -112t-43 -72t-65 -38.5t-80.5 -11.5q-25 0 -51 4.5t-42 11.5l12 71q14 -5 32.5 -9t41.5 -4q29 0 52 7.5t38.5 26.5t24 51t8.5 82v444z" />
<glyph unicode="&#x135;" horiz-adv-x="243" d="M150 686l96 -143h-66l-58 94h-2l-58 -94h-64l94 143h58zM-46 -142q31 2 55.5 11t40.5 26q9 10 15.5 23.5t10.5 34t6 50.5t2 74v407h88v-441q0 -71 -13 -118.5t-45 -80.5q-15 -15 -33.5 -25t-38.5 -17t-40 -10t-38 -3z" />
<glyph unicode="&#x136;" horiz-adv-x="542" d="M198 -179q29 5 52 20.5t23 44.5q0 18 -10 34t-24 27l65 14q15 -10 27.5 -29.5t12.5 -44.5q0 -27 -11.5 -47t-30 -32.5t-41.5 -19.5t-46 -8zM76 674h87v-325h3l27 37l26 35l206 253h108l-244 -286l263 -388h-103l-221 331l-65 -74v-257h-87v674z" />
<glyph unicode="&#x137;" horiz-adv-x="469" d="M161 -181q29 5 52 20.5t23 44.5q0 18 -10 34t-24 27l65 14q15 -10 27.5 -29.5t12.5 -44.5q0 -27 -11.5 -47t-30 -32.5t-41.5 -19.5t-46 -8zM161 262h2q9 13 20 27.5t22 27.5l143 167h105l-187 -199l213 -285h-107l-166 232l-45 -50v-182h-88v710h88v-448z" />
<glyph unicode="&#x138;" horiz-adv-x="469" d="M161 262h2q9 13 20 27.5t22 27.5l143 167h105l-187 -199l213 -285h-107l-166 232l-45 -50v-182h-88v484h88v-222z" />
<glyph unicode="&#x139;" horiz-adv-x="472" d="M285 827l-128 -117h-71l93 117h106zM75 674h88v-601h288v-73h-376v674z" />
<glyph unicode="&#x13a;" horiz-adv-x="236" d="M260 856l-128 -117h-71l93 117h106zM73 710h88v-710h-88v710z" />
<glyph unicode="&#x13b;" horiz-adv-x="472" d="M170 -181q29 5 52 20.5t23 44.5q0 18 -10 34t-24 27l65 14q15 -10 27.5 -29.5t12.5 -44.5q0 -27 -11.5 -47t-30 -32.5t-41.5 -19.5t-46 -8zM75 674h88v-601h288v-73h-376v674z" />
<glyph unicode="&#x13c;" horiz-adv-x="236" d="M35 -181q29 5 52 20.5t23 44.5q0 18 -10 34t-24 27l65 14q15 -10 27.5 -29.5t12.5 -44.5q0 -27 -11.5 -47t-30 -32.5t-41.5 -19.5t-46 -8zM73 710h88v-710h-88v710z" />
<glyph unicode="&#x13d;" horiz-adv-x="472" d="M243 545q29 5 52 20.5t23 44.5q0 18 -10 34t-24 27l65 14q15 -10 27.5 -29.5t12.5 -44.5q0 -27 -11.5 -47t-30 -32.5t-41.5 -19.5t-46 -8zM75 674h88v-601h288v-73h-376v674z" />
<glyph unicode="&#x13e;" horiz-adv-x="244" d="M73 710h88v-710h-88v710zM201 552q11 14 23 35.5t12 52.5q0 20 -9 37t-21 28l62 14q14 -8 25 -28t11 -46q0 -27 -8 -48t-19 -36t-21.5 -24.5t-16.5 -14.5z" />
<glyph unicode="&#x13f;" horiz-adv-x="472" d="M340 320q-21 0 -35 15.5t-14 35.5t14.5 35t35.5 15q20 0 34 -15t14 -35t-14 -35.5t-34 -15.5h-1zM75 674h88v-601h288v-73h-376v674z" />
<glyph unicode="&#x140;" horiz-adv-x="272" d="M73 710h88v-710h-88v710zM252 341q-20 0 -33.5 15t-13.5 35t14 35t34 15t33 -14.5t13 -35.5q0 -20 -13 -35t-33 -15h-1z" />
<glyph unicode="&#x141;" horiz-adv-x="476" d="M79 0v269l-84 -61v67l84 62v337h88v-278l134 97v-68l-134 -97v-255h288v-73h-376z" />
<glyph unicode="&#x142;" horiz-adv-x="242" d="M77 0v288l-68 -58v69l68 59v352h88v-285l71 61v-70l-71 -61v-355h-88z" />
<glyph unicode="&#x143;" horiz-adv-x="658" d="M477 827l-128 -117h-71l93 117h106zM76 0v674h96l215 -341q37 -60 67 -113.5t53 -105.5l3 1q-6 68 -8 133t-2 143v283h82v-674h-88l-214 342l-68 114q-32 56 -57 111l-3 -1q4 -64 5 -129t1 -149v-288h-82z" />
<glyph unicode="&#x144;" horiz-adv-x="555" d="M415 693l-122 -143h-62l88 143h96zM73 353q0 38 -1 69.5t-3 61.5h78l5 -79h2q9 17 24 33t35 29t45.5 20.5t55.5 7.5q25 0 55 -9t55.5 -32t43 -63t17.5 -102v-289h-88v279q0 29 -6 55.5t-19 46t-34.5 31t-52.5 11.5q-43 0 -74.5 -26.5t-43.5 -63.5q-3 -8 -4.5 -19 t-1.5 -22v-292h-88v353z" />
<glyph unicode="&#x145;" horiz-adv-x="658" d="M253 -180q29 5 52 20.5t23 44.5q0 18 -10 34t-24 27l65 14q15 -10 27.5 -29.5t12.5 -44.5q0 -27 -11.5 -47t-30 -32.5t-41.5 -19.5t-46 -8zM76 0v674h96l215 -341q37 -60 67 -113.5t53 -105.5l3 1q-6 68 -8 133t-2 143v283h82v-674h-88l-214 342l-68 114q-32 56 -57 111 l-3 -1q4 -64 5 -129t1 -149v-288h-82z" />
<glyph unicode="&#x146;" horiz-adv-x="555" d="M205 -180q29 5 52 20.5t23 44.5q0 18 -10 34t-24 27l65 14q15 -10 27.5 -29.5t12.5 -44.5q0 -27 -11.5 -47t-30 -32.5t-41.5 -19.5t-46 -8zM73 353q0 38 -1 69.5t-3 61.5h78l5 -79h2q9 17 24 33t35 29t45.5 20.5t55.5 7.5q25 0 55 -9t55.5 -32t43 -63t17.5 -102v-289h-88 v279q0 29 -6 55.5t-19 46t-34.5 31t-52.5 11.5q-43 0 -74.5 -26.5t-43.5 -63.5q-3 -8 -4.5 -19t-1.5 -22v-292h-88v353z" />
<glyph unicode="&#x147;" horiz-adv-x="658" d="M298 705l-105 114h74l64 -69h2l63 69h71l-102 -114h-67zM76 0v674h96l215 -341q37 -60 67 -113.5t53 -105.5l3 1q-6 68 -8 133t-2 143v283h82v-674h-88l-214 342l-68 114q-32 56 -57 111l-3 -1q4 -64 5 -129t1 -149v-288h-82z" />
<glyph unicode="&#x148;" horiz-adv-x="555" d="M248 550l-96 143h67l59 -95h2l59 95h66l-94 -143h-63zM73 353q0 38 -1 69.5t-3 61.5h78l5 -79h2q9 17 24 33t35 29t45.5 20.5t55.5 7.5q25 0 55 -9t55.5 -32t43 -63t17.5 -102v-289h-88v279q0 29 -6 55.5t-19 46t-34.5 31t-52.5 11.5q-43 0 -74.5 -26.5t-43.5 -63.5 q-3 -8 -4.5 -19t-1.5 -22v-292h-88v353z" />
<glyph unicode="&#x149;" horiz-adv-x="555" d="M73 353q0 38 -1 69.5t-3 61.5h78l5 -79h2q9 17 24 33t35 29t45.5 20.5t55.5 7.5q25 0 55 -9t55.5 -32t43 -63t17.5 -102v-289h-88v279q0 29 -6 55.5t-19 46t-34.5 31t-52.5 11.5q-43 0 -74.5 -26.5t-43.5 -63.5q-3 -8 -4.5 -19t-1.5 -22v-292h-88v353zM18 565 q13 14 25 34t12 48q0 18 -9 33.5t-22 25.5l64 17q12 -8 23.5 -27t11.5 -45q0 -25 -8 -44t-19.5 -33.5t-22.5 -23.5l-17 -14z" />
<glyph unicode="&#x14a;" horiz-adv-x="658" d="M76 0v674h96l215 -341q37 -60 67 -113.5t53 -105.5l3 1q-6 68 -8 133t-2 143v283h82v-636q0 -108 -48.5 -165.5t-144.5 -71.5l-18 68q60 12 91 41.5t36 83.5l-218 347l-68 114q-32 57 -57 112l-3 -1q4 -64 5 -129.5t1 -148.5v-288h-82z" />
<glyph unicode="&#x14b;" horiz-adv-x="555" d="M73 353q0 38 -1 69.5t-3 61.5h78l5 -79h2q9 17 24 33t35 29t45.5 20.5t55.5 7.5q25 0 55 -9t55.5 -32t43 -63t17.5 -102v-230q0 -58 -14.5 -100t-40 -71t-60.5 -45t-75 -22l-17 70q60 12 89.5 51t29.5 109v228q0 29 -6 55.5t-19 46t-34.5 31t-52.5 11.5 q-43 0 -74.5 -26.5t-43.5 -63.5q-3 -8 -4.5 -19t-1.5 -22v-292h-88v353z" />
<glyph unicode="&#x14c;" horiz-adv-x="689" d="M466 793v-55h-240v55h240zM344 60q52 0 92 22t67.5 60.5t42 89.5t14.5 108q0 50 -13 99t-40 88t-67.5 63t-94.5 24t-95 -23.5t-68 -62.5t-40.5 -89.5t-13.5 -105.5q0 -53 14.5 -102.5t42 -87.5t67.5 -60.5t91 -22.5h1zM339 -11q-67 0 -123 24.5t-96 69.5t-62 108t-22 140 q0 80 23.5 145.5t65 112t98.5 71.5t125 25q69 0 125.5 -25t96 -70.5t61 -108t21.5 -137.5q0 -87 -24.5 -153t-67 -111t-99.5 -68t-121 -23h-1z" />
<glyph unicode="&#x14d;" horiz-adv-x="549" d="M388 643v-57h-225v57h225zM274 55q31 0 58 14t47 39t31 60t11 76q0 31 -8 63.5t-25.5 59.5t-45 44.5t-66.5 17.5t-67 -16.5t-46 -43t-26.5 -60.5t-8.5 -68q0 -40 10.5 -74t30 -59t46 -39t58.5 -14h1zM270 -11q-49 0 -91 17.5t-73.5 49.5t-49.5 78.5t-18 103.5 q0 61 19 108.5t51.5 80.5t76 50.5t93.5 17.5q52 0 95 -18t73.5 -51t47.5 -78.5t17 -100.5q0 -68 -21.5 -116.5t-55.5 -80t-77 -46.5t-86 -15h-1z" />
<glyph unicode="&#x14e;" horiz-adv-x="689" d="M273 830q4 -17 19.5 -33t52.5 -16q36 0 52 14.5t21 34.5h50q0 -22 -7.5 -41.5t-22.5 -33.5t-38.5 -22.5t-55.5 -8.5q-64 0 -92.5 30.5t-30.5 75.5h52zM344 60q52 0 92 22t67.5 60.5t42 89.5t14.5 108q0 50 -13 99t-40 88t-67.5 63t-94.5 24t-95 -23.5t-68 -62.5 t-40.5 -89.5t-13.5 -105.5q0 -53 14.5 -102.5t42 -87.5t67.5 -60.5t91 -22.5h1zM339 -11q-67 0 -123 24.5t-96 69.5t-62 108t-22 140q0 80 23.5 145.5t65 112t98.5 71.5t125 25q69 0 125.5 -25t96 -70.5t61 -108t21.5 -137.5q0 -87 -24.5 -153t-67 -111t-99.5 -68t-121 -23 h-1z" />
<glyph unicode="&#x14f;" horiz-adv-x="549" d="M203 682q5 -29 23 -49t49 -20q36 0 53 21.5t19 47.5h52q0 -57 -33.5 -91t-90.5 -34q-33 0 -56.5 10.5t-38.5 28t-22 40t-7 46.5h52zM274 55q31 0 58 14t47 39t31 60t11 76q0 31 -8 63.5t-25.5 59.5t-45 44.5t-66.5 17.5t-67 -16.5t-46 -43t-26.5 -60.5t-8.5 -68 q0 -40 10.5 -74t30 -59t46 -39t58.5 -14h1zM270 -11q-49 0 -91 17.5t-73.5 49.5t-49.5 78.5t-18 103.5q0 61 19 108.5t51.5 80.5t76 50.5t93.5 17.5q52 0 95 -18t73.5 -51t47.5 -78.5t17 -100.5q0 -68 -21.5 -116.5t-55.5 -80t-77 -46.5t-86 -15h-1z" />
<glyph unicode="&#x150;" horiz-adv-x="689" d="M563 830l-112 -112h-64l80 112h96zM416 830l-112 -112h-64l80 112h96zM344 60q52 0 92 22t67.5 60.5t42 89.5t14.5 108q0 50 -13 99t-40 88t-67.5 63t-94.5 24t-95 -23.5t-68 -62.5t-40.5 -89.5t-13.5 -105.5q0 -53 14.5 -102.5t42 -87.5t67.5 -60.5t91 -22.5h1zM339 -11 q-67 0 -123 24.5t-96 69.5t-62 108t-22 140q0 80 23.5 145.5t65 112t98.5 71.5t125 25q69 0 125.5 -25t96 -70.5t61 -108t21.5 -137.5q0 -87 -24.5 -153t-67 -111t-99.5 -68t-121 -23h-1z" />
<glyph unicode="&#x151;" horiz-adv-x="549" d="M469 693l-110 -136h-55l79 136h86zM325 693l-110 -136h-55l79 136h86zM274 55q31 0 58 14t47 39t31 60t11 76q0 31 -8 63.5t-25.5 59.5t-45 44.5t-66.5 17.5t-67 -16.5t-46 -43t-26.5 -60.5t-8.5 -68q0 -40 10.5 -74t30 -59t46 -39t58.5 -14h1zM270 -11q-49 0 -91 17.5 t-73.5 49.5t-49.5 78.5t-18 103.5q0 61 19 108.5t51.5 80.5t76 50.5t93.5 17.5q52 0 95 -18t73.5 -51t47.5 -78.5t17 -100.5q0 -68 -21.5 -116.5t-55.5 -80t-77 -46.5t-86 -15h-1z" />
<glyph unicode="&#x152;" horiz-adv-x="894" d="M477 599q-20 7 -45 11t-62 4q-56 0 -101 -20t-76.5 -57t-48 -88t-16.5 -113t17 -112.5t49 -87t78.5 -56.5t106.5 -20q28 0 54.5 3.5t43.5 10.5v525zM857 0h-345q-15 0 -32 -2l-34 -4q-19 -2 -39.5 -3.5t-43.5 -1.5q-79 0 -140 26.5t-102.5 72.5t-63 109t-21.5 135 q0 83 24.5 148.5t68.5 111t105 69.5t134 24q26 0 47.5 -1.5t40.5 -3.5t34.5 -4t29.5 -2h322v-73h-277v-214h261v-72h-261v-242h292v-73z" />
<glyph unicode="&#x153;" horiz-adv-x="863" d="M742 290q0 20 -4.5 45t-17.5 46.5t-36.5 36t-59.5 14.5q-33 0 -56.5 -13.5t-39 -34.5t-24 -46t-10.5 -48h248zM270 429q-39 0 -66.5 -17.5t-44 -45t-24 -61t-7.5 -64.5q0 -39 10.5 -73t29.5 -59t45.5 -39.5t57.5 -14.5q32 0 58 13.5t45 38.5t29 59t10 76q0 34 -8.5 68 t-25.5 60t-44 42.5t-64 16.5h-1zM495 227q0 -83 45.5 -126t115.5 -43q45 0 75 8t55 19l16 -63q-15 -8 -33.5 -14.5t-39.5 -10.5t-42.5 -6t-41.5 -2q-63 0 -113 27t-79 87h-2q-14 -29 -34.5 -50.5t-45 -35.5t-52 -21t-55.5 -7q-48 0 -89.5 17.5t-71.5 50t-47.5 79 t-17.5 103.5q0 59 18 106.5t49.5 80.5t73.5 51t91 18q62 0 110.5 -30t71.5 -86h2q27 59 73.5 87.5t103.5 28.5q58 0 96 -23.5t60.5 -58t31 -74t8.5 -71.5q0 -28 -3 -41h-329z" />
<glyph unicode="&#x154;" horiz-adv-x="538" d="M408 830l-128 -117h-71l93 117h106zM163 358h89q70 0 111 35t41 93q0 66 -43 95.5t-112 29.5q-32 0 -53.5 -2.5t-32.5 -5.5v-245zM76 664q33 7 77.5 11t89.5 4q70 0 117 -13.5t79 -42.5q25 -22 39 -55t14 -73q0 -33 -10 -60.5t-27.5 -49t-40.5 -37t-49 -24.5v-3 q38 -14 62 -48.5t37 -87.5l29 -118q12 -47 22 -67h-90q-8 15 -19 56.5t-25 104.5q-15 70 -46 99.5t-90 31.5h-82v-292h-87v664z" />
<glyph unicode="&#x155;" horiz-adv-x="327" d="M313 693l-122 -143h-62l88 143h96zM73 333q0 43 -1 80t-3 71h77l4 -95h3q17 49 53.5 77.5t81.5 28.5q7 0 12.5 -0.5t11.5 -1.5v-83q-7 1 -14 1.5t-16 0.5q-47 0 -78 -31.5t-40 -80.5q-3 -20 -3 -41v-259h-88v333z" />
<glyph unicode="&#x156;" horiz-adv-x="538" d="M195 -174q29 5 52 20.5t23 44.5q0 18 -10 34t-24 27l65 14q15 -10 27.5 -29.5t12.5 -44.5q0 -27 -11.5 -47t-30 -32.5t-41.5 -19.5t-46 -8zM163 358h89q70 0 111 35t41 93q0 66 -43 95.5t-112 29.5q-32 0 -53.5 -2.5t-32.5 -5.5v-245zM76 664q33 7 77.5 11t89.5 4 q70 0 117 -13.5t79 -42.5q25 -22 39 -55t14 -73q0 -33 -10 -60.5t-27.5 -49t-40.5 -37t-49 -24.5v-3q38 -14 62 -48.5t37 -87.5l29 -118q12 -47 22 -67h-90q-8 15 -19 56.5t-25 104.5q-15 70 -46 99.5t-90 31.5h-82v-292h-87v664z" />
<glyph unicode="&#x157;" horiz-adv-x="327" d="M43 -181q29 5 52 20.5t23 44.5q0 18 -10 34t-24 27l65 14q15 -10 27.5 -29.5t12.5 -44.5q0 -27 -11.5 -47t-30 -32.5t-41.5 -19.5t-46 -8zM73 333q0 43 -1 80t-3 71h77l4 -95h3q17 49 53.5 77.5t81.5 28.5q7 0 12.5 -0.5t11.5 -1.5v-83q-7 1 -14 1.5t-16 0.5 q-47 0 -78 -31.5t-40 -80.5q-3 -20 -3 -41v-259h-88v333z" />
<glyph unicode="&#x158;" horiz-adv-x="538" d="M232 713l-105 114h74l64 -69h2l63 69h71l-102 -114h-67zM163 358h89q70 0 111 35t41 93q0 66 -43 95.5t-112 29.5q-32 0 -53.5 -2.5t-32.5 -5.5v-245zM76 664q33 7 77.5 11t89.5 4q70 0 117 -13.5t79 -42.5q25 -22 39 -55t14 -73q0 -33 -10 -60.5t-27.5 -49t-40.5 -37 t-49 -24.5v-3q38 -14 62 -48.5t37 -87.5l29 -118q12 -47 22 -67h-90q-8 15 -19 56.5t-25 104.5q-15 70 -46 99.5t-90 31.5h-82v-292h-87v664z" />
<glyph unicode="&#x159;" horiz-adv-x="327" d="M151 550l-96 143h67l59 -95h2l59 95h66l-94 -143h-63zM73 333q0 43 -1 80t-3 71h77l4 -95h3q17 49 53.5 77.5t81.5 28.5q7 0 12.5 -0.5t11.5 -1.5v-83q-7 1 -14 1.5t-16 0.5q-47 0 -78 -31.5t-40 -80.5q-3 -20 -3 -41v-259h-88v333z" />
<glyph unicode="&#x15a;" horiz-adv-x="493" d="M406 830l-128 -117h-71l93 117h106zM65 106q29 -18 69.5 -30.5t85.5 -12.5q67 0 104 31.5t37 82.5q0 47 -29.5 77.5t-97.5 56.5q-83 29 -130.5 74t-47.5 116q0 39 15.5 72.5t44 58t69 38.5t89.5 14q51 0 88.5 -10t59.5 -22l-24 -72q-16 10 -48.5 21t-78.5 11 q-35 0 -59 -9.5t-39 -24t-22 -32.5t-7 -35q0 -23 8 -41t24.5 -33t41.5 -28.5t60 -26.5q43 -17 75 -36t53.5 -42.5t32 -53t10.5 -66.5q0 -39 -14.5 -74t-43.5 -61.5t-73 -42.5t-104 -16q-24 0 -49 3.5t-48 9.5t-42.5 14t-32.5 17z" />
<glyph unicode="&#x15b;" horiz-adv-x="396" d="M340 693l-122 -143h-62l88 143h96zM61 90q20 -12 52 -23t65 -11q48 0 70.5 20.5t22.5 51.5q0 32 -20.5 51t-68.5 37q-66 24 -97.5 59t-31.5 78q0 29 11.5 55t33.5 45.5t52.5 30.5t69.5 11q37 0 67.5 -8.5t50.5 -21.5l-21 -63q-14 8 -39.5 18t-59.5 10q-39 0 -59.5 -19.5 t-20.5 -46.5q0 -30 21.5 -47t69.5 -36q63 -23 95 -57t32 -88q0 -65 -47.5 -105.5t-132.5 -40.5q-40 0 -75 9.5t-61 24.5z" />
<glyph unicode="&#x15c;" horiz-adv-x="493" d="M281 827l105 -114h-74l-63 69h-2l-64 -69h-71l102 114h67zM65 106q29 -18 69.5 -30.5t85.5 -12.5q67 0 104 31.5t37 82.5q0 47 -29.5 77.5t-97.5 56.5q-83 29 -130.5 74t-47.5 116q0 39 15.5 72.5t44 58t69 38.5t89.5 14q51 0 88.5 -10t59.5 -22l-24 -72q-16 10 -48.5 21 t-78.5 11q-35 0 -59 -9.5t-39 -24t-22 -32.5t-7 -35q0 -23 8 -41t24.5 -33t41.5 -28.5t60 -26.5q43 -17 75 -36t53.5 -42.5t32 -53t10.5 -66.5q0 -39 -14.5 -74t-43.5 -61.5t-73 -42.5t-104 -16q-24 0 -49 3.5t-48 9.5t-42.5 14t-32.5 17z" />
<glyph unicode="&#x15d;" horiz-adv-x="396" d="M230 693l96 -143h-67l-58 94h-2l-58 -94h-66l94 143h61zM61 90q20 -12 52 -23t65 -11q48 0 70.5 20.5t22.5 51.5q0 32 -20.5 51t-68.5 37q-66 24 -97.5 59t-31.5 78q0 29 11.5 55t33.5 45.5t52.5 30.5t69.5 11q37 0 67.5 -8.5t50.5 -21.5l-21 -63q-14 8 -39.5 18 t-59.5 10q-39 0 -59.5 -19.5t-20.5 -46.5q0 -30 21.5 -47t69.5 -36q63 -23 95 -57t32 -88q0 -65 -47.5 -105.5t-132.5 -40.5q-40 0 -75 9.5t-61 24.5z" />
<glyph unicode="&#x15e;" horiz-adv-x="493" d="M65 106q29 -18 69.5 -30.5t85.5 -12.5q67 0 104 31.5t37 82.5q0 47 -30 77.5t-98 56.5q-82 29 -129.5 74t-47.5 116q0 39 15.5 72.5t44 58t69 38.5t89.5 14q51 0 88.5 -10t59.5 -22l-24 -72q-16 10 -48.5 21t-78.5 11q-35 0 -59 -9.5t-39 -24t-22 -32.5t-7 -35 q0 -23 8 -41t24 -33t41 -28.5t60 -26.5q86 -34 129 -79t43 -119q0 -33 -10.5 -63.5t-32 -56t-54.5 -43.5t-77 -26l-28 -45q29 -4 49.5 -22.5t20.5 -47.5q0 -21 -8.5 -36.5t-23 -25t-33 -14t-38.5 -4.5t-38.5 5t-31.5 13l15 42q12 -6 25.5 -10t29.5 -4q17 0 29 7t12 24 q0 20 -21 29.5t-56 12.5l40 71h-7q-44 0 -92 12.5t-77 31.5z" />
<glyph unicode="&#xf6c1;" horiz-adv-x="493" d="M65 106q29 -18 69.5 -30.5t85.5 -12.5q67 0 104 31.5t37 82.5q0 47 -30 77.5t-98 56.5q-82 29 -129.5 74t-47.5 116q0 39 15.5 72.5t44 58t69 38.5t89.5 14q51 0 88.5 -10t59.5 -22l-24 -72q-16 10 -48.5 21t-78.5 11q-35 0 -59 -9.5t-39 -24t-22 -32.5t-7 -35 q0 -23 8 -41t24 -33t41 -28.5t60 -26.5q86 -34 129 -79t43 -119q0 -33 -10.5 -63.5t-32 -56t-54.5 -43.5t-77 -26l-28 -45q29 -4 49.5 -22.5t20.5 -47.5q0 -21 -8.5 -36.5t-23 -25t-33 -14t-38.5 -4.5t-38.5 5t-31.5 13l15 42q12 -6 25.5 -10t29.5 -4q17 0 29 7t12 24 q0 20 -21 29.5t-56 12.5l40 71h-7q-44 0 -92 12.5t-77 31.5z" />
<glyph unicode="&#x15f;" horiz-adv-x="396" d="M61 89q20 -12 52 -23t65 -11q48 0 70.5 21t22.5 51q0 32 -20.5 51.5t-68.5 37.5q-66 24 -97.5 58.5t-31.5 78.5q0 29 11.5 55t33.5 45.5t52.5 30.5t69.5 11q38 0 68 -8.5t50 -21.5l-21 -63q-14 8 -39.5 18t-59.5 10q-39 0 -59.5 -19.5t-20.5 -46.5q0 -31 22 -47.5 t70 -35.5q62 -23 94 -57t32 -89q0 -54 -33.5 -91.5t-95.5 -48.5l-27 -45q27 -3 48.5 -21.5t21.5 -47.5q0 -22 -8.5 -37.5t-23 -25t-33.5 -14t-40 -4.5q-18 0 -36.5 5t-31.5 13l15 42q26 -14 54 -14q17 0 30.5 7t12.5 24q0 20 -21 29.5t-57 12.5l40 71h-3q-30 0 -64.5 8 t-63.5 25z" />
<glyph unicode="&#xf6c2;" horiz-adv-x="396" d="M61 89q20 -12 52 -23t65 -11q48 0 70.5 21t22.5 51q0 32 -20.5 51.5t-68.5 37.5q-66 24 -97.5 58.5t-31.5 78.5q0 29 11.5 55t33.5 45.5t52.5 30.5t69.5 11q38 0 68 -8.5t50 -21.5l-21 -63q-14 8 -39.5 18t-59.5 10q-39 0 -59.5 -19.5t-20.5 -46.5q0 -31 22 -47.5 t70 -35.5q62 -23 94 -57t32 -89q0 -54 -33.5 -91.5t-95.5 -48.5l-27 -45q27 -3 48.5 -21.5t21.5 -47.5q0 -22 -8.5 -37.5t-23 -25t-33.5 -14t-40 -4.5q-18 0 -36.5 5t-31.5 13l15 42q26 -14 54 -14q17 0 30.5 7t12.5 24q0 20 -21 29.5t-57 12.5l40 71h-3q-30 0 -64.5 8 t-63.5 25z" />
<glyph unicode="&#x160;" horiz-adv-x="493" d="M227 713l-105 114h74l64 -69h2l63 69h71l-102 -114h-67zM65 106q29 -18 69.5 -30.5t85.5 -12.5q67 0 104 31.5t37 82.5q0 47 -29.5 77.5t-97.5 56.5q-83 29 -130.5 74t-47.5 116q0 39 15.5 72.5t44 58t69 38.5t89.5 14q51 0 88.5 -10t59.5 -22l-24 -72q-16 10 -48.5 21 t-78.5 11q-35 0 -59 -9.5t-39 -24t-22 -32.5t-7 -35q0 -23 8 -41t24.5 -33t41.5 -28.5t60 -26.5q43 -17 75 -36t53.5 -42.5t32 -53t10.5 -66.5q0 -39 -14.5 -74t-43.5 -61.5t-73 -42.5t-104 -16q-24 0 -49 3.5t-48 9.5t-42.5 14t-32.5 17z" />
<glyph unicode="&#x161;" horiz-adv-x="396" d="M172 550l-96 143h67l59 -95h2l59 95h66l-94 -143h-63zM61 90q20 -12 52 -23t65 -11q48 0 70.5 20.5t22.5 51.5q0 32 -20.5 51t-68.5 37q-66 24 -97.5 59t-31.5 78q0 29 11.5 55t33.5 45.5t52.5 30.5t69.5 11q37 0 67.5 -8.5t50.5 -21.5l-21 -63q-14 8 -39.5 18t-59.5 10 q-39 0 -59.5 -19.5t-20.5 -46.5q0 -30 21.5 -47t69.5 -36q63 -23 95 -57t32 -88q0 -65 -47.5 -105.5t-132.5 -40.5q-40 0 -75 9.5t-61 24.5z" />
<glyph unicode="&#x162;" horiz-adv-x="497" d="M164 -181q29 5 52 20.5t23 44.5q0 18 -10 34t-24 27l65 14q15 -10 27.5 -29.5t12.5 -44.5q0 -27 -11.5 -47t-30 -32.5t-41.5 -19.5t-46 -8zM204 600h-205v74h499v-74h-206v-600h-88v600z" />
<glyph unicode="&#x21a;" horiz-adv-x="497" d="M164 -181q29 5 52 20.5t23 44.5q0 18 -10 34t-24 27l65 14q15 -10 27.5 -29.5t12.5 -44.5q0 -27 -11.5 -47t-30 -32.5t-41.5 -19.5t-46 -8zM204 600h-205v74h499v-74h-206v-600h-88v600z" />
<glyph unicode="&#x163;" horiz-adv-x="331" d="M105 -186q29 5 52 20.5t23 44.5q0 18 -10 34t-24 27l65 14q15 -10 27.5 -29.5t12.5 -44.5q0 -27 -11.5 -47t-30 -32.5t-41.5 -19.5t-46 -8zM179 600v-116h126v-67h-126v-260q0 -45 14.5 -69.5t51.5 -24.5q18 0 29.5 1.5t21.5 4.5l4 -67q-13 -5 -32.5 -8.5t-45.5 -3.5 q-31 0 -55 10t-40 27q-18 20 -26 52t-8 75v263h-75v67h75v89z" />
<glyph unicode="&#x21b;" horiz-adv-x="331" d="M105 -186q29 5 52 20.5t23 44.5q0 18 -10 34t-24 27l65 14q15 -10 27.5 -29.5t12.5 -44.5q0 -27 -11.5 -47t-30 -32.5t-41.5 -19.5t-46 -8zM179 600v-116h126v-67h-126v-260q0 -45 14.5 -69.5t51.5 -24.5q18 0 29.5 1.5t21.5 4.5l4 -67q-13 -5 -32.5 -8.5t-45.5 -3.5 q-31 0 -55 10t-40 27q-18 20 -26 52t-8 75v263h-75v67h75v89z" />
<glyph unicode="&#x164;" horiz-adv-x="497" d="M217 710l-105 114h74l64 -69h2l63 69h71l-102 -114h-67zM204 600h-205v74h499v-74h-206v-600h-88v600z" />
<glyph unicode="&#x165;" horiz-adv-x="339" d="M251 576q14 10 26 28.5t12 45.5q0 17 -8.5 32.5t-21.5 26.5l64 13q13 -8 24 -27t11 -42q0 -26 -9 -45t-22 -32.5t-27 -22t-23 -12.5zM179 600v-116h127v-67h-127v-260q0 -45 14.5 -69.5t52.5 -24.5q17 0 28.5 1.5t22.5 4.5l4 -67q-13 -5 -33 -8.5t-46 -3.5q-31 0 -55 10 t-40 27q-18 20 -26 52t-8 75v263h-75v67h75v89z" />
<glyph unicode="&#x166;" horiz-adv-x="497" d="M292 600v-222h124v-58h-124v-320h-88v320h-125v58h125v222h-205v74h499v-74h-206z" />
<glyph unicode="&#x167;" horiz-adv-x="331" d="M179 417v-115h98v-54h-98v-96q0 -43 15.5 -66t50.5 -23q18 0 29.5 1.5t21.5 4.5l4 -67q-13 -5 -32.5 -8.5t-45.5 -3.5q-31 0 -55 10t-40 27q-18 20 -26 52t-8 74v95h-66v54h66v115h-75v67h75v89l86 27v-116h126v-67h-126z" />
<glyph unicode="&#x168;" horiz-adv-x="647" d="M200 715q-1 46 17.5 74t50.5 28q17 0 30 -6l29 -14q12 -7 24 -12.5t24 -5.5q11 0 18 7.5t9 31.5h46q2 -97 -67 -97q-16 0 -30 5.5t-31 13.5q-14 8 -25 13.5t-22 5.5q-12 0 -18 -12t-8 -32h-47zM163 674v-400q0 -56 12 -96.5t33 -66.5t49.5 -38.5t62.5 -12.5 q74 0 119 51.5t45 162.5v400h88v-394q0 -78 -19.5 -133t-53.5 -90t-80.5 -51.5t-101.5 -16.5q-52 0 -96 15.5t-76.5 50t-51 89t-18.5 133.5v397h88z" />
<glyph unicode="&#x169;" horiz-adv-x="551" d="M153 567q-2 49 17 76.5t51 27.5q17 0 31 -6.5t31 -15.5q12 -7 22.5 -12t20.5 -5q11 0 18 8.5t9 33.5h47q2 -101 -68 -101q-17 0 -31.5 6.5t-30.5 14.5q-15 9 -24.5 13.5t-18.5 4.5q-12 0 -18 -12t-8 -33h-48zM478 133q0 -38 1 -71t3 -62h-78l-5 79h-2q-8 -15 -22 -30.5 t-34 -29t-46 -22t-58 -8.5q-29 0 -58.5 9.5t-53.5 33.5t-39.5 65t-15.5 104v283h88v-267q0 -69 24.5 -112t83.5 -43q45 0 74.5 25.5t41.5 55.5q8 19 8 45v296h88v-351z" />
<glyph unicode="&#x16a;" horiz-adv-x="647" d="M445 788v-55h-240v55h240zM163 674v-400q0 -56 12 -96.5t33 -66.5t49.5 -38.5t62.5 -12.5q74 0 119 51.5t45 162.5v400h88v-394q0 -78 -19.5 -133t-53.5 -90t-80.5 -51.5t-101.5 -16.5q-52 0 -96 15.5t-76.5 50t-51 89t-18.5 133.5v397h88z" />
<glyph unicode="&#x16b;" horiz-adv-x="551" d="M389 643v-57h-225v57h225zM478 133q0 -38 1 -71t3 -62h-78l-5 79h-2q-8 -15 -22 -30.5t-34 -29t-46 -22t-58 -8.5q-29 0 -58.5 9.5t-53.5 33.5t-39.5 65t-15.5 104v283h88v-267q0 -69 24.5 -112t83.5 -43q45 0 74.5 25.5t41.5 55.5q8 19 8 45v296h88v-351z" />
<glyph unicode="&#x16c;" horiz-adv-x="647" d="M252 827q4 -17 19.5 -33t52.5 -16q36 0 52 14.5t21 34.5h50q0 -22 -7.5 -41.5t-22.5 -33.5t-38.5 -22.5t-55.5 -8.5q-64 0 -92.5 30.5t-30.5 75.5h52zM163 674v-400q0 -56 12 -96.5t33 -66.5t49.5 -38.5t62.5 -12.5q74 0 119 51.5t45 162.5v400h88v-394q0 -78 -19.5 -133 t-53.5 -90t-80.5 -51.5t-101.5 -16.5q-52 0 -96 15.5t-76.5 50t-51 89t-18.5 133.5v397h88z" />
<glyph unicode="&#x16d;" horiz-adv-x="551" d="M204 682q5 -29 23 -49t49 -20q36 0 53 21.5t19 47.5h52q0 -57 -33.5 -91t-90.5 -34q-33 0 -56.5 10.5t-38.5 28t-22 40t-7 46.5h52zM478 133q0 -38 1 -71t3 -62h-78l-5 79h-2q-8 -15 -22 -30.5t-34 -29t-46 -22t-58 -8.5q-29 0 -58.5 9.5t-53.5 33.5t-39.5 65t-15.5 104 v283h88v-267q0 -69 24.5 -112t83.5 -43q45 0 74.5 25.5t41.5 55.5q8 19 8 45v296h88v-351z" />
<glyph unicode="&#x16e;" horiz-adv-x="647" d="M322 837q-22 0 -34.5 -16.5t-12.5 -38.5q0 -20 13 -35.5t35 -15.5q23 0 36 15t13 38q0 22 -13 37.5t-36 15.5h-1zM325 873q46 0 72.5 -26.5t26.5 -64.5t-27.5 -63t-72.5 -25t-72.5 25.5t-27.5 62.5q0 38 26.5 64.5t73.5 26.5h1zM163 674v-400q0 -56 12 -96.5t33 -66.5 t49.5 -38.5t62.5 -12.5q74 0 119 51.5t45 162.5v400h88v-394q0 -78 -19.5 -133t-53.5 -90t-80.5 -51.5t-101.5 -16.5q-52 0 -96 15.5t-76.5 50t-51 89t-18.5 133.5v397h88z" />
<glyph unicode="&#x16f;" horiz-adv-x="551" d="M275 685q-23 0 -36 -16.5t-13 -39.5q0 -20 13.5 -37t36.5 -17q24 0 38 16t14 39t-14 39t-38 16h-1zM278 723q45 0 72 -27t27 -67q0 -39 -28.5 -65.5t-71.5 -26.5q-45 0 -73.5 27t-28.5 65q0 39 27.5 66.5t74.5 27.5h1zM478 133q0 -38 1 -71t3 -62h-78l-5 79h-2 q-8 -15 -22 -30.5t-34 -29t-46 -22t-58 -8.5q-29 0 -58.5 9.5t-53.5 33.5t-39.5 65t-15.5 104v283h88v-267q0 -69 24.5 -112t83.5 -43q45 0 74.5 25.5t41.5 55.5q8 19 8 45v296h88v-351z" />
<glyph unicode="&#x170;" horiz-adv-x="647" d="M527 827l-112 -112h-64l80 112h96zM380 827l-112 -112h-64l80 112h96zM163 674v-400q0 -56 12 -96.5t33 -66.5t49.5 -38.5t62.5 -12.5q74 0 119 51.5t45 162.5v400h88v-394q0 -78 -19.5 -133t-53.5 -90t-80.5 -51.5t-101.5 -16.5q-52 0 -96 15.5t-76.5 50t-51 89 t-18.5 133.5v397h88z" />
<glyph unicode="&#x171;" horiz-adv-x="551" d="M477 693l-110 -136h-55l79 136h86zM333 693l-110 -136h-55l79 136h86zM478 133q0 -38 1 -71t3 -62h-78l-5 79h-2q-8 -15 -22 -30.5t-34 -29t-46 -22t-58 -8.5q-29 0 -58.5 9.5t-53.5 33.5t-39.5 65t-15.5 104v283h88v-267q0 -69 24.5 -112t83.5 -43q45 0 74.5 25.5 t41.5 55.5q8 19 8 45v296h88v-351z" />
<glyph unicode="&#x172;" horiz-adv-x="647" d="M429 -180q-16 -11 -39 -17.5t-43 -6.5q-42 0 -66 21t-24 59q0 33 18.5 62.5t39.5 51.5h-7q-50 1 -92.5 17.5t-74 50.5t-49 88t-17.5 131v397h88v-399q0 -56 12 -96.5t33 -66.5t49.5 -38.5t62.5 -12.5q75 0 119.5 51.5t44.5 162.5v399h88v-393q0 -65 -13.5 -113.5 t-38.5 -83t-59 -55.5t-75 -30q-10 -9 -21 -21t-20 -25t-14.5 -27.5t-5.5 -27.5q0 -21 12.5 -32t32.5 -11q23 0 45 10z" />
<glyph unicode="&#x173;" horiz-adv-x="551" d="M478 133q0 -38 1 -71.5t3 -61.5l-21 3q-6 -8 -13 -19t-13 -24t-10.5 -27t-4.5 -28q0 -25 14.5 -38t36.5 -13q14 0 25.5 2.5t19.5 6.5l14 -46q-16 -11 -39 -17t-42 -6q-42 0 -67.5 22t-25.5 65q0 18 5 35.5t12.5 33.5t15.5 29.5t15 23.5l-5 76h-2q-8 -15 -22 -30.5 t-34 -29t-46 -22t-58 -8.5q-29 0 -58.5 9.5t-53.5 33.5t-39.5 65t-15.5 104v283h88v-267q0 -69 24.5 -112t83.5 -43q45 0 74.5 25.5t41.5 55.5q8 19 8 45v296h88v-351z" />
<glyph unicode="&#x174;" horiz-adv-x="846" d="M457 824l105 -114h-74l-63 69h-2l-64 -69h-71l102 114h67zM186 0l-171 674h92l80 -341l28 -124q13 -60 22 -109h2q8 51 23 110l32 124l90 340h91l82 -342l27 -119q12 -58 20 -112h2q11 56 24 113l30 120l89 340h89l-191 -674h-91l-85 350q-16 66 -26.5 118t-17.5 103h-2 q-8 -51 -20.5 -102.5t-31.5 -117.5l-96 -351h-91z" />
<glyph unicode="&#x175;" horiz-adv-x="736" d="M398 693l96 -143h-67l-58 94h-2l-58 -94h-66l94 143h61zM108 484l65 -245l19 -79q9 -38 16 -76h3q8 37 19 76l24 78l79 246h74l75 -242q14 -43 24.5 -82t18.5 -76h3q6 37 15.5 75.5t21.5 81.5l69 243h87l-156 -484h-80l-74 231q-13 42 -23.5 79.5t-19.5 80.5h-2 q-9 -44 -20 -83t-24 -78l-78 -230h-80l-146 484h90z" />
<glyph unicode="&#x176;" horiz-adv-x="541" d="M304 824l105 -114h-74l-63 69h-2l-64 -69h-71l102 114h67zM226 0v286l-214 388h100l95 -186l35 -71l32 -68h2q14 33 31 67l37 72l97 186h98l-225 -387v-287h-88z" />
<glyph unicode="&#x177;" horiz-adv-x="471" d="M268 693l96 -143h-67l-58 94h-2l-58 -94h-66l94 143h61zM105 484l105 -286q9 -24 17.5 -50.5t14.5 -48.5h2q7 22 14.5 48.5t16.5 52.5l96 284h93l-132 -345q-24 -62 -44.5 -110t-40 -84t-39.5 -62.5t-42 -46.5q-33 -28 -62 -40.5t-46 -15.5l-22 73q17 5 37 15.5t40 27.5 q18 14 38 39t36 59q7 16 7 21q0 8 -7 23l-178 446h96z" />
<glyph unicode="&#x178;" horiz-adv-x="541" d="M372 714q-21 0 -34.5 15t-13.5 36q0 20 14 35t36 15q21 0 34.5 -14.5t13.5 -35.5t-13 -36t-36 -15h-1zM187 714q-21 0 -34.5 15t-13.5 36q0 20 14 35t35 15t34.5 -14.5t13.5 -35.5t-13 -36t-35 -15h-1zM226 0v286l-214 388h100l95 -186l35 -71l32 -68h2q14 33 31 67 l37 72l97 186h98l-225 -387v-287h-88z" />
<glyph unicode="&#x179;" horiz-adv-x="553" d="M432 827l-128 -117h-71l93 117h106zM30 51l374 547v3h-342v73h455v-53l-372 -545v-3h377v-73h-492v51z" />
<glyph unicode="&#x17a;" horiz-adv-x="428" d="M357 693l-122 -143h-62l88 143h96zM18 51l219 285l32 38l32 38v2h-263v70h369v-55l-217 -282l-30 -39q-15 -18 -32 -36v-2h283v-70h-393v51z" />
<glyph unicode="&#x17b;" horiz-adv-x="553" d="M280 720q-21 0 -35 15.5t-14 35.5t14.5 35t35.5 15q20 0 34 -15t14 -35t-14 -35.5t-34 -15.5h-1zM30 51l374 547v3h-342v73h455v-53l-372 -545v-3h377v-73h-492v51z" />
<glyph unicode="&#x17c;" horiz-adv-x="428" d="M216 570q-22 0 -36 15.5t-14 36.5t15 36t36 15t35 -15t14 -36t-13.5 -36.5t-35.5 -15.5h-1zM18 51l219 285l32 38l32 38v2h-263v70h369v-55l-217 -282l-30 -39q-15 -18 -32 -36v-2h283v-70h-393v51z" />
<glyph unicode="&#x17d;" horiz-adv-x="553" d="M255 710l-105 114h74l64 -69h2l63 69h71l-102 -114h-67zM30 51l374 547v3h-342v73h455v-53l-372 -545v-3h377v-73h-492v51z" />
<glyph unicode="&#x17e;" horiz-adv-x="428" d="M197 550l-96 143h67l59 -95h2l59 95h66l-94 -143h-63zM18 51l219 285l32 38l32 38v2h-263v70h369v-55l-217 -282l-30 -39q-15 -18 -32 -36v-2h283v-70h-393v51z" />
<glyph unicode="&#x192;" horiz-adv-x="513" d="M111 402h99l6 46q4 37 15.5 74.5t33.5 68.5t56.5 50.5t85.5 19.5q22 -1 39.5 -5t28.5 -10l-16 -64q-11 5 -24 7.5t-28 2.5q-26 0 -44.5 -11.5t-31.5 -30.5t-20 -44t-10 -53l-6 -51h120v-64h-128l-25 -204q-6 -49 -17 -89t-31.5 -68.5t-51 -44.5t-74.5 -16q-25 0 -45 4.5 t-32 12.5l16 62q23 -11 56 -11q46 0 67 40t30 117l22 197h-91v64z" />
<glyph unicode="&#x1fc;" horiz-adv-x="788" d="M595 827l-128 -117h-71l93 117h106zM394 308l-22 194q-3 23 -6.5 53t-5.5 56h-4l-20 -52l-23 -54l-87 -197h168zM-1 0l308 674h421v-73h-286l26 -215h251v-72h-240l30 -241h246v-73h-322l-30 237h-206l-108 -237h-90z" />
<glyph unicode="&#x1fd;" horiz-adv-x="773" d="M653 296q1 18 -4.5 42t-18.5 45t-35.5 35.5t-55.5 14.5t-57 -13.5t-40 -34t-24 -44.5t-9 -45h244zM329 243q-35 1 -71.5 -2.5t-66.5 -15.5t-49 -33.5t-19 -57.5q0 -38 24.5 -59t59.5 -21q48 -1 77 24t40 59q5 18 5 35v71zM409 233q-1 -43 10 -76t32 -55t50 -33.5 t63 -11.5q51 0 81.5 9t50.5 18l16 -62q-29 -15 -70 -24t-89 -9q-63 0 -113 27.5t-71 79.5h-3q-23 -51 -69.5 -79t-109.5 -28q-38 0 -66.5 11.5t-47 31t-28 44t-9.5 51.5q0 85 75 131t216 44v20q0 9 -3.5 27t-15.5 36t-34 31.5t-59 13.5q-35 0 -68.5 -10.5t-55.5 -25.5 l-21 58q32 20 73.5 31.5t77.5 11.5q66 0 103.5 -27.5t52.5 -74.5h2q24 48 67.5 75t101.5 27q55 0 91.5 -23.5t58.5 -58t30.5 -73t8.5 -68.5q0 -11 -0.5 -21.5t-2.5 -17.5h-325zM525 693l-122 -143h-62l88 143h96z" />
<glyph unicode="&#x1fe;" horiz-adv-x="689" d="M499 835l-128 -117h-71l93 117h106zM218 107q25 -23 54.5 -35.5t71.5 -12.5q52 0 93 22.5t69 61t42.5 89.5t14.5 108q0 43 -10.5 87.5t-36.5 87.5h-3zM472 568q-26 22 -57.5 34.5t-69.5 12.5q-55 0 -96 -23.5t-68.5 -62.5t-41.5 -89t-14 -103q0 -56 13 -99t36 -81l2 1z M63 -4l62 87q-42 46 -65.5 110t-23.5 140q0 80 23.5 145t65.5 111t99 71t123 25q95 0 168 -53l59 81l53 -36l-62 -86q42 -46 64.5 -109.5t22.5 -138.5q0 -88 -25 -154.5t-67.5 -110.5t-98 -66.5t-116.5 -22.5q-96 0 -170 54l-63 -86z" />
<glyph unicode="&#x1ff;" horiz-adv-x="549" d="M191 83q18 -15 38 -21.5t43 -6.5q34 0 62.5 14t48.5 39t31 59.5t11 75.5q0 25 -7 57t-27 61l-2 1zM359 400q-34 29 -85 29q-40 0 -68.5 -17t-46.5 -44t-26.5 -60.5t-8.5 -66.5q0 -32 8 -63.5t27 -57.5l2 -1zM277 495q32 0 63.5 -8.5t58.5 -25.5l42 60l39 -27l-43 -62 q35 -35 54.5 -82t19.5 -104q0 -67 -21 -115.5t-54.5 -80t-76 -46.5t-84.5 -15q-34 0 -65.5 8.5t-57.5 25.5l-44 -61l-37 30l42 60q-35 32 -55 79.5t-20 107.5t18.5 107.5t51 80.5t75.5 50.5t93 17.5h1zM411 693l-122 -143h-62l88 143h96z" />
<glyph unicode="&#x218;" horiz-adv-x="493" d="M169 -181q29 5 52 20.5t23 44.5q0 18 -10 34t-24 27l65 14q15 -10 27.5 -29.5t12.5 -44.5q0 -27 -11.5 -47t-30 -32.5t-41.5 -19.5t-46 -8zM65 106q29 -18 69.5 -30.5t85.5 -12.5q67 0 104 31.5t37 82.5q0 47 -29.5 77.5t-97.5 56.5q-83 29 -130.5 74t-47.5 116 q0 39 15.5 72.5t44 58t69 38.5t89.5 14q51 0 88.5 -10t59.5 -22l-24 -72q-16 10 -48.5 21t-78.5 11q-35 0 -59 -9.5t-39 -24t-22 -32.5t-7 -35q0 -23 8 -41t24.5 -33t41.5 -28.5t60 -26.5q43 -17 75 -36t53.5 -42.5t32 -53t10.5 -66.5q0 -39 -14.5 -74t-43.5 -61.5 t-73 -42.5t-104 -16q-24 0 -49 3.5t-48 9.5t-42.5 14t-32.5 17z" />
<glyph unicode="&#x219;" horiz-adv-x="396" d="M119 -181q29 5 52 20.5t23 44.5q0 18 -10 34t-24 27l65 14q15 -10 27.5 -29.5t12.5 -44.5q0 -27 -11.5 -47t-30 -32.5t-41.5 -19.5t-46 -8zM61 90q20 -12 52 -23t65 -11q48 0 70.5 20.5t22.5 51.5q0 32 -20.5 51t-68.5 37q-66 24 -97.5 59t-31.5 78q0 29 11.5 55 t33.5 45.5t52.5 30.5t69.5 11q37 0 67.5 -8.5t50.5 -21.5l-21 -63q-14 8 -39.5 18t-59.5 10q-39 0 -59.5 -19.5t-20.5 -46.5q0 -30 21.5 -47t69.5 -36q63 -23 95 -57t32 -88q0 -65 -47.5 -105.5t-132.5 -40.5q-40 0 -75 9.5t-61 24.5z" />
<glyph unicode="&#x2c6;" d="M180 693l96 -143h-67l-58 94h-2l-58 -94h-66l94 143h61z" />
<glyph unicode="&#x2c7;" d="M120 550l-96 143h67l59 -95h2l59 95h66l-94 -143h-63z" />
<glyph unicode="&#x2d8;" d="M78 682q5 -29 23 -49t49 -20q36 0 53 21.5t19 47.5h52q0 -57 -33.5 -91t-90.5 -34q-33 0 -56.5 10.5t-38.5 28t-22 40t-7 46.5h52z" />
<glyph unicode="&#x2d9;" d="M139 570q-22 0 -36 15.5t-14 36.5t15 36t36 15t35 -15t14 -36t-13.5 -36.5t-35.5 -15.5h-1z" />
<glyph unicode="&#x2da;" horiz-adv-x="400" d="M199 685q-23 0 -36 -16.5t-13 -39.5q0 -20 13.5 -37t36.5 -17q24 0 38 16t14 39t-14 39t-38 16h-1zM202 723q45 0 72 -27t27 -67q0 -39 -28.5 -65.5t-71.5 -26.5q-45 0 -73.5 27t-28.5 65q0 39 27.5 66.5t74.5 27.5h1z" />
<glyph unicode="&#x2db;" d="M180 4l-15 -18q-9 -11 -17.5 -24.5t-14.5 -28.5t-6 -29q0 -23 13.5 -36.5t36.5 -13.5q26 0 46 10l14 -46q-16 -11 -39 -17t-41 -6q-42 0 -68 22t-26 64q0 19 6 37t15 33.5t19.5 29t19.5 23.5h57z" />
<glyph unicode="&#x2dc;" d="M27 567q-2 49 17 76.5t51 27.5q17 0 31 -6.5t31 -15.5q12 -7 22.5 -12t20.5 -5q11 0 18 8.5t9 33.5h47q2 -101 -68 -101q-17 0 -31.5 6.5t-30.5 14.5q-15 9 -24.5 13.5t-18.5 4.5q-12 0 -18 -12t-8 -33h-48z" />
<glyph unicode="&#x2dd;" d="M353 693l-110 -136h-55l79 136h86zM209 693l-110 -136h-55l79 136h86z" />
<glyph unicode="&#x37e;" horiz-adv-x="217" d="M118 323q-27 0 -44 19t-17 47q0 29 17.5 47.5t45.5 18.5t45 -18.5t17 -47.5q0 -28 -17 -47t-46 -19h-1zM30 -123l14 52q7 30 13.5 62.5t11.5 64t7 58.5l97 5q-6 -29 -16.5 -63t-22.5 -66l-22 -60q-11 -28 -20 -46z" />
<glyph unicode="&#x384;" horiz-adv-x="301" d="M226 694l-83 -143h-59l53 143h89z" />
<glyph unicode="&#x385;" horiz-adv-x="346" d="M291 573q-20 0 -32.5 14t-12.5 34t13.5 33.5t33.5 13.5t33 -13.5t13 -33.5t-13 -34t-34 -14h-1zM50 573q-20 0 -33 14t-13 34t14 33.5t34 13.5q19 0 32 -13.5t13 -33.5t-13 -34t-33 -14h-1zM228 710l-49 -157h-48l21 157h76z" />
<glyph unicode="&#x386;" horiz-adv-x="615" d="M409 280l-67 194q-11 33 -18.5 63.5t-15.5 59.5h-3l-15 -60q-8 -31 -18 -62l-66 -195h203zM188 212l-70 -212h-90l229 674h105l230 -674h-93l-72 212h-239zM149 674l-35 -155h-52l8 155h79z" />
<glyph unicode="&#x387;" horiz-adv-x="217" d="M107 251q-28 0 -45.5 19.5t-17.5 47.5q0 30 18 49.5t46 19.5q29 0 46.5 -19t17.5 -50q0 -28 -17.5 -47.5t-46.5 -19.5h-1z" />
<glyph unicode="&#x388;" horiz-adv-x="561" d="M494 316h-261v-243h292v-73h-380v674h365v-73h-277v-213h261v-72zM86 674l-34 -155h-52l7 155h79z" />
<glyph unicode="&#x389;" horiz-adv-x="722" d="M87 674l-35 -155h-52l7 155h80zM233 674v-282h325v282h88v-674h-88v316h-325v-316h-88v674h88z" />
<glyph unicode="&#x38a;" horiz-adv-x="309" d="M233 674v-674h-88v674h88zM86 674l-34 -155h-52l7 155h79z" />
<glyph unicode="&#x38c;" horiz-adv-x="728" d="M384 60q52 0 92 22t67.5 60.5t42 89.5t14.5 108q0 50 -13 99t-40 88t-67.5 63t-94.5 24t-95 -23.5t-68 -62.5t-40.5 -89.5t-13.5 -105.5q0 -53 14.5 -102.5t42 -87.5t67.5 -60.5t91 -22.5h1zM379 -11q-67 0 -123 24.5t-96 69.5t-62 108t-22 140q0 80 23.5 145.5t65 112 t98.5 71.5t125 25q69 0 125.5 -25t96 -70.5t61 -108t21.5 -137.5q0 -87 -24.5 -153t-67 -111t-99.5 -68t-121 -23h-1zM87 674l-35 -155h-52l7 155h80z" />
<glyph unicode="&#x38e;" horiz-adv-x="707" d="M143 680q18 -2 39.5 -8.5t43.5 -18t43.5 -28t38.5 -36.5q38 -43 66 -105t38 -142h4q12 81 46 143t71 102q35 38 77 63t76 30l15 -71q-28 -11 -61 -34t-65 -60t-60 -88t-45 -116q-8 -30 -13 -64.5t-5 -73.5v-173h-88v174q0 38 -3.5 71.5t-10.5 64.5q-15 68 -39 120.5 t-54 89.5t-63 59t-66 30zM86 674l-35 -155h-51l7 155h79z" />
<glyph unicode="&#x38f;" horiz-adv-x="742" d="M87 674l-35 -155h-52l8 155h79zM565 69h146v-69h-253v55q30 20 57.5 49.5t48 67t32.5 82.5t12 97q0 46 -13.5 93t-41 84.5t-68 61.5t-94.5 24q-53 0 -94 -22.5t-69 -60t-42.5 -85t-14.5 -96.5t12 -94.5t32.5 -84t47.5 -68.5t57 -48v-55h-253v69h145v3q-26 21 -49.5 50 t-42 65t-29.5 78.5t-11 91.5q0 72 24 132t66 103.5t99.5 68t124.5 24.5q70 0 126 -25t95.5 -68.5t61 -101.5t21.5 -125q0 -52 -11 -96.5t-30 -81.5t-43 -65.5t-49 -49.5v-3z" />
<glyph unicode="&#x390;" horiz-adv-x="236" d="M161 117q0 -32 9 -46.5t38 -12.5l-5 -64q-7 -2 -17.5 -3.5t-21.5 -1.5q-20 0 -36.5 5t-28.5 18.5t-19 36.5t-7 59v376h88v-367zM245 561q-19 0 -31.5 13.5t-12.5 32.5t13 32.5t33 13.5t32.5 -13t12.5 -33q0 -19 -12.5 -32.5t-33.5 -13.5h-1zM4 561q-20 0 -32.5 13.5 t-12.5 32.5t13.5 32.5t33.5 13.5q19 0 31.5 -13t12.5 -33q0 -19 -12.5 -32.5t-32.5 -13.5h-1zM182 696l-50 -156h-47l22 156h75z" />
<glyph unicode="&#x391;" horiz-adv-x="612" d="M406 280l-67 194q-11 33 -18.5 63.5t-15.5 59.5h-3l-15 -60q-8 -31 -18 -62l-66 -195h203zM185 212l-70 -212h-90l229 674h105l230 -674h-93l-72 212h-239z" />
<glyph unicode="&#x392;" horiz-adv-x="542" d="M163 66q14 -2 32 -3t41 -1q34 0 65 6.5t55 22t38.5 40.5t14.5 62q0 34 -14 58.5t-37.5 40.5t-55 23.5t-67.5 7.5h-72v-257zM163 388h79q69 0 107 32.5t38 81.5q0 59 -40.5 84.5t-106.5 25.5q-30 0 -48 -2t-29 -4v-218zM76 664q29 7 71.5 11t87.5 4q66 0 109.5 -11.5 t74.5 -37.5q26 -20 41.5 -49.5t15.5 -69.5q0 -50 -30.5 -89.5t-83.5 -58.5v-3q24 -6 48.5 -18.5t45 -33.5t33 -50t12.5 -66q0 -44 -16 -77t-42 -58q-67 -63 -232 -63q-45 0 -79 2.5t-56 5.5v662z" />
<glyph unicode="&#x393;" horiz-adv-x="451" d="M437 674v-73h-274v-601h-88v674h362z" />
<glyph unicode="&#x394;" horiz-adv-x="620" d="M494 73l-137 371l-27 76q-14 42 -23 74h-3q-7 -26 -20 -64l-24 -73l-141 -384h375zM26 50l234 624h99l232 -624v-50h-565v50z" />
<glyph unicode="&#xe000;" horiz-adv-x="620" d="M494 73l-137 371l-27 76q-14 42 -23 74h-3q-7 -26 -20 -64l-24 -73l-141 -384h375zM26 50l234 624h99l232 -624v-50h-565v50z" />
<glyph unicode="&#x395;" horiz-adv-x="492" d="M424 316h-261v-243h292v-73h-380v674h365v-73h-277v-213h261v-72z" />
<glyph unicode="&#x396;" horiz-adv-x="553" d="M30 51l374 547v3h-342v73h455v-53l-372 -545v-3h377v-73h-492v51z" />
<glyph unicode="&#x397;" horiz-adv-x="652" d="M163 674v-282h326v282h88v-674h-88v316h-326v-316h-88v674h88z" />
<glyph unicode="&#x398;" horiz-adv-x="689" d="M480 383v-72h-271v72h271zM344 60q52 0 92.5 22t68 60.5t42 89.5t14.5 108q0 50 -13 99t-40 88t-67.5 63t-95.5 24q-54 0 -95 -23.5t-68 -62.5t-40.5 -89.5t-13.5 -105.5q0 -53 14.5 -102.5t42 -87.5t67.5 -60.5t91 -22.5h1zM340 -11q-67 0 -123 24.5t-96 69.5t-62.5 108 t-22.5 140q0 80 23.5 145t65.5 111.5t99 72t125 25.5q69 0 125 -25t96 -70.5t61.5 -108.5t21.5 -138q0 -86 -24.5 -152t-67 -111t-99.5 -68t-121 -23h-1z" />
<glyph unicode="&#x399;" horiz-adv-x="239" d="M163 674v-674h-88v674h88z" />
<glyph unicode="&#x39a;" horiz-adv-x="542" d="M76 674h87v-325h3l27 37l26 35l206 253h108l-244 -286l263 -388h-103l-221 331l-65 -74v-257h-87v674z" />
<glyph unicode="&#x39b;" horiz-adv-x="609" d="M496 0l-156 464q-11 35 -19 66l-16 62h-3q-7 -32 -15 -63t-18 -64l-153 -465h-91l230 674h103l232 -674h-94z" />
<glyph unicode="&#x39c;" horiz-adv-x="804" d="M644 296l-4 73q-2 38 -3.5 76t-2.5 74.5t-1 67.5h-2l-39 -123q-20 -64 -46 -133l-119 -327h-66l-110 321q-24 72 -43.5 137t-33.5 125h-2q-2 -63 -5 -142.5t-8 -155.5l-18 -289h-83l47 674h111l115 -326q21 -63 37.5 -119t30.5 -109h2q14 51 31.5 107.5t40.5 120.5 l120 326h111l42 -674h-86z" />
<glyph unicode="&#x39d;" horiz-adv-x="658" d="M76 0v674h96l215 -341q37 -60 67 -113.5t53 -105.5l3 1q-6 68 -8 133t-2 143v283h82v-674h-88l-214 342l-68 114q-32 56 -57 111l-3 -1q4 -64 5 -129t1 -149v-288h-82z" />
<glyph unicode="&#x39e;" horiz-adv-x="540" d="M505 73v-73h-462v73h462zM461 385v-72h-374v72h374zM494 674v-72h-440v72h440z" />
<glyph unicode="&#x39f;" horiz-adv-x="689" d="M344 60q52 0 92 22t67.5 60.5t42 89.5t14.5 108q0 50 -13 99t-40 88t-67.5 63t-94.5 24t-95 -23.5t-68 -62.5t-40.5 -89.5t-13.5 -105.5q0 -53 14.5 -102.5t42 -87.5t67.5 -60.5t91 -22.5h1zM339 -11q-67 0 -123 24.5t-96 69.5t-62 108t-22 140q0 80 23.5 145.5t65 112 t98.5 71.5t125 25q69 0 125.5 -25t96 -70.5t61 -108t21.5 -137.5q0 -87 -24.5 -153t-67 -111t-99.5 -68t-121 -23h-1z" />
<glyph unicode="&#x3a0;" horiz-adv-x="634" d="M558 0h-88v600h-307v-600h-88v674h483v-674z" />
<glyph unicode="&#x3a1;" horiz-adv-x="532" d="M163 342q27 -7 72 -7q79 0 124 37t45 106q0 67 -43.5 99.5t-115.5 32.5q-29 0 -50 -2t-32 -5v-261zM76 665q32 6 73 10t94 4q127 0 189 -56q28 -24 44 -59.5t16 -80.5q0 -91 -53 -144q-35 -37 -88.5 -55.5t-117.5 -18.5q-20 0 -37.5 1t-32.5 5v-271h-87v665z" />
<glyph unicode="&#x3a3;" horiz-adv-x="552" d="M140 73h384v-73h-498v53l234 282l-222 280v59h454v-73h-341v-3l206 -260l-217 -261v-4z" />
<glyph unicode="&#x3a4;" horiz-adv-x="497" d="M204 600h-205v74h499v-74h-206v-600h-88v600z" />
<glyph unicode="&#x3a5;" horiz-adv-x="588" d="M26 680q18 -2 39.5 -8.5t43.5 -18t43.5 -28t38.5 -36.5q38 -43 66 -105t38 -142h4q12 81 46 143t71 102q35 38 77 63t76 30l15 -71q-28 -11 -61 -34t-65 -60t-60 -88t-45 -116q-8 -30 -13 -64.5t-5 -73.5v-173h-88v174q0 38 -3.5 71.5t-10.5 64.5q-15 68 -39 120.5 t-54 89.5t-63 59t-66 30z" />
<glyph unicode="&#x3a6;" horiz-adv-x="718" d="M401 89q36 3 70.5 20.5t61 48.5t43 75.5t16.5 102.5q0 60 -16.5 105.5t-43.5 76.5t-61 48.5t-70 20.5v-498zM317 587q-33 -3 -66.5 -20t-61.5 -48.5t-45.5 -77.5t-17.5 -106q0 -56 16 -99.5t42.5 -74.5t61 -49.5t71.5 -22.5v498zM400 -26h-84v52q-51 4 -101.5 24.5 t-90 58t-64 93.5t-24.5 131q0 78 26 135.5t67 96.5t91 60t98 25v50h84v-50q52 -4 102.5 -25.5t90 -60.5t63.5 -95.5t24 -131.5t-24 -131t-64 -95t-90.5 -60t-103.5 -25v-52z" />
<glyph unicode="&#x3a7;" horiz-adv-x="571" d="M445 0l-87 149l-44 73l-33 60h-2q-14 -29 -30.5 -59.5t-42.5 -74.5l-81 -148h-100l206 341l-198 333h101l89 -158l33 -60l29 -54h3q14 30 28 56t33 58l91 158h101l-205 -328l210 -346h-101z" />
<glyph unicode="&#x3a8;" horiz-adv-x="685" d="M639 479q0 -66 -19 -115.5t-52.5 -83.5t-80.5 -52.5t-103 -21.5v-206h-83v206q-49 2 -94.5 16.5t-81 44t-57 75.5t-21.5 112v220h85v-205q0 -51 12.5 -87t35 -59.5t53.5 -34.5t68 -13v399h83v-400q33 2 64 14t54.5 37.5t37.5 65t14 97.5v186h85v-195z" />
<glyph unicode="&#x3a9;" horiz-adv-x="705" d="M528 69h146v-69h-252v55q30 21 57 51t47.5 67.5t32.5 82.5t12 96q0 46 -13.5 93t-40.5 84.5t-67.5 61t-94.5 23.5q-53 0 -94.5 -22.5t-69.5 -59.5t-42.5 -84.5t-14.5 -96.5q0 -48 12.5 -93t33 -84t47.5 -69.5t57 -49.5v-55h-254v69h146v3q-26 21 -49.5 50t-42.5 65 t-30 79t-11 92q0 72 24 132t66.5 103.5t100 67.5t124.5 24q70 0 126 -25t95.5 -68t60.5 -101t21 -125q0 -52 -11.5 -96.5t-30 -81.5t-42.5 -66t-49 -50v-3z" />
<glyph unicode="&#x2126;" horiz-adv-x="705" d="M528 69h146v-69h-252v55q30 21 57 51t47.5 67.5t32.5 82.5t12 96q0 46 -13.5 93t-40.5 84.5t-67.5 61t-94.5 23.5q-53 0 -94.5 -22.5t-69.5 -59.5t-42.5 -84.5t-14.5 -96.5q0 -48 12.5 -93t33 -84t47.5 -69.5t57 -49.5v-55h-254v69h146v3q-26 21 -49.5 50t-42.5 65 t-30 79t-11 92q0 72 24 132t66.5 103.5t100 67.5t124.5 24q70 0 126 -25t95.5 -68t60.5 -101t21 -125q0 -52 -11.5 -96.5t-30 -81.5t-42.5 -66t-49 -50v-3z" />
<glyph unicode="&#x3aa;" horiz-adv-x="239" d="M163 674v-674h-88v674h88zM210 711q-21 0 -34.5 15t-13.5 35t14 35t36 15q20 0 34 -14.5t14 -35.5q0 -20 -13 -35t-36 -15h-1zM27 711q-22 0 -35.5 15t-13.5 35t14.5 35t35.5 15q20 0 34 -14.5t14 -35.5q0 -20 -13 -35t-35 -15h-1z" />
<glyph unicode="&#x3ab;" horiz-adv-x="588" d="M26 680q18 -2 39.5 -8.5t43.5 -18t43.5 -28t38.5 -36.5q38 -43 66 -105t38 -142h4q12 81 46 143t71 102q35 38 77 63t76 30l15 -71q-28 -11 -61 -34t-65 -60t-60 -88t-45 -116q-8 -30 -13 -64.5t-5 -73.5v-173h-88v174q0 38 -3.5 71.5t-10.5 64.5q-15 68 -39 120.5 t-54 89.5t-63 59t-66 30zM389 697q-21 0 -34.5 15t-13.5 35t14 35t36 15q20 0 34 -14.5t14 -35.5q0 -20 -13 -35t-36 -15h-1zM206 697q-22 0 -35.5 15t-13.5 35t14.5 35t35.5 15q20 0 34 -14.5t14 -35.5q0 -20 -13 -35t-35 -15h-1z" />
<glyph unicode="&#x3ac;" horiz-adv-x="551" d="M127 234q0 -34 8.5 -65.5t25.5 -56t41 -39t56 -14.5q23 0 44 10t38 27.5t29.5 39.5t18.5 46q4 17 4.5 32.5t0.5 35.5q0 14 -0.5 26.5t-2.5 25.5q-5 24 -15.5 46.5t-27 40t-37.5 27.5t-45 10q-30 0 -55.5 -14.5t-44 -40t-28.5 -60.5t-10 -76v-1zM489 484q-2 -19 -4 -57.5 t-4 -86.5t-3.5 -101t-1.5 -101q0 -44 11 -62.5t37 -19.5l-7 -63q-5 -2 -13.5 -3t-16.5 -1q-32 0 -55.5 23t-27.5 79h-3q-23 -45 -65 -73.5t-100 -28.5q-43 0 -79.5 17.5t-62.5 49t-41 76.5t-15 100q0 60 18 108.5t48 83t69 53t81 18.5q53 0 91.5 -25.5t57.5 -70.5h4 q2 28 4 48t5 37h73zM374 686l-83 -143h-59l54 143h88z" />
<glyph unicode="&#x3ad;" horiz-adv-x="440" d="M158 263q-48 11 -71.5 38.5t-23.5 62.5q0 24 12 47.5t36 42t60.5 30t84.5 11.5q91 0 147 -37l-19 -58q-16 11 -50.5 21t-70.5 10q-51 0 -81.5 -20t-30.5 -53q0 -18 10.5 -31.5t28.5 -22t42.5 -12.5t52.5 -4h59v-62h-61q-33 0 -60.5 -4.5t-48 -14.5t-32 -26t-11.5 -38 q0 -21 10.5 -37.5t28.5 -27.5t41.5 -16.5t50.5 -5.5q40 0 80 11.5t62 24.5l16 -59q-28 -19 -77 -31.5t-100 -12.5q-36 0 -72.5 7.5t-66 25t-47.5 45.5t-18 69q0 45 33 78.5t86 44.5v4zM345 686l-84 -143h-58l53 143h89z" />
<glyph unicode="&#x3ae;" horiz-adv-x="555" d="M154 405q9 17 24 33t35 29t45.5 20.5t55.5 7.5q25 0 55 -9t55.5 -32t43 -63t17.5 -102v-307q0 -21 0.5 -46t1.5 -49.5t3 -47t6 -37.5h-84q-5 11 -7.5 31t-4.5 44.5t-2.5 51t-0.5 50.5v300q0 29 -6 55.5t-19 46t-34.5 31t-52.5 11.5q-43 0 -74.5 -26.5t-43.5 -64.5 q-3 -8 -4.5 -18.5t-1.5 -21.5v-292h-88v353q0 37 -3 71.5t-11 59.5h79q7 -14 10.5 -35t3.5 -44h2zM390 686l-84 -143h-58l53 143h89z" />
<glyph unicode="&#x3af;" horiz-adv-x="236" d="M161 117q0 -32 9 -46.5t38 -12.5l-5 -64q-7 -2 -17.5 -3.5t-21.5 -1.5q-20 0 -36.5 5t-28.5 18.5t-19 36.5t-7 59v376h88v-367zM223 687l-84 -143h-59l53 143h90z" />
<glyph unicode="&#x3b0;" horiz-adv-x="524" d="M442 484q6 -12 12.5 -31.5t11.5 -44.5t8.5 -54t3.5 -59q0 -53 -10 -107.5t-35 -98.5t-67.5 -72t-108.5 -28q-40 0 -74.5 12t-60 36t-40.5 61t-15 87v136q0 64 -2 103.5t-8 59.5h84q7 -8 10.5 -29.5t3.5 -60.5v-197q0 -37 9.5 -62.5t25 -41.5t35 -23.5t39.5 -7.5 q63 0 95.5 60t32.5 165q0 34 -3.5 65.5t-8.5 57.5t-10.5 45.5t-9.5 28.5h82zM381 560q-19 0 -31.5 13.5t-12.5 33.5q0 19 13 32.5t33 13.5t32.5 -13.5t12.5 -33.5q0 -19 -12.5 -32.5t-33.5 -13.5h-1zM139 560q-20 0 -32.5 13.5t-12.5 33.5q0 19 13.5 32.5t33.5 13.5 q19 0 31.5 -13.5t12.5 -33.5q0 -19 -12.5 -32.5t-32.5 -13.5h-1zM317 695l-49 -156h-47l21 156h75z" />
<glyph unicode="&#x3b1;" horiz-adv-x="551" d="M127 234q0 -34 8.5 -65.5t25.5 -56t41 -39t56 -14.5q23 0 44 10t38 27.5t29.5 39.5t18.5 46q4 17 4.5 32.5t0.5 35.5q0 14 -0.5 26.5t-2.5 25.5q-5 24 -15.5 46.5t-27 40t-37.5 27.5t-45 10q-30 0 -55.5 -14.5t-44 -40t-28.5 -60.5t-10 -76v-1zM489 484q-2 -19 -4 -57.5 t-4 -86.5t-3.5 -101t-1.5 -101q0 -44 11 -62.5t37 -19.5l-7 -63q-5 -2 -13.5 -3t-16.5 -1q-32 0 -55.5 23t-27.5 79h-3q-23 -45 -65 -73.5t-100 -28.5q-43 0 -79.5 17.5t-62.5 49t-41 76.5t-15 100q0 60 18 108.5t48 83t69 53t81 18.5q53 0 91.5 -25.5t57.5 -70.5h4 q2 28 4 48t5 37h73z" />
<glyph unicode="&#x3b2;" horiz-adv-x="560" d="M157 137q8 -14 21.5 -28t31.5 -25.5t39.5 -19t47.5 -7.5q30 0 55 10.5t43.5 29.5t28.5 44t10 55q0 36 -12 63.5t-33 46t-49.5 28.5t-61.5 11h-27v60h9q4 0 9 1q28 2 49 13.5t35.5 29t21.5 39.5t7 46q0 54 -28.5 85.5t-73.5 31.5q-60 0 -91.5 -52t-31.5 -156v-306zM157 50 v-67q0 -21 0.5 -46t1.5 -50t3.5 -47.5t6.5 -37.5h-83q-8 24 -11.5 70.5t-3.5 99.5v461q0 52 6.5 90t17 65.5t24 46.5t27.5 33q26 24 60 38.5t82 14.5q37 0 69.5 -12.5t56 -35.5t37 -55t13.5 -71q0 -29 -7.5 -53.5t-20 -44.5t-29 -34.5t-33.5 -22.5v-5q28 -6 55 -20.5 t47.5 -38.5t33 -57t12.5 -75q0 -50 -17.5 -89t-46.5 -65t-66.5 -39.5t-77.5 -13.5q-51 0 -88.5 16t-66.5 45h-2z" />
<glyph unicode="&#x3b3;" horiz-adv-x="464" d="M182 -198q2 70 1 141t-18 143q-14 60 -35.5 119.5t-45.5 112t-48 95.5t-42 71h99q16 -25 37 -66t41.5 -91.5t39 -107t29.5 -111.5h4l36 70q20 41 37.5 87t29 93.5t11.5 92.5v33h83q2 -6 2 -15v-18q0 -47 -13.5 -99t-37 -107t-54.5 -110.5t-66 -108.5q-5 -6 -5.5 -11.5 t-0.5 -12.5q2 -43 2.5 -96t0.5 -104h-87z" />
<glyph unicode="&#x3b4;" horiz-adv-x="546" d="M273 444q-29 -15 -55 -35t-46.5 -46t-32.5 -58.5t-12 -72.5q0 -42 13 -75t34 -55.5t48 -34.5t55 -12q29 0 55 12t45.5 34.5t31 55t11.5 73.5q0 100 -94 172zM440 614q-8 6 -22 13t-31.5 13.5t-37.5 10.5t-41 4q-42 0 -62 -13.5t-20 -31.5q0 -20 18.5 -37.5t53.5 -44.5 l82 -65q60 -46 94 -100.5t34 -126.5q0 -56 -18.5 -102t-50.5 -78t-75 -49.5t-92 -17.5q-47 0 -89 16t-74.5 47t-51.5 76.5t-19 103.5q0 46 15 85t40 70.5t58 55.5t70 42v5l-22 18q-9 7 -19.5 17t-20 23t-16 28t-6.5 32q0 20 10.5 40t31.5 36.5t52.5 26.5t74.5 10 q53 0 96 -15.5t64 -33.5z" />
<glyph unicode="&#x3b5;" horiz-adv-x="440" d="M158 263q-48 11 -71.5 38.5t-23.5 62.5q0 24 12 47.5t36 42t60.5 30t84.5 11.5q93 0 147 -36l-19 -59q-16 11 -50.5 21t-70.5 10q-51 0 -81.5 -20t-30.5 -53q0 -18 10.5 -31.5t28.5 -22t42.5 -12.5t52.5 -4h59v-62h-61q-33 0 -60.5 -4.5t-48 -14.5t-32 -26t-11.5 -38 q0 -21 10.5 -37.5t28.5 -27.5t41.5 -16.5t50.5 -5.5q40 0 80 11.5t62 25.5l16 -60q-28 -19 -77 -31.5t-100 -12.5q-36 0 -72.5 7.5t-66 25t-47.5 45.5t-18 69q0 45 33 79t86 44v4z" />
<glyph unicode="&#x3b6;" horiz-adv-x="409" d="M283 -126q5 9 11 23.5t10.5 30.5t8 31t3.5 25q-26 4 -57 10t-61 17q-33 11 -62 29t-50.5 45t-34 64t-12.5 85q0 52 16.5 107t48 108.5t77 102.5t103.5 89v3h-71q-35 0 -64.5 2t-52.5 7l9 59q24 -3 56 -3.5t66 0.5h167l13 -61q-60 -30 -111 -75.5t-88.5 -99t-58.5 -111.5 t-21 -113q0 -40 9 -69t25.5 -49.5t39.5 -34t50 -23.5q35 -13 70 -19t70 -11q9 -2 9 -11q0 -22 -5.5 -47t-14.5 -49t-19.5 -45t-20.5 -34z" />
<glyph unicode="&#x3b7;" horiz-adv-x="555" d="M154 405q9 17 24 33t35 29t45.5 20.5t55.5 7.5q25 0 55 -9t55.5 -32t43 -63t17.5 -102v-307q0 -21 0.5 -46t1.5 -49.5t3 -47t6 -37.5h-84q-5 11 -7.5 31t-4.5 44.5t-2.5 51t-0.5 50.5v300q0 29 -6 55.5t-19 46t-34.5 31t-52.5 11.5q-43 0 -74.5 -26.5t-43.5 -64.5 q-3 -8 -4.5 -18.5t-1.5 -21.5v-292h-88v353q0 37 -3 71.5t-11 59.5h79q7 -14 10.5 -35t3.5 -44h2z" />
<glyph unicode="&#x3b8;" horiz-adv-x="534" d="M125 334q0 -134 40.5 -207t105.5 -73q35 0 61.5 20.5t44 58t26 88.5t8.5 113h-286zM410 399q0 53 -8.5 100t-26.5 82t-45 55t-63 20q-33 0 -59.5 -21t-45 -56.5t-28 -82t-9.5 -97.5h285zM268 -11q-106 0 -168 93t-62 279q0 76 15.5 142t45 114.5t73 76t100.5 27.5 q58 0 100 -26t70 -73.5t41.5 -113.5t13.5 -147q0 -84 -14 -153t-42 -117.5t-71 -75t-101 -26.5h-1z" />
<glyph unicode="&#x3b9;" horiz-adv-x="236" d="M161 117q0 -32 9 -46.5t38 -12.5l-5 -64q-7 -2 -17.5 -3.5t-21.5 -1.5q-20 0 -36.5 5t-28.5 18.5t-19 36.5t-7 59v376h88v-367z" />
<glyph unicode="&#x3ba;" horiz-adv-x="493" d="M250 260q18 -5 36.5 -18t37.5 -31.5t38 -42.5l37 -47l88 -121h-102l-76 103q-37 48 -71 79.5t-68 32.5h-9v-215h-88v379q0 15 -0.5 30.5t-2 30t-3.5 26.5t-5 18h85q7 -8 10.5 -30t3.5 -52v-133h4q66 62 117 117l95 98h103v-4l-108 -102l-122 -115v-3z" />
<glyph unicode="&#x3bb;" horiz-adv-x="472" d="M266 277q-9 25 -17 50.5t-16 54.5h-4q-5 -24 -14 -50l-17 -52l-100 -280h-91l175 448q5 14 5 24q0 4 -1 10t-5 15q-12 32 -24.5 59.5t-28 48t-33.5 32.5t-40 12h-8q-4 0 -9 -1l8 68q6 2 15.5 3t18.5 1q36 0 63 -16.5t49 -46.5t41 -72t39 -93l185 -492h-93z" />
<glyph unicode="&#x3bc;" horiz-adv-x="553" d="M400 76q-8 -14 -20.5 -29t-29.5 -27.5t-39.5 -20.5t-49.5 -8q-33 0 -61.5 12.5t-44.5 41.5v-60q0 -20 0.5 -45.5t1.5 -51t3.5 -48.5t5.5 -38h-79q-8 23 -11 71.5t-3 106.5v504h88v-286q0 -28 6 -53t19 -43.5t34 -29t50 -10.5q22 0 40.5 7t33 18.5t25 25.5t16.5 29 q8 21 8 46v296h88v-350q0 -41 9.5 -58t36.5 -19l-7 -64q-8 -2 -14 -3t-17 -1q-32 0 -56 19.5t-30 67.5h-3z" />
<glyph unicode="&#x3bd;" horiz-adv-x="469" d="M97 484l93 -271q12 -33 22 -64l19 -63h4l37 73q21 43 40.5 91t33.5 97.5t14 91.5v23q0 11 -1 22h82q3 -15 3 -35q0 -52 -16 -107.5t-41.5 -113t-57.5 -115.5l-65 -113h-83l-177 484h93z" />
<glyph unicode="&#x3be;" horiz-adv-x="433" d="M361 372h-27q-52 0 -90.5 -12t-63.5 -32.5t-37.5 -48.5t-12.5 -59q0 -61 39.5 -96.5t114.5 -55.5q35 -10 68.5 -15t63.5 -10q10 0 10 -11q0 -20 -5.5 -44.5t-14 -49.5t-19.5 -46.5t-21 -34.5l-57 17q5 9 10.5 23.5t10 30.5t8 31.5t3.5 24.5q-50 7 -103.5 20t-97.5 38 t-72.5 66t-28.5 105q0 36 12.5 67.5t33.5 56.5t49.5 43t60.5 27v5q-56 17 -83.5 54t-27.5 87q0 31 13 61t39 54t65 38.5t92 14.5q40 0 71 -7.5t51 -19.5l-18 -61q-15 8 -41 15.5t-58 7.5t-55.5 -9t-39 -24.5t-23.5 -35t-8 -40.5q0 -26 11 -46.5t30 -34.5t44.5 -22t55.5 -9 h48v-63z" />
<glyph unicode="&#x3bf;" horiz-adv-x="549" d="M274 55q31 0 58 14t47 39t31 60t11 76q0 31 -8 63.5t-25.5 59.5t-45 44.5t-66.5 17.5t-67 -16.5t-46 -43t-26.5 -60.5t-8.5 -68q0 -40 10.5 -74t30 -59t46 -39t58.5 -14h1zM270 -11q-49 0 -91 17.5t-73.5 49.5t-49.5 78.5t-18 103.5q0 61 19 108.5t51.5 80.5t76 50.5 t93.5 17.5q52 0 95 -18t73.5 -51t47.5 -78.5t17 -100.5q0 -68 -21.5 -116.5t-55.5 -80t-77 -46.5t-86 -15h-1z" />
<glyph unicode="&#x3c0;" horiz-adv-x="555" d="M453 416v-272q0 -60 4 -92.5t9 -51.5h-84q-7 11 -11.5 44t-4.5 92v280h-158q-2 -48 -7.5 -108t-14.5 -118.5t-21 -109t-25 -80.5h-83q13 36 25 87t21 108t14.5 115t6.5 106q-29 0 -54 -2t-44 -7l-12 52q17 11 48.5 18t90.5 7h376l-9 -68h-67z" />
<glyph unicode="&#x3c1;" horiz-adv-x="563" d="M155 190q0 -20 4 -35q11 -42 47.5 -69.5t83.5 -27.5q35 0 62.5 14t46 39.5t28.5 60t10 75.5q0 36 -9 67.5t-27 55.5t-44 38t-60 14q-26 0 -51.5 -11t-45.5 -34.5t-32.5 -59.5t-12.5 -87v-40zM155 60v-78v-46q0 -25 1 -49.5t2.5 -47t3.5 -37.5h-84q-6 23 -8.5 71t-2.5 105 v224q0 47 5.5 81.5t15.5 60.5t22.5 45t26.5 34q29 30 70.5 51t96.5 21q51 0 92 -18t70 -50.5t44.5 -78t15.5 -99.5q0 -64 -18.5 -112.5t-49.5 -81.5t-71 -49.5t-83 -16.5q-48 0 -86.5 18.5t-60.5 52.5h-2z" />
<glyph unicode="&#x3c2;" horiz-adv-x="417" d="M388 409q-19 8 -39.5 13t-49.5 5q-39 0 -71 -15t-54.5 -40t-34.5 -59t-12 -71q0 -72 35.5 -112t100.5 -60q36 -11 65.5 -16.5t64.5 -10.5q9 -2 9 -14q0 -21 -5.5 -46t-13.5 -49t-18.5 -45t-19.5 -33l-59 18q5 9 10.5 23.5t10.5 30.5t8 31t4 24q-25 4 -51 9.5t-48 11.5 q-38 10 -71.5 29t-58 47.5t-38.5 66.5t-14 87t17 95.5t50.5 83.5t82 59.5t111.5 22.5q32 0 60.5 -5.5t48.5 -16.5z" />
<glyph unicode="&#x3c3;" horiz-adv-x="554" d="M273 55q30 0 55.5 14t45 39.5t30.5 60.5t11 76q0 31 -8 63.5t-25.5 59.5t-44.5 44t-64 17q-38 0 -65 -16.5t-45 -43t-26.5 -60.5t-8.5 -68q0 -40 11 -74t30 -59t45.5 -39t57.5 -14h1zM412 429q43 -30 66.5 -79.5t23.5 -104.5q0 -67 -21 -115t-54 -79.5t-74.5 -46.5 t-82.5 -15q-49 0 -91 17t-73.5 49.5t-49.5 78.5t-18 104q0 61 18.5 108.5t51.5 80.5t78.5 50.5t100.5 17.5h93h53h28h32h29h20l-3 -66q-17 0 -45.5 0.5t-81.5 3.5v-4z" />
<glyph unicode="&#x3c4;" horiz-adv-x="413" d="M317 -2q-7 -5 -20.5 -7t-27.5 -2q-59 0 -85.5 36.5t-26.5 113.5v277h-53q-38 0 -60 -2.5t-38 -5.5l-11 51q12 9 41.5 17t89.5 8h279l-11 -68h-149v-275q0 -25 4.5 -41t12 -25t17.5 -12.5t21 -3.5q16 0 21 1z" />
<glyph unicode="&#x3c5;" horiz-adv-x="524" d="M442 484q6 -12 12.5 -31.5t11.5 -44.5t8.5 -54t3.5 -59q0 -53 -10 -107.5t-35 -98.5t-67.5 -72t-108.5 -28q-40 0 -74.5 12t-60 36t-40.5 61t-15 87v136q0 64 -2 103.5t-8 59.5h84q7 -8 10.5 -29.5t3.5 -60.5v-197q0 -37 9.5 -62.5t25 -41.5t35 -23.5t39.5 -7.5 q63 0 95.5 60t32.5 165q0 34 -3.5 65.5t-8.5 57.5t-10.5 45.5t-9.5 28.5h82z" />
<glyph unicode="&#x3c6;" horiz-adv-x="642" d="M363 53q72 10 114 62.5t42 137.5q0 37 -10 69.5t-26 56.5t-36.5 37.5t-41.5 13.5q-19 0 -30.5 -16.5t-11.5 -51.5v-309zM238 450q-19 -12 -39 -30.5t-36 -44t-26.5 -57.5t-10.5 -71q0 -36 9.5 -68.5t29 -58t49 -43t68.5 -23.5v294q0 39 10 67t27 45.5t39.5 25.5t47.5 8 q36 0 71 -17t63 -47.5t45.5 -75t17.5 -99.5q0 -63 -20.5 -110.5t-54 -80.5t-76.5 -51.5t-89 -22.5v-188h-81v188q-45 3 -89 19.5t-78.5 47t-55.5 77.5t-21 112q0 52 16.5 94.5t41.5 74t54.5 52.5t54.5 32z" />
<glyph unicode="&#x3c7;" horiz-adv-x="457" d="M112 484l123 -261h4l23 49l27 58l73 154h85l-170 -327l176 -348l-82 -22l-144 297l-4 -1l-21 -48q-11 -26 -25 -55l-91 -193l-75 23l173 346l-166 328h94z" />
<glyph unicode="&#x3c8;" horiz-adv-x="655" d="M295 -11q-47 3 -88 16.5t-72.5 42t-49.5 75.5t-18 118v131q0 33 -1.5 63.5t-6.5 48.5h80q6 -8 9.5 -30t3.5 -60v-146q0 -53 11.5 -89.5t31.5 -59.5t45.5 -33.5t54.5 -12.5v558h81v-558q33 1 60 18.5t47 47.5t31 72.5t11 94.5q0 76 -13 129.5t-23 68.5h81q15 -23 27 -73 t12 -118q0 -54 -12 -107t-40 -95.5t-72.5 -70.5t-108.5 -31v-187h-81v187z" />
<glyph unicode="&#x3c9;" horiz-adv-x="694" d="M386 172q0 -47 23.5 -78.5t59.5 -31.5q19 0 37 12t32 36.5t23 61t9 85.5q0 36 -6 70t-16.5 64t-25 55t-32.5 42v2h83q16 -14 31 -36.5t26.5 -53t18.5 -67t7 -78.5q0 -68 -15.5 -118t-41 -83t-58.5 -49t-67 -16q-45 0 -78.5 23t-48.5 62h-3q-18 -39 -51 -62t-78 -23 q-32 0 -63.5 14.5t-56.5 45.5t-41 80t-16 118q0 41 7 78t19 68.5t27 56t31 40.5h82v-2q-34 -37 -57 -99t-23 -140q0 -51 9.5 -86.5t24.5 -58t33.5 -32.5t35.5 -10t31.5 8.5t25.5 23.5t17 34.5t6 42.5l-1 192h82z" />
<glyph unicode="&#x3ca;" horiz-adv-x="236" d="M161 117q0 -32 9 -46.5t38 -12.5l-5 -64q-7 -2 -17.5 -3.5t-21.5 -1.5q-20 0 -36.5 5t-28.5 18.5t-19 37t-7 59.5v375h88v-367zM211 557q-21 0 -34.5 15.5t-13.5 35.5t14 35t36 15q20 0 34 -14.5t14 -35.5q0 -20 -13 -35.5t-36 -15.5h-1zM28 557q-22 0 -35.5 15.5 t-13.5 35.5t14.5 35t35.5 15q20 0 34 -14.5t14 -35.5q0 -20 -13 -35.5t-35 -15.5h-1z" />
<glyph unicode="&#x3cb;" horiz-adv-x="524" d="M442 484q6 -12 12.5 -31.5t11.5 -44.5t8.5 -54t3.5 -59q0 -53 -10 -107.5t-35 -98.5t-67.5 -72t-108.5 -28q-40 0 -74.5 12t-60 36t-40.5 61t-15 87v136q0 64 -2 103.5t-8 59.5h84q7 -8 10.5 -29.5t3.5 -60.5v-197q0 -37 9.5 -62.5t25 -41.5t35.5 -23.5t40 -7.5 q63 0 95.5 60t32.5 165q0 34 -3.5 65.5t-8.5 57.5t-11 45.5t-10 28.5h82zM348 557q-21 0 -34.5 15.5t-13.5 35.5t14 35t36 15q20 0 33.5 -14.5t13.5 -35.5q0 -20 -12.5 -35.5t-35.5 -15.5h-1zM165 557q-22 0 -35.5 15.5t-13.5 35.5t14.5 35t35.5 15q20 0 34 -14.5t14 -35.5 q0 -20 -13 -35.5t-35 -15.5h-1z" />
<glyph unicode="&#x3cc;" horiz-adv-x="549" d="M274 55q31 0 58 14t47 39t31 60t11 76q0 31 -8 63.5t-25.5 59.5t-45 44.5t-66.5 17.5t-67 -16.5t-46 -43t-26.5 -60.5t-8.5 -68q0 -40 10.5 -74t30 -59t46 -39t58.5 -14h1zM270 -11q-49 0 -91 17.5t-73.5 49.5t-49.5 78.5t-18 103.5q0 61 19 108.5t51.5 80.5t76 50.5 t93.5 17.5q52 0 95 -18t73.5 -51t47.5 -78.5t17 -100.5q0 -68 -21.5 -116.5t-55.5 -80t-77 -46.5t-86 -15h-1zM377 686l-83 -143h-58l53 143h88z" />
<glyph unicode="&#x3cd;" horiz-adv-x="524" d="M442 484q6 -12 12.5 -31.5t11.5 -44.5t8.5 -54t3.5 -59q0 -53 -10 -107.5t-35 -98.5t-67.5 -72t-108.5 -28q-40 0 -74.5 12t-60 36t-40.5 61t-15 87v136q0 64 -2 103.5t-8 59.5h84q7 -8 10.5 -29.5t3.5 -60.5v-197q0 -37 9.5 -62.5t25 -41.5t35 -23.5t39.5 -7.5 q63 0 95.5 60t32.5 165q0 34 -3.5 65.5t-8.5 57.5t-10.5 45.5t-9.5 28.5h82zM361 687l-83 -143h-59l53 143h89z" />
<glyph unicode="&#x3ce;" horiz-adv-x="694" d="M386 172q0 -47 23.5 -78.5t59.5 -31.5q19 0 37 12t32 36.5t23 61t9 85.5q0 36 -6 70t-16.5 64t-25 55t-32.5 42v2h83q16 -14 31 -36.5t26.5 -53t18.5 -67t7 -78.5q0 -68 -15.5 -118t-41 -83t-58.5 -49t-67 -16q-45 0 -78.5 23t-48.5 62h-3q-18 -39 -51 -62t-78 -23 q-32 0 -63.5 14.5t-56.5 45.5t-41 80t-16 118q0 41 7 78t19 68.5t27 56t31 40.5h82v-2q-34 -37 -57 -99t-23 -140q0 -51 9.5 -86.5t24.5 -58t33.5 -32.5t35.5 -10t31.5 8.5t25.5 23.5t17 34.5t6 42.5l-1 192h82zM449 686l-83 -143h-58l53 143h88z" />
<glyph unicode="&#x401;" horiz-adv-x="492" d="M347 721q-21 0 -34.5 15t-13.5 36q0 20 14 35t36 15q21 0 34.5 -14.5t13.5 -35.5t-13 -36t-36 -15h-1zM162 721q-21 0 -34.5 15t-13.5 36q0 20 14 35t35 15t34.5 -14.5t13.5 -35.5t-13 -36t-35 -15h-1zM424 316h-261v-243h292v-73h-380v674h365v-73h-277v-213h261v-72z " />
<glyph unicode="&#x402;" horiz-adv-x="665" d="M517 674v-73h-244v-192h3q24 16 59.5 28.5t75.5 12.5q55 0 95 -22.5t67 -61.5q29 -39 40.5 -88t11.5 -100q0 -78 -24 -140.5t-69 -100.5q-32 -35 -69 -53t-71 -23l-15 68q29 8 58.5 24.5t51.5 45.5t34.5 72t12.5 99q0 45 -8.5 82.5t-26.5 63.5q-19 29 -46.5 45t-65.5 16 q-33 0 -62 -11t-52 -28v-338h-88v601h-186v73h518z" />
<glyph unicode="&#x403;" horiz-adv-x="433" d="M390 827l-128 -117h-71l93 117h106zM434 674v-73h-271v-601h-88v674h359z" />
<glyph unicode="&#x404;" horiz-adv-x="576" d="M523 585q-24 12 -58.5 20t-74.5 8q-57 0 -103 -18t-79 -49.5t-53 -74.5t-25 -92h346v-69h-345q1 -51 20 -96.5t52 -79t79.5 -53t104.5 -19.5q39 0 75 7t66 20l15 -67q-25 -13 -68.5 -23t-103.5 -10q-72 0 -133 23.5t-105.5 68t-70 109t-25.5 146.5q0 71 24 134.5t69 111 t110 75.5t147 28q64 0 101.5 -11t55.5 -21z" />
<glyph unicode="&#x405;" horiz-adv-x="493" d="M65 106q29 -18 69.5 -30.5t85.5 -12.5q67 0 104 31.5t37 82.5q0 47 -29.5 77.5t-97.5 56.5q-83 29 -130.5 74t-47.5 116q0 39 15.5 72.5t44 58t69 38.5t89.5 14q51 0 88.5 -10t59.5 -22l-24 -72q-16 10 -48.5 21t-78.5 11q-35 0 -59 -9.5t-39 -24t-22 -32.5t-7 -35 q0 -23 8 -41t24.5 -33t41.5 -28.5t60 -26.5q43 -17 75 -36t53.5 -42.5t32 -53t10.5 -66.5q0 -39 -14.5 -74t-43.5 -61.5t-73 -42.5t-104 -16q-24 0 -49 3.5t-48 9.5t-42.5 14t-32.5 17z" />
<glyph unicode="&#x406;" horiz-adv-x="239" d="M163 674v-674h-88v674h88z" />
<glyph unicode="&#x407;" horiz-adv-x="239" d="M212 721q-21 0 -34.5 15t-13.5 36q0 20 14 35t36 15q21 0 34.5 -14.5t13.5 -35.5t-13 -36t-36 -15h-1zM27 721q-21 0 -34.5 15t-13.5 36q0 20 14 35t35 15t34.5 -14.5t13.5 -35.5t-13 -36t-35 -15h-1zM163 674v-674h-88v674h88z" />
<glyph unicode="&#x408;" horiz-adv-x="370" d="M213 674h88v-451q0 -67 -15.5 -112t-43 -72t-65 -38.5t-80.5 -11.5q-25 0 -51 4.5t-42 11.5l12 71q14 -5 32.5 -9t41.5 -4q29 0 52 7.5t38.5 26.5t24 51t8.5 82v444z" />
<glyph unicode="&#x409;" horiz-adv-x="881" d="M501 66q16 -2 32.5 -3t37.5 -1q36 0 69 9t57.5 28t39 47.5t14.5 66.5q0 39 -15 66.5t-40 45t-57.5 25t-68.5 7.5q-15 0 -33.5 -1t-35.5 -3v-287zM501 674v-254q16 2 40.5 3.5t41.5 1.5q51 0 97.5 -12t82.5 -37t57.5 -65t21.5 -95q0 -48 -15 -84.5t-41 -62.5 q-42 -41 -104.5 -58t-132.5 -17q-46 0 -79.5 2.5t-55.5 5.5v599h-205v-204q0 -55 -2.5 -111t-12.5 -106.5t-30.5 -91t-55.5 -64.5q-19 -12 -46.5 -22t-54.5 -10l-13 70q20 4 40 14.5t32 22.5q20 19 31.5 52t17.5 72.5t7.5 83t1.5 84.5v283h377z" />
<glyph unicode="&#x40a;" horiz-adv-x="897" d="M517 67q16 -3 32.5 -4t38.5 -1q36 0 68 8.5t57 27t39.5 46.5t14.5 67q0 37 -14.5 63t-38.5 42.5t-56 24t-66 7.5q-23 0 -42 -1t-33 -3v-277zM163 674v-269h267v269h87v-263q16 2 41 3.5t52 1.5q49 0 94 -11.5t79 -36t54.5 -63t20.5 -91.5q0 -48 -15 -84t-41 -62 q-42 -42 -102.5 -58t-132.5 -16q-48 0 -81.5 2.5t-55.5 5.5v329h-267v-331h-88v674h88z" />
<glyph unicode="&#x40b;" horiz-adv-x="675" d="M506 674v-73h-235v-193h2q29 17 69.5 31.5t83.5 14.5q42 0 72.5 -12.5t52.5 -34.5q53 -54 53 -157v-250h-88v239q0 38 -7.5 64t-24.5 46q-16 16 -36.5 24.5t-49.5 8.5q-32 0 -67.5 -12.5t-59.5 -30.5v-339h-88v601h-184v73h507z" />
<glyph unicode="&#x40c;" horiz-adv-x="542" d="M425 822l-128 -117h-71l93 117h106zM163 674v-299h27l231 299h104l-255 -309q42 -6 72 -21t51.5 -37.5t37 -52t28.5 -63.5q20 -52 36 -99t38 -92h-93q-19 35 -34 77l-28 82q-12 33 -26.5 61t-36 47.5t-51.5 30.5t-73 11h-28v-309h-87v674h87z" />
<glyph unicode="&#x40e;" horiz-adv-x="521" d="M201 817q1 -12 4.5 -23t10 -19.5t17.5 -14t29 -5.5q34 0 46 18.5t15 43.5h67q-4 -51 -35 -79.5t-95 -28.5q-62 0 -92 29t-34 79h67zM102 674l133 -289l25 -59l24 -59h2q10 26 19.5 55.5t22.5 65.5l105 286h92l-141 -348l-29 -69l-31 -69q-15 -34 -31.5 -64t-34.5 -53 q-65 -83 -152 -83q-33 0 -49 6l8 71q10 -3 32 -3q26 0 47 11t37.5 28.5t28.5 37.5t20 38q5 11 4 20t-7 21l-224 456h99z" />
<glyph unicode="&#x40f;" horiz-adv-x="635" d="M163 674v-601h310v601h88v-674h-199l-8 -174h-72l-7 174h-200v674h88z" />
<glyph unicode="&#x410;" horiz-adv-x="612" d="M406 280l-67 194q-11 33 -18.5 63.5t-15.5 59.5h-3l-15 -60q-8 -31 -18 -62l-66 -195h203zM185 212l-70 -212h-90l229 674h105l230 -674h-93l-72 212h-239z" />
<glyph unicode="&#x411;" horiz-adv-x="546" d="M163 67q15 -3 32.5 -4t40.5 -1q41 0 79 13t63 39q17 18 27 42.5t10 56.5q0 39 -15 66t-40 44q-26 18 -59 26t-69 8q-14 0 -33 -1t-36 -3v-286zM454 674v-73h-291v-181q16 2 41 3.5t42 1.5q48 0 93.5 -11t80.5 -34q38 -25 62 -65t24 -99q0 -48 -15 -84.5t-41 -62.5 q-42 -41 -105.5 -58t-132.5 -17q-46 0 -80 2.5t-56 5.5v672h378z" />
<glyph unicode="&#x412;" horiz-adv-x="542" d="M163 66q14 -2 32 -3t41 -1q34 0 65 6.5t55 22t38.5 40.5t14.5 62q0 34 -14 58.5t-37.5 40.5t-55 23.5t-67.5 7.5h-72v-257zM163 388h79q69 0 107 32.5t38 81.5q0 59 -40.5 84.5t-106.5 25.5q-30 0 -48 -2t-29 -4v-218zM76 664q29 7 71.5 11t87.5 4q66 0 109.5 -11.5 t74.5 -37.5q26 -20 41.5 -49.5t15.5 -69.5q0 -50 -30.5 -89.5t-83.5 -58.5v-3q24 -6 48.5 -18.5t45 -33.5t33 -50t12.5 -66q0 -44 -16 -77t-42 -58q-67 -63 -232 -63q-45 0 -79 2.5t-56 5.5v662z" />
<glyph unicode="&#x413;" horiz-adv-x="433" d="M434 674v-73h-271v-601h-88v674h359z" />
<glyph unicode="&#x414;" horiz-adv-x="630" d="M241 475q0 -82 -8 -150t-26 -125q-11 -35 -26 -68t-29 -60h297v529h-208v-126zM537 674v-603l59 -2l-6 -231h-68l-6 162h-425l-6 -162h-68l-6 231l51 2q19 35 36.5 71.5t29.5 76.5q17 59 24.5 127.5t7.5 155.5v172h377z" />
<glyph unicode="&#x415;" horiz-adv-x="492" d="M424 316h-261v-243h292v-73h-380v674h365v-73h-277v-213h261v-72z" />
<glyph unicode="&#x416;" horiz-adv-x="801" d="M123 674l209 -299h27v299h84v-299h27l209 299h101l-239 -310q40 -4 68.5 -18t50 -36.5t36.5 -52.5t28 -66q17 -48 31 -96t35 -95h-89q-17 34 -30 78t-25 80q-12 34 -25.5 62t-32.5 48t-47 30.5t-68 10.5h-30v-309h-84v309h-31q-41 0 -68.5 -10.5t-46.5 -30.5t-32.5 -48 t-25.5 -62q-13 -36 -25.5 -80t-29.5 -78h-89q22 47 36.5 94.5t31.5 95.5q13 36 28 66t36 52.5t49.5 36.5t67.5 19l-238 310h101z" />
<glyph unicode="&#x417;" horiz-adv-x="492" d="M50 634q35 23 78.5 37t99.5 14q44 0 80.5 -11t62.5 -32.5t40.5 -52t14.5 -69.5q0 -31 -10.5 -58t-29.5 -48.5t-44 -36.5t-54 -22v-2q35 -4 65 -17t52 -34.5t34.5 -51t12.5 -65.5q0 -53 -21 -90t-55.5 -60.5t-78.5 -34.5t-90 -11t-91.5 10.5t-84.5 33.5l23 68 q28 -16 69 -28.5t83 -12.5q75 0 114.5 36t39.5 92q0 37 -16.5 62t-43 40t-59 21t-65.5 6h-40v67h40q33 0 62 9.5t50.5 26.5t34 39.5t12.5 48.5q0 52 -33.5 79t-87.5 27q-38 0 -75 -13.5t-65 -30.5z" />
<glyph unicode="&#x418;" horiz-adv-x="658" d="M158 674v-284q0 -80 -1.5 -148.5t-6.5 -136.5l3 -1q25 54 56 108l68 115l218 347h87v-674h-82v287q0 82 1.5 146t6.5 128l-3 1q-25 -56 -57 -113l-68 -114l-211 -335h-93v674h82z" />
<glyph unicode="&#x419;" horiz-adv-x="658" d="M268 816q1 -12 4.5 -23t10 -19.5t17.5 -14t29 -5.5q34 0 46 18.5t15 43.5h67q-4 -51 -35 -79.5t-95 -28.5q-62 0 -92 29t-34 79h67zM158 674v-284q0 -80 -1.5 -148.5t-6.5 -136.5l3 -1q25 54 56 108l68 115l218 347h87v-674h-82v287q0 82 1.5 146t6.5 128l-3 1 q-25 -56 -57 -113l-68 -114l-211 -335h-93v674h82z" />
<glyph unicode="&#x41a;" horiz-adv-x="542" d="M163 674v-299h27l231 299h104l-255 -309q42 -6 72 -21t51.5 -37.5t37 -52t28.5 -63.5q20 -52 36 -99t38 -92h-93q-19 35 -34 77l-28 82q-12 33 -26.5 61t-36 47.5t-51.5 30.5t-73 11h-28v-309h-87v674h87z" />
<glyph unicode="&#x41b;" horiz-adv-x="594" d="M519 674v-674h-88v601h-222v-204q0 -55 -2.5 -111t-12.5 -106.5t-30.5 -91t-55.5 -64.5q-19 -12 -47 -22t-57 -10l-11 70q20 3 39.5 13.5t31.5 22.5q20 19 32 52t18 73t7.5 83t1.5 84v284h396z" />
<glyph unicode="&#x41c;" horiz-adv-x="804" d="M644 296l-4 73q-2 38 -3.5 76t-2.5 74.5t-1 67.5h-2l-39 -123q-20 -64 -46 -133l-119 -327h-66l-110 321q-24 72 -43.5 137t-33.5 125h-2q-2 -63 -5 -142.5t-8 -155.5l-18 -289h-83l47 674h111l115 -326q21 -63 37.5 -119t30.5 -109h2q14 51 31.5 107.5t40.5 120.5 l120 326h111l42 -674h-86z" />
<glyph unicode="&#x41d;" horiz-adv-x="652" d="M163 674v-282h326v282h88v-674h-88v316h-326v-316h-88v674h88z" />
<glyph unicode="&#x41e;" horiz-adv-x="689" d="M344 60q52 0 92 22t67.5 60.5t42 89.5t14.5 108q0 50 -13 99t-40 88t-67.5 63t-94.5 24t-95 -23.5t-68 -62.5t-40.5 -89.5t-13.5 -105.5q0 -53 14.5 -102.5t42 -87.5t67.5 -60.5t91 -22.5h1zM339 -11q-67 0 -123 24.5t-96 69.5t-62 108t-22 140q0 80 23.5 145.5t65 112 t98.5 71.5t125 25q69 0 125.5 -25t96 -70.5t61 -108t21.5 -137.5q0 -87 -24.5 -153t-67 -111t-99.5 -68t-121 -23h-1z" />
<glyph unicode="&#x41f;" horiz-adv-x="639" d="M564 674v-674h-88v601h-313v-601h-88v674h489z" />
<glyph unicode="&#x420;" horiz-adv-x="532" d="M163 342q27 -7 72 -7q79 0 124 37t45 106q0 67 -43.5 99.5t-115.5 32.5q-29 0 -50 -2t-32 -5v-261zM76 665q32 6 73 10t94 4q127 0 189 -56q28 -24 44 -59.5t16 -80.5q0 -91 -53 -144q-35 -37 -88.5 -55.5t-117.5 -18.5q-20 0 -37.5 1t-32.5 5v-271h-87v665z" />
<glyph unicode="&#x421;" horiz-adv-x="580" d="M546 22q-23 -12 -69.5 -22t-108.5 -10q-71 0 -132 22t-105.5 65.5t-69.5 107t-25 146.5q0 79 25.5 144t72 111.5t111.5 72t143 25.5q63 0 103 -10.5t57 -18.5l-22 -72q-24 12 -58.5 20t-76.5 8q-59 0 -107.5 -18.5t-83 -54t-53.5 -87t-19 -117.5q0 -62 17.5 -112 t50.5 -85t81 -54t109 -19q41 0 79 7.5t64 20.5z" />
<glyph unicode="&#x422;" horiz-adv-x="497" d="M204 600h-205v74h499v-74h-206v-600h-88v600z" />
<glyph unicode="&#x423;" horiz-adv-x="521" d="M102 674l133 -289l25 -59l24 -59h2q10 26 19.5 55.5t22.5 65.5l105 286h92l-141 -348l-29 -69l-31 -69q-15 -34 -31.5 -64t-34.5 -53q-65 -83 -152 -83q-33 0 -49 6l8 71q10 -3 32 -3q26 0 47 11t37.5 28.5t28.5 37.5t20 38q5 11 4 20t-7 21l-224 456h99z" />
<glyph unicode="&#x424;" horiz-adv-x="725" d="M405 98q36 3 71 17t62.5 42.5t44 73t16.5 106.5q0 65 -17 110t-44 73.5t-62 42t-71 15.5v-480zM321 578q-33 -2 -67.5 -15t-63 -41.5t-46.5 -74t-18 -111.5q0 -60 16.5 -103.5t44 -72t62.5 -43.5t72 -19v480zM406 701v-61q53 -2 104 -20t90.5 -54.5t64 -93t24.5 -135.5 q0 -80 -24.5 -136t-64.5 -91.5t-91 -53.5t-105 -21v-63h-84v63q-53 3 -104 20t-91 52.5t-64.5 90.5t-24.5 135q0 83 26.5 140t68 93t92 53.5t99.5 20.5v61h84z" />
<glyph unicode="&#x425;" horiz-adv-x="571" d="M445 0l-87 149l-44 73l-33 60h-2q-14 -29 -31 -60l-42 -74l-81 -148h-100l206 341l-198 333h101l89 -158l33 -60l29 -54h3q14 30 28 56t33 58l91 158h101l-205 -328l210 -346h-101z" />
<glyph unicode="&#x426;" horiz-adv-x="652" d="M163 674v-602h309v602h88v-603l59 -2l-6 -231h-69l-5 162h-464v674h88z" />
<glyph unicode="&#x427;" horiz-adv-x="597" d="M158 674v-216q0 -70 35.5 -107.5t106.5 -37.5q36 0 72 11t62 28v322h88v-678h-88v288h-2q-35 -20 -76 -31t-86 -11q-34 0 -69.5 8.5t-64.5 31t-47.5 61.5t-18.5 101v230h88z" />
<glyph unicode="&#x428;" horiz-adv-x="847" d="M162 674v-601h219v601h86v-601h219v601h86v-674h-696v674h86z" />
<glyph unicode="&#x429;" horiz-adv-x="864" d="M162 674v-602h219v602h86v-602h219v602h86v-603l59 -2l-6 -231h-69l-5 162h-675v674h86z" />
<glyph unicode="&#x42a;" horiz-adv-x="631" d="M258 67q14 -3 31 -4t38 -1q37 0 68.5 9t55 28t37 47.5t13.5 66.5q0 39 -14.5 66.5t-39 44.5t-55.5 25t-64 8q-17 0 -35.5 -1t-34.5 -3v-286zM258 674v-252q15 2 38 3.5t43 1.5q49 0 94.5 -12.5t80.5 -38t56.5 -65.5t21.5 -95q0 -47 -14 -82t-38 -61q-42 -44 -104 -61.5 t-131 -17.5q-45 0 -78.5 2.5t-55.5 5.5v599h-173v73h260z" />
<glyph unicode="&#x42b;" horiz-adv-x="746" d="M666 674v-674h-88v674h88zM163 67q14 -3 31 -4t39 -1q36 0 68.5 9t57 28t39 47.5t14.5 66.5q0 39 -15.5 66.5t-41 45t-57.5 25t-66 7.5q-24 0 -42.5 -1.5t-26.5 -2.5v-286zM163 674v-253q15 3 39.5 4.5t41.5 1.5q52 0 99 -12t82.5 -37.5t56.5 -65.5t21 -96q0 -47 -14 -82 t-38 -61q-42 -44 -106.5 -61.5t-133.5 -17.5q-45 0 -79 2.5t-56 5.5v672h87z" />
<glyph unicode="&#x42c;" horiz-adv-x="545" d="M163 67q15 -3 32 -4t40 -1q36 0 69 9t57.5 27.5t39 46.5t14.5 67t-15 67t-39.5 45t-57.5 25t-69 8q-17 0 -35.5 -1t-35.5 -3v-286zM163 674v-252q15 2 40.5 3.5t42.5 1.5q52 0 99 -12t83 -37.5t57 -65t21 -95.5q0 -48 -14 -83t-38 -61q-42 -44 -107 -61.5t-135 -17.5 q-46 0 -80 2.5t-56 5.5v672h87z" />
<glyph unicode="&#x42d;" horiz-adv-x="568" d="M124 380h313q-4 49 -21 91.5t-46 74t-70 49.5t-93 18q-42 0 -77.5 -9.5t-67.5 -23.5l-21 66q36 17 79 28t92 11q79 0 139 -27t100 -74t60 -110.5t20 -136.5q0 -83 -25.5 -148t-69.5 -109.5t-103.5 -67.5t-126.5 -23q-50 0 -95 9t-81 25l19 70q29 -14 68.5 -22.5 t77.5 -8.5q55 0 99.5 19t75.5 52.5t48.5 78.5t19.5 98h-314v70z" />
<glyph unicode="&#x42e;" horiz-adv-x="867" d="M545 59q48 0 84.5 22.5t61.5 60.5t38 89.5t13 108.5q0 51 -12 100t-36 88t-61 63t-87 24t-87.5 -23.5t-62.5 -62.5t-37 -90t-12 -105t13 -103.5t38 -87.5t61.5 -61t84.5 -23h1zM163 674v-290h100q7 70 30 126t60.5 95t87 59.5t109.5 20.5q66 0 118 -25t88 -70.5 t55.5 -108t19.5 -137.5q0 -88 -23 -154.5t-62 -111t-92 -67t-113 -22.5q-61 0 -111.5 22.5t-87 64t-57.5 101t-24 133.5h-98v-310h-88v674h88z" />
<glyph unicode="&#x42f;" horiz-adv-x="543" d="M380 603q-11 3 -32 5.5t-51 2.5q-32 0 -60.5 -6.5t-50.5 -21t-34.5 -38.5t-12.5 -59q0 -30 12.5 -54t35 -40.5t53 -25t66.5 -8.5h42q19 0 32 2v243zM14 0q8 14 15 29t13 32q11 29 20.5 60t20.5 61t25 57t35 48q24 24 57 35v2q-32 5 -59 19t-47 35t-31.5 49t-11.5 63 q0 45 16.5 79t45.5 57q64 53 193 53q43 0 85.5 -4t75.5 -10v-665h-87v292h-65q-31 0 -54.5 -7.5t-41.5 -25.5t-30.5 -44t-22.5 -55t-18.5 -58t-17.5 -53q-5 -13 -10 -24t-12 -25h-94z" />
<glyph unicode="&#x430;" horiz-adv-x="482" d="M328 247q-36 1 -72.5 -3t-66 -15.5t-48 -33.5t-18.5 -57q0 -44 24.5 -64t57.5 -20q48 0 78 25t41 56q4 12 4 28v84zM414 116q0 -32 1.5 -61.5t5.5 -54.5h-79l-8 61h-3q-20 -29 -58 -50.5t-90 -21.5q-37 0 -64.5 12t-46 31.5t-28 44.5t-9.5 51q0 88 75 134.5t216 45.5v10 q0 15 -3.5 34.5t-14.5 37t-33 29t-59 11.5q-35 0 -68 -9.5t-59 -26.5l-20 59q30 19 72 30.5t88 11.5q56 0 92 -17.5t56.5 -45.5t28.5 -63.5t8 -71.5v-181z" />
<glyph unicode="&#x431;" horiz-adv-x="528" d="M401 239q0 29 -6.5 61t-22 58.5t-41.5 43.5t-65 17t-66.5 -18.5t-43.5 -47.5q-24 -44 -24 -102q0 -30 7.5 -64.5t24 -64t42.5 -48.5t62 -19q37 0 62 16t41 42.5t23 59t7 65.5v1zM439 648q-18 -7 -47.5 -12.5t-53.5 -9.5q-59 -9 -102 -30t-71 -61q-23 -33 -36 -77.5 t-17 -82.5h3q24 54 70.5 81.5t98.5 27.5q45 0 82.5 -15.5t65 -46t43 -75t15.5 -102.5q0 -119 -58.5 -187.5t-165.5 -68.5q-64 0 -107 28t-69.5 73.5t-38 104t-11.5 118.5q0 83 18 150t56 118q35 51 86 76.5t123 37.5q30 5 62.5 11.5t57.5 14.5z" />
<glyph unicode="&#x432;" horiz-adv-x="500" d="M154 57q19 -2 34.5 -2.5t35.5 -0.5q22 0 48 3t48.5 12t37 25.5t14.5 43.5q0 26 -12.5 42.5t-33.5 26t-49 13t-59 3.5h-64v-166zM155 280h66q24 0 48 4t42.5 13t30 24t11.5 36q0 72 -130 72q-23 0 -38 -1t-30 -3v-145zM70 479q26 5 69 8t85 3q31 0 68.5 -4t70.5 -16.5 t55 -37t22 -64.5q0 -45 -29.5 -73t-71.5 -37v-2q54 -8 88.5 -37t34.5 -82q0 -48 -26.5 -76t-65.5 -43t-83 -19.5t-80 -4.5q-41 0 -79 2t-58 4v479z" />
<glyph unicode="&#x433;" horiz-adv-x="385" d="M368 484v-70h-210v-414h-88v484h298z" />
<glyph unicode="&#x434;" horiz-adv-x="530" d="M202 338q0 -100 -25 -181q-8 -25 -17.5 -47t-20.5 -43h223v350h-160v-79zM448 484v-418l49 -1l-5 -218h-68l-4 153h-335l-4 -153h-69l-4 218l41 1q31 46 48 99q28 90 28 194v125h323z" />
<glyph unicode="&#x435;" horiz-adv-x="501" d="M380 289q0 21 -5 46t-18.5 46.5t-37 36t-60.5 14.5q-34 0 -58 -14t-40.5 -35t-25 -46t-11.5 -48h256zM123 226q1 -44 14.5 -76t36 -52t52 -29.5t62.5 -9.5q48 0 79 7t55 18l16 -63q-23 -11 -63.5 -21t-98.5 -10q-56 0 -100 17.5t-74.5 50t-47 77.5t-16.5 99 q0 55 16 102.5t45.5 82.5t71.5 55.5t95 20.5q59 0 97.5 -23t61 -57.5t31.5 -74.5t9 -73q0 -26 -3 -41h-339z" />
<glyph unicode="&#x436;" horiz-adv-x="667" d="M114 484l161 -211h17v211h84v-211h17l160 211h101l-191 -220q55 -6 89 -38t56 -90l26 -71q12 -36 27 -65h-88q-12 22 -23 50l-21 61q-23 59 -57 81t-81 22h-15v-214h-84v214h-15q-52 0 -85 -22.5t-55 -81.5l-23 -60q-10 -27 -22 -50h-86q16 29 28 65l26 70q23 59 56.5 91 t88.5 38l-191 220h100z" />
<glyph unicode="&#x437;" horiz-adv-x="431" d="M113 281h42q56 0 90 22.5t34 56.5q0 32 -26 51.5t-68 19.5q-29 0 -60 -9.5t-57 -25.5l-22 55q37 22 78 32.5t83 10.5q28 0 57 -6.5t53 -21.5t39 -39.5t15 -59.5q0 -23 -9.5 -41t-25 -32t-35 -23.5t-39.5 -13.5v-2q27 -3 51 -12t42 -24.5t28.5 -36.5t10.5 -48 q0 -39 -18.5 -66.5t-48 -44.5t-67 -25t-75.5 -8q-42 0 -83.5 10.5t-73.5 28.5l23 60q26 -15 60 -24.5t68 -9.5q55 0 87 23.5t32 59.5q0 24 -12 40t-31.5 25.5t-45 13.5t-52.5 4h-43z" />
<glyph unicode="&#x438;" horiz-adv-x="554" d="M154 484v-204v-53l-2 -47q0 -23 -1.5 -46t-2.5 -49h3l20 40l18 35l19 35l22 39l151 250h103v-484h-84v206v52l2 46q0 23 1 47t3 53h-2l-42 -80q-17 -34 -39 -71l-74 -123l-77 -130h-102v484h84z" />
<glyph unicode="&#x439;" horiz-adv-x="554" d="M212 681q2 -32 18 -54t46 -22q32 0 48 22t20 54h63q-3 -61 -39 -92.5t-94 -31.5q-33 0 -56.5 9.5t-38.5 26.5t-22.5 39.5t-8.5 48.5h64zM154 484v-204v-53l-2 -47q0 -23 -1.5 -46t-2.5 -49h3l20 40l18 35l19 35l22 39l151 250h103v-484h-84v206v52l2 46q0 23 1 47t3 53 h-2l-42 -80q-17 -34 -39 -71l-74 -123l-77 -130h-102v484h84z" />
<glyph unicode="&#x43a;" horiz-adv-x="479" d="M161 484v-210h20l182 210h107l-211 -218q60 -7 97.5 -44.5t66.5 -103.5q10 -24 22 -56.5t29 -61.5h-92q-10 16 -22 42l-23 57q-25 59 -61.5 86.5t-97.5 27.5h-17v-213h-88v484h88z" />
<glyph unicode="&#x43b;" horiz-adv-x="507" d="M437 484v-484h-88v415h-166v-124q0 -102 -14.5 -169.5t-61.5 -98.5q-18 -14 -40 -22t-56 -8l-9 69q13 2 26 7t22 13q34 25 42 76.5t8 133.5v192h337z" />
<glyph unicode="&#x43c;" horiz-adv-x="639" d="M79 484h108l87 -244l11 -31l12 -35l11 -36q6 -17 10 -31h2q4 13 11 33l15 44l16 46q8 23 16 43l77 211h109l34 -484h-84l-11 231q-2 39 -4 83l-4 90h-3l-10 -33q-5 -16 -12 -34l-14 -40l-18 -50l-93 -244h-63l-86 240q-6 17 -12 37l-14 43l-13 43q-6 20 -10 37h-4 q-2 -43 -3.5 -88.5t-3.5 -85.5l-13 -229h-81z" />
<glyph unicode="&#x43d;" horiz-adv-x="546" d="M158 484v-195h229v195h88v-484h-88v219h-229v-219h-88v484h88z" />
<glyph unicode="&#x43e;" horiz-adv-x="549" d="M274 55q31 0 58 14t47 39t31 60t11 76q0 31 -8 63.5t-25.5 59.5t-45 44.5t-66.5 17.5t-67 -16.5t-46 -43t-26.5 -60.5t-8.5 -68q0 -40 10.5 -74t30 -59t46 -39t58.5 -14h1zM270 -11q-49 0 -91 17.5t-73.5 49.5t-49.5 78.5t-18 103.5q0 61 19 108.5t51.5 80.5t76 50.5 t93.5 17.5q52 0 95 -18t73.5 -51t47.5 -78.5t17 -100.5q0 -68 -21.5 -116.5t-55.5 -80t-77 -46.5t-86 -15h-1z" />
<glyph unicode="&#x43f;" horiz-adv-x="541" d="M471 484v-484h-88v415h-225v-415h-88v484h401z" />
<glyph unicode="&#x440;" horiz-adv-x="569" d="M161 197q0 -9 1 -18.5t3 -17.5q11 -46 47.5 -74.5t83.5 -28.5q35 0 62.5 13.5t46 38.5t28.5 59t10 76q0 36 -9.5 69t-27.5 57.5t-44.5 39t-61.5 14.5q-45 0 -83 -29.5t-51 -79.5q-2 -8 -3.5 -17.5t-1.5 -17.5v-84zM73 326q0 47 -1 85t-3 73h79l5 -83h2q26 45 69 69.5 t102 24.5q44 0 82 -18t65.5 -50t43 -77.5t15.5 -100.5q0 -65 -18.5 -114t-49 -81.5t-70.5 -48.5t-82 -16q-49 0 -88 20t-61 56h-2v-263h-88v524z" />
<glyph unicode="&#x441;" horiz-adv-x="448" d="M418 18q-17 -8 -53.5 -18t-85.5 -10q-55 0 -99.5 18t-76 50t-48.5 77.5t-17 101.5t18.5 103t52.5 81.5t82 54t107 19.5q39 0 71.5 -8t50.5 -18l-20 -67q-16 8 -41 15.5t-61 7.5q-42 0 -73.5 -14.5t-53.5 -39.5t-33 -58.5t-11 -70.5q0 -42 12.5 -75.5t35 -57t53.5 -36 t67 -12.5q38 0 63.5 7.5t44.5 15.5z" />
<glyph unicode="&#x442;" horiz-adv-x="411" d="M400 484v-69h-151v-415h-88v415h-151v69h390z" />
<glyph unicode="&#x443;" horiz-adv-x="471" d="M105 484l105 -286q9 -24 17.5 -50.5t14.5 -48.5h2q7 22 14.5 48.5t16.5 52.5l96 284h93l-132 -345q-24 -62 -44.5 -110t-40 -84t-39.5 -62.5t-42 -46.5q-33 -28 -62 -40.5t-46 -15.5l-22 73q17 5 37 15.5t40 27.5q18 14 38 39t36 59q7 16 7 21q0 8 -7 23l-178 446h96z " />
<glyph unicode="&#x444;" horiz-adv-x="641" d="M361 51q36 5 65 21.5t49.5 42t31 58.5t10.5 70t-10.5 70t-31 58t-49.5 41t-65 21v-382zM281 433q-36 -5 -65 -21.5t-49.5 -42t-31 -58.5t-10.5 -70q0 -38 11 -70.5t31 -57.5t49 -41.5t65 -20.5v382zM362 709l-1 -215q53 -4 97.5 -22.5t77 -50t50.5 -76.5t18 -101 q0 -60 -19 -105.5t-51.5 -77t-77 -49t-95.5 -21.5l1 -189h-82l1 188q-53 3 -97.5 21.5t-76.5 50t-50.5 76t-18.5 100.5q0 60 19 106t51.5 77.5t77 49.5t95.5 22l-1 216h82z" />
<glyph unicode="&#x445;" horiz-adv-x="463" d="M114 484l69 -104q14 -20 25 -39l24 -40h3q12 22 24 41l25 39l67 103h96l-165 -234l169 -250h-100l-71 109l-26 41l-26 43h-2l-24 -42l-27 -42l-70 -109h-97l172 247l-164 237h98z" />
<glyph unicode="&#x446;" horiz-adv-x="550" d="M158 484v-415h223v415h88v-418l49 -1l-5 -218h-68l-4 153h-371v484h88z" />
<glyph unicode="&#x447;" horiz-adv-x="515" d="M153 484v-164q0 -46 21 -74t79 -28q29 0 56.5 9t47.5 24v233h88v-490h-88v195h-1q-25 -16 -61 -26t-71 -10q-34 0 -63 9t-50.5 28t-33.5 49t-12 71v174h88z" />
<glyph unicode="&#x448;" horiz-adv-x="738" d="M157 484v-415h169v415h87v-415h168v415h87v-484h-598v484h87z" />
<glyph unicode="&#x449;" horiz-adv-x="749" d="M157 484v-415h169v415h87v-415h168v415h87v-418l49 -1l-5 -218h-68l-4 153h-570v484h87z" />
<glyph unicode="&#x44a;" horiz-adv-x="579" d="M244 62q13 -2 28.5 -3t37.5 -1q27 0 53 5t46.5 16.5t33 31t12.5 48.5q0 31 -13.5 51t-35 32t-48 16.5t-52.5 4.5q-31 0 -62 -6v-195zM245 484v-163q17 3 38.5 4t44.5 1q37 0 75.5 -8t69.5 -27t50.5 -50.5t19.5 -78.5q0 -38 -14 -65t-37 -47q-20 -17 -44.5 -27.5 t-51.5 -16.5t-54.5 -8.5t-54.5 -2.5q-36 0 -69 3l-61 4v413h-143v69h231z" />
<glyph unicode="&#x44b;" horiz-adv-x="665" d="M594 484v-483h-87v483h87zM158 62q23 -4 61 -4q25 0 50 5.5t44.5 17.5t32 31.5t12.5 48.5t-12 48.5t-31 31.5t-43.5 17t-48.5 5q-38 0 -65 -6v-195zM159 484v-164q14 2 34 4t44 2q39 0 76.5 -8.5t67 -28t47.5 -50t18 -75.5q0 -38 -14 -65.5t-37 -47.5q-40 -34 -93 -45 t-101 -11q-36 0 -69 3l-61 4v482h88z" />
<glyph unicode="&#x44c;" horiz-adv-x="498" d="M158 62q13 -2 28.5 -3t36.5 -1q25 0 51.5 4.5t48.5 16.5t36.5 31.5t14.5 49.5q0 31 -15 51.5t-37.5 31.5t-49.5 15.5t-51 4.5q-32 0 -63 -6v-195zM159 484v-163q15 2 37 3.5t42 1.5q41 0 81 -7.5t72 -26t51.5 -50t19.5 -79.5q0 -38 -14 -65t-37 -47q-20 -17 -45.5 -28 t-53 -17t-56 -8.5t-55.5 -2.5q-36 0 -69 3l-61 4v482h88z" />
<glyph unicode="&#x44d;" horiz-adv-x="464" d="M94 277h243q-3 31 -14.5 58t-31.5 47.5t-50.5 32.5t-70.5 12q-38 0 -67 -9t-48 -18l-20 58q32 17 71.5 27t77.5 10q54 0 99 -17t77 -52q32 -32 49 -79t17 -107q0 -53 -17 -99t-50 -79.5t-80.5 -53t-108.5 -19.5q-40 0 -76.5 8.5t-65.5 24.5l17 62q18 -8 48.5 -17t72.5 -9 q73 0 118.5 43t51.5 115h-242v61z" />
<glyph unicode="&#x44e;" horiz-adv-x="705" d="M451 54q33 0 57 16.5t40 43.5t23.5 61t7.5 69q0 34 -8 67t-23.5 59.5t-39.5 42.5t-56 16t-56 -16t-40.5 -42.5t-25 -60.5t-8.5 -71q0 -35 8 -68.5t24 -59.5t40 -41.5t56 -15.5h1zM157 484v-204h83q6 48 23.5 88t45.5 68t64.5 43.5t80.5 15.5q48 0 87 -18t67 -50.5 t43.5 -78.5t15.5 -102q0 -59 -17 -106.5t-46.5 -81t-69 -51.5t-85.5 -18q-44 0 -81 15.5t-64.5 44.5t-44.5 70.5t-21 93.5h-81v-213h-86v484h86z" />
<glyph unicode="&#x44f;" horiz-adv-x="496" d="M339 426q-17 2 -33.5 3.5t-39.5 1.5q-22 0 -45.5 -3.5t-42.5 -13t-31 -26t-12 -41.5q0 -23 13 -39.5t32 -26.5t41.5 -14.5t42.5 -4.5q28 0 44 0.5t31 0.5v163zM426 0h-87v203h-65q-28 0 -47 -7t-33 -20q-14 -11 -24 -27t-17.5 -34.5t-14 -37.5t-13.5 -37l-10 -21 q-5 -10 -10 -19h-94q17 25 30 55q8 18 14.5 38t15 39.5t19.5 37t27 31.5q24 21 55 28v2q-24 3 -47 11.5t-41 23.5t-29 36.5t-11 49.5q0 38 18 63.5t46 41.5q30 17 72.5 25t90.5 8q43 0 83 -3t72 -7v-480z" />
<glyph unicode="&#x451;" horiz-adv-x="501" d="M361 570q-22 0 -35.5 15.5t-13.5 35.5q0 21 14.5 36t35.5 15t35 -14.5t14 -36.5q0 -20 -13.5 -35.5t-35.5 -15.5h-1zM175 570q-21 0 -35 15.5t-14 35.5q0 21 14.5 36t36.5 15q20 0 34 -14.5t14 -36.5q0 -20 -13.5 -35.5t-35.5 -15.5h-1zM380 289q0 21 -5 46t-18.5 46.5 t-37 36t-60.5 14.5q-34 0 -58 -14t-40.5 -35t-25 -46t-11.5 -48h256zM123 226q1 -44 14.5 -76t36 -52t52 -29.5t62.5 -9.5q48 0 79 7t55 18l16 -63q-23 -11 -63.5 -21t-98.5 -10q-56 0 -100 17.5t-74.5 50t-47 77.5t-16.5 99q0 55 16 102.5t45.5 82.5t71.5 55.5t95 20.5 q59 0 97.5 -23t61 -57.5t31.5 -74.5t9 -73q0 -26 -3 -41h-339z" />
<glyph unicode="&#x452;" horiz-adv-x="557" d="M89 625v85h88v-85h226v-63h-226v-141h2q26 29 64 49t83 20t80 -20.5t58 -58.5q29 -42 41 -96.5t12 -114.5q0 -103 -26 -176t-73 -112q-26 -23 -58 -37.5t-67 -18.5l-16 69q29 6 51 16.5t42 33.5q26 30 42.5 85t16.5 134q0 45 -7.5 88.5t-30.5 81.5q-15 25 -38 40t-54 15 q-29 0 -57.5 -16t-49.5 -42q-15 -21 -15 -55v-306h-88v562h-82v63h82z" />
<glyph unicode="&#x453;" horiz-adv-x="385" d="M368 484v-70h-210v-414h-88v484h298zM347 693l-122 -143h-62l88 143h96z" />
<glyph unicode="&#x454;" horiz-adv-x="460" d="M411 400q-17 8 -44.5 17.5t-65.5 9.5q-40 0 -70.5 -12t-52 -32.5t-34 -47.5t-16.5 -58h245v-61h-244q3 -36 16.5 -65t35.5 -50t52 -32t66 -11q39 0 68.5 8.5t47.5 16.5l17 -63q-18 -9 -56.5 -20t-90.5 -11q-59 0 -104.5 19t-77.5 52.5t-48.5 79t-16.5 98.5 q0 58 19.5 105.5t54.5 81t83.5 52t106.5 18.5q45 0 79 -11t51 -21z" />
<glyph unicode="&#x455;" horiz-adv-x="396" d="M61 90q20 -12 52 -23t65 -11q48 0 70.5 20.5t22.5 51.5q0 32 -20.5 51t-68.5 37q-66 24 -97.5 59t-31.5 78q0 29 11.5 55t33.5 45.5t52.5 30.5t69.5 11q37 0 67.5 -8.5t50.5 -21.5l-21 -63q-14 8 -39.5 18t-59.5 10q-39 0 -59.5 -19.5t-20.5 -46.5q0 -30 21.5 -47 t69.5 -36q63 -23 95 -57t32 -88q0 -65 -47.5 -105.5t-132.5 -40.5q-40 0 -75 9.5t-61 24.5z" />
<glyph unicode="&#x456;" horiz-adv-x="234" d="M73 0v484h88v-484h-88zM115 566q-24 0 -38.5 16t-14.5 38q0 23 15 39t40 16q24 0 39 -16t15 -39q0 -22 -14.5 -38t-40.5 -16h-1z" />
<glyph unicode="&#x457;" horiz-adv-x="234" d="M73 0v484h88v-484h-88zM209 570q-22 0 -35.5 15.5t-13.5 35.5q0 21 14.5 36t35.5 15t35 -14.5t14 -36.5q0 -20 -13.5 -35.5t-35.5 -15.5h-1zM23 570q-21 0 -35 15.5t-14 35.5q0 21 14.5 36t36.5 15q20 0 34 -14.5t14 -36.5q0 -20 -13.5 -35.5t-35.5 -15.5h-1z" />
<glyph unicode="&#x458;" horiz-adv-x="243" d="M126 566q-24 0 -38.5 16t-14.5 38q0 23 15 39t40 16t39.5 -16t14.5 -39q0 -22 -14.5 -38t-40.5 -16h-1zM-46 -142q31 2 55.5 11t40.5 26q9 10 15.5 23.5t10.5 34t6 50.5t2 74v407h88v-441q0 -71 -13 -118.5t-45 -80.5q-15 -15 -33.5 -25t-38.5 -17t-40 -10t-38 -3z" />
<glyph unicode="&#x459;" horiz-adv-x="775" d="M436 62q23 -4 65 -4q24 0 50.5 4.5t48.5 16.5t36.5 31.5t14.5 49.5q0 31 -14 51.5t-35.5 31.5t-47 15.5t-48.5 4.5q-41 0 -70 -7v-194zM437 484v-163q15 2 37.5 3.5t41.5 1.5q40 0 80 -8t72 -26.5t51.5 -50t19.5 -79.5q0 -38 -13 -64.5t-35 -45.5q-20 -17 -45.5 -28 t-53.5 -17.5t-57 -9t-55 -2.5q-36 0 -70 3l-61 4v413h-162v-122q0 -103 -17 -170.5t-65 -98.5q-17 -14 -39 -22t-56 -8l-8 68q13 2 26 7t22 13q35 24 45 77t10 134v191h332z" />
<glyph unicode="&#x45a;" horiz-adv-x="782" d="M449 61q13 -1 28 -2t38 -1q24 0 49 4.5t46 16t34.5 30.5t13.5 49t-13 49.5t-33.5 30.5t-46 15.5t-50.5 4.5q-19 0 -35 -1.5t-31 -3.5v-192zM158 484v-180h204v180h88v-169q15 2 38 3.5t44 1.5q37 0 75 -8t69 -26.5t50.5 -49.5t19.5 -76q0 -38 -13.5 -64.5t-35.5 -45.5 q-20 -17 -44.5 -28t-51 -17t-54.5 -8t-54 -2q-36 0 -69.5 2t-61.5 4v235h-204v-236h-88v484h88z" />
<glyph unicode="&#x45b;" horiz-adv-x="571" d="M89 625v85h88v-85h202v-63h-202v-156h2q23 36 60 59q42 25 93 25q76 0 122.5 -52.5t46.5 -153.5v-284h-88v273q0 30 -6 56t-19 45.5t-34.5 31t-52.5 11.5q-45 0 -75.5 -27t-42.5 -61q-3 -9 -4.5 -21t-1.5 -24v-284h-88v562h-82v63h82z" />
<glyph unicode="&#x45c;" horiz-adv-x="479" d="M161 484v-210h20l182 210h107l-211 -218q60 -7 97.5 -44.5t66.5 -103.5q10 -24 22 -56.5t29 -61.5h-92q-10 16 -22 42l-23 57q-25 59 -61.5 86.5t-97.5 27.5h-17v-213h-88v484h88zM377 693l-122 -143h-62l88 143h96z" />
<glyph unicode="&#x45e;" horiz-adv-x="471" d="M170 681q2 -32 18 -54t46 -22q32 0 48 22t20 54h63q-3 -61 -39 -92.5t-94 -31.5q-33 0 -56.5 9.5t-38.5 26.5t-22.5 39.5t-8.5 48.5h64zM105 484l105 -286q9 -24 17.5 -50.5t14.5 -48.5h2q7 22 14.5 48.5t16.5 52.5l96 284h93l-132 -345q-24 -62 -44.5 -110t-40 -84 t-39.5 -62.5t-42 -46.5q-33 -28 -62 -40.5t-46 -15.5l-22 73q17 5 37 15.5t40 27.5q18 14 38 39t36 59q7 16 7 21q0 8 -7 23l-178 446h96z" />
<glyph unicode="&#x45f;" horiz-adv-x="538" d="M158 484v-415h222v415h88v-484h-157l-6 -157h-70l-7 157h-158v484h88z" />
<glyph unicode="&#x490;" horiz-adv-x="447" d="M367 674l16 122h65l-11 -195h-274v-601h-88v674h292z" />
<glyph unicode="&#x491;" horiz-adv-x="392" d="M300 484l12 109h63l-6 -179h-211v-414h-88v484h230z" />
<glyph unicode="&#x4d9;" horiz-adv-x="501" d="M120 195q0 -21 5 -45.5t18.5 -46t37.5 -36t61 -14.5q34 0 58 13.5t40 34.5t24.5 46t11.5 48h-256zM62 463q24 11 64.5 21.5t98.5 10.5q55 0 99 -18t74.5 -50t47 -77.5t16.5 -99.5q0 -55 -15.5 -102.5t-45 -82.5t-71.5 -55t-95 -20q-59 0 -98 23t-61.5 57t-31.5 74t-9 73 q0 27 3 41h339q-1 45 -14 76.5t-35 52t-51.5 30t-63.5 9.5q-47 0 -78 -7.5t-57 -18.5z" />
<glyph unicode="&#x1e80;" horiz-adv-x="846" d="M379 827l93 -116h-71l-128 116h106zM186 0l-171 674h92l80 -341l28 -124q13 -60 22 -109h2q8 51 23 110l32 124l90 340h91l82 -342l27 -119q12 -58 20 -112h2q11 56 24 113l30 120l89 340h89l-191 -674h-91l-85 350q-16 66 -26.5 118t-17.5 103h-2q-8 -51 -20.5 -102.5 t-31.5 -117.5l-96 -351h-91z" />
<glyph unicode="&#x1e81;" horiz-adv-x="736" d="M108 484l65 -245l19 -79q9 -38 16 -76h3q8 37 19 76l24 78l79 246h74l75 -242q14 -43 24.5 -82t18.5 -76h3q6 37 15.5 75.5t21.5 81.5l69 243h87l-156 -484h-80l-74 231q-13 42 -23.5 79.5t-19.5 80.5h-2q-9 -44 -20 -83t-24 -78l-78 -230h-80l-146 484h90zM333 693 l88 -143h-62l-122 143h96z" />
<glyph unicode="&#x1e82;" horiz-adv-x="846" d="M583 827l-128 -117h-71l93 117h106zM186 0l-171 674h92l80 -341l28 -124q13 -60 22 -109h2q8 51 23 110l32 124l90 340h91l82 -342l27 -119q12 -58 20 -112h2q11 56 24 113l30 120l89 340h89l-191 -674h-91l-85 350q-16 66 -26.5 118t-17.5 103h-2q-8 -51 -20.5 -102.5 t-31.5 -117.5l-96 -351h-91z" />
<glyph unicode="&#x1e83;" horiz-adv-x="736" d="M507 693l-122 -143h-62l88 143h96zM108 484l65 -245l19 -79q9 -38 16 -76h3q8 37 19 76l24 78l79 246h74l75 -242q14 -43 24.5 -82t18.5 -76h3q6 37 15.5 75.5t21.5 81.5l69 243h87l-156 -484h-80l-74 231q-13 42 -23.5 79.5t-19.5 80.5h-2q-9 -44 -20 -83t-24 -78 l-78 -230h-80l-146 484h90z" />
<glyph unicode="&#x1e84;" horiz-adv-x="846" d="M519 721q-21 0 -34.5 15t-13.5 36q0 20 14 35t36 15q21 0 34.5 -14.5t13.5 -35.5t-13 -36t-36 -15h-1zM334 721q-21 0 -34.5 15t-13.5 36q0 20 14 35t35 15t34.5 -14.5t13.5 -35.5t-13 -36t-35 -15h-1zM186 0l-171 674h92l80 -341l28 -124q13 -60 22 -109h2q8 51 23 110 l32 124l90 340h91l82 -342l27 -119q12 -58 20 -112h2q11 56 24 113l30 120l89 340h89l-191 -674h-91l-85 350q-16 66 -26.5 118t-17.5 103h-2q-8 -51 -20.5 -102.5t-31.5 -117.5l-96 -351h-91z" />
<glyph unicode="&#x1e85;" horiz-adv-x="736" d="M460 570q-22 0 -35.5 15.5t-13.5 35.5q0 21 14.5 36t35.5 15t35 -14.5t14 -36.5q0 -20 -13.5 -35.5t-35.5 -15.5h-1zM274 570q-21 0 -35 15.5t-14 35.5q0 21 14.5 36t36.5 15q20 0 34 -14.5t14 -36.5q0 -20 -13.5 -35.5t-35.5 -15.5h-1zM108 484l65 -245l19 -79 q9 -38 16 -76h3q8 37 19 76l24 78l79 246h74l75 -242q14 -43 24.5 -82t18.5 -76h3q6 37 15.5 75.5t21.5 81.5l69 243h87l-156 -484h-80l-74 231q-13 42 -23.5 79.5t-19.5 80.5h-2q-9 -44 -20 -83t-24 -78l-78 -230h-80l-146 484h90z" />
<glyph unicode="&#x1ef2;" horiz-adv-x="541" d="M238 820l93 -116h-71l-128 116h106zM226 0v286l-214 388h100l95 -186l35 -71l32 -68h2q14 33 31 67l37 72l97 186h98l-225 -387v-287h-88z" />
<glyph unicode="&#x1ef3;" horiz-adv-x="471" d="M105 484l105 -286q9 -24 17.5 -50.5t14.5 -48.5h2q7 22 14.5 48.5t16.5 52.5l96 284h93l-132 -345q-24 -62 -44.5 -110t-40 -84t-39.5 -62.5t-42 -46.5q-33 -28 -62 -40.5t-46 -15.5l-22 73q17 5 37 15.5t40 27.5q18 14 38 39t36 59q7 16 7 21q0 8 -7 23l-178 446h96z M204 693l88 -143h-62l-122 143h96z" />
<glyph unicode="&#x2000;" horiz-adv-x="440" />
<glyph unicode="&#x2001;" horiz-adv-x="881" />
<glyph unicode="&#x2002;" horiz-adv-x="440" />
<glyph unicode="&#x2003;" horiz-adv-x="881" />
<glyph unicode="&#x2004;" horiz-adv-x="293" />
<glyph unicode="&#x2005;" horiz-adv-x="220" />
<glyph unicode="&#x2006;" horiz-adv-x="146" />
<glyph unicode="&#x2007;" horiz-adv-x="146" />
<glyph unicode="&#x2008;" horiz-adv-x="110" />
<glyph unicode="&#x2009;" horiz-adv-x="176" />
<glyph unicode="&#x200a;" horiz-adv-x="48" />
<glyph unicode="&#x2010;" horiz-adv-x="307" d="M277 302v-64h-247v64h247z" />
<glyph unicode="&#x2011;" horiz-adv-x="307" d="M277 302v-64h-247v64h247z" />
<glyph unicode="&#x2013;" horiz-adv-x="500" d="M470 284v-60h-440v60h440z" />
<glyph unicode="&#x2014;" horiz-adv-x="1000" d="M970 284v-60h-940v60h940z" />
<glyph unicode="&#x2018;" horiz-adv-x="207" d="M35 448q9 31 20.5 66t24.5 67.5t25.5 60t22.5 44.5l56 6q-8 -22 -16.5 -51.5t-16.5 -61t-15 -63t-11 -58.5z" />
<glyph unicode="&#x2019;" horiz-adv-x="207" d="M183 692q-9 -32 -20.5 -66.5t-24.5 -67t-25.5 -60t-22.5 -44.5l-56 -6q8 22 16.5 51.5t16.5 61t15 63t11 58.5z" />
<glyph unicode="&#x201a;" horiz-adv-x="207" d="M170 127q-9 -32 -20.5 -66.5t-24.5 -67t-25.5 -60t-22.5 -44.5l-56 -6q8 22 16.5 51.5t16.5 61t15 63t11 58.5z" />
<glyph unicode="&#x201c;" horiz-adv-x="354" d="M35 448q9 31 20.5 66t24.5 67.5t25.5 60t22.5 44.5l56 6q-8 -22 -16.5 -51.5t-16.5 -61t-15 -63t-11 -58.5zM183 448q9 31 20.5 66t24.5 67.5t25.5 60t22.5 44.5l56 6q-8 -22 -17 -51.5t-17 -61t-14.5 -63t-10.5 -58.5z" />
<glyph unicode="&#x201d;" horiz-adv-x="354" d="M331 692q-9 -32 -20.5 -66.5t-24.5 -67t-25.5 -60t-22.5 -44.5l-56 -6q8 22 16.5 51.5t16.5 61t15 63t11 58.5zM183 692q-9 -32 -20.5 -66.5t-24.5 -67t-25.5 -60t-22.5 -44.5l-56 -6q8 22 17 51.5t17 61t14.5 63t10.5 58.5z" />
<glyph unicode="&#x201e;" horiz-adv-x="356" d="M317 127q-9 -32 -20.5 -66.5t-24.5 -67t-25.5 -60t-22.5 -44.5l-56 -6q8 22 16.5 51.5t16.5 61t15 63t11 58.5zM169 127q-9 -32 -20.5 -66.5t-24.5 -67t-25.5 -60t-22.5 -44.5l-56 -6q8 22 17 51.5t17 61t14.5 63t10.5 58.5z" />
<glyph unicode="&#x2020;" horiz-adv-x="500" d="M291 674l-8 -211l174 7v-72l-174 8l8 -456h-82l8 456l-174 -8v72l174 -7l-8 211h82z" />
<glyph unicode="&#x2021;" horiz-adv-x="500" d="M290 674l-6 -201l173 7v-72l-173 8v-203l173 8v-72l-173 7l6 -206h-81l6 206l-172 -7v72l173 -8v203l-173 -8v72l173 -7l-6 201h80z" />
<glyph unicode="&#x2022;" horiz-adv-x="282" d="M140 157q-21 0 -40 8t-33.5 22.5t-22.5 33.5t-8 41t8 41t22.5 33t33.5 22.5t41 8.5t41 -8t33 -22.5t22.5 -33.5t8.5 -41t-8.5 -41t-22.5 -33.5t-33 -22.5t-41 -8h-1z" />
<glyph unicode="&#x2026;" horiz-adv-x="1000" d="M165 -11q-26 0 -42 18t-16 45t17 45t43 18t42.5 -17.5t16.5 -45.5q0 -27 -16.5 -45t-43.5 -18h-1zM498 -11q-26 0 -42 18t-16 45t17 45t43 18t42.5 -17.5t16.5 -45.5q0 -27 -16.5 -45t-43.5 -18h-1zM831 -11q-26 0 -42 18t-16 45t17 45t43 18t42.5 -17.5t16.5 -45.5 q0 -27 -16.5 -45t-43.5 -18h-1z" />
<glyph unicode="&#x202f;" horiz-adv-x="176" />
<glyph unicode="&#x2030;" horiz-adv-x="1156" d="M972 339q-20 0 -36 -11.5t-26.5 -31.5t-16 -46.5t-5.5 -57.5q-1 -31 4.5 -57.5t16.5 -46t27 -31t37 -11.5q43 0 63.5 41.5t20.5 106.5q0 30 -4.5 56t-14.5 46t-26 31.5t-39 11.5h-1zM977 392q68 0 108.5 -50t40.5 -144q0 -51 -12.5 -89.5t-33.5 -64t-49.5 -38.5 t-59.5 -13t-58.5 12.5t-48 37t-33 61t-12.5 85.5t12.5 86.5t33.5 63.5t49.5 39.5t61.5 13.5h1zM607 339q-20 0 -36 -11.5t-26.5 -31.5t-16 -46.5t-5.5 -57.5q-1 -31 4.5 -57.5t16.5 -46t27 -31t37 -11.5q43 0 63.5 41.5t20.5 106.5q0 30 -4.5 56t-14.5 46t-26 31.5t-39 11.5 h-1zM612 392q68 0 108.5 -50t40.5 -144q0 -51 -12.5 -89.5t-33.5 -64t-49.5 -38.5t-59.5 -13t-58.5 12.5t-48 37t-33 61t-12.5 85.5t12.5 86.5t33.5 63.5t49.5 39.5t61.5 13.5h1zM176 -12l382 674h56l-382 -674h-56zM183 608q-20 0 -36 -11.5t-26.5 -31t-16 -46.5t-5.5 -57 q-1 -31 4.5 -58t16.5 -46.5t27 -30.5t37 -11q44 0 64 41.5t20 105.5q0 30 -4.5 56.5t-14.5 46t-26 31t-39 11.5h-1zM188 661q68 0 108.5 -50t40.5 -143q0 -51 -12.5 -89.5t-33.5 -64t-49.5 -38.5t-59.5 -13t-58.5 12t-48 36.5t-33 61t-12.5 85.5t12.5 86.5t33.5 63.5 t49.5 39.5t61.5 13.5h1z" />
<glyph unicode="&#x2039;" horiz-adv-x="255" d="M99 252l134 -184h-71l-133 184l132 184h71z" />
<glyph unicode="&#x203a;" horiz-adv-x="255" d="M23 436h71l133 -184l-133 -184h-70l133 184z" />
<glyph unicode="&#x2044;" horiz-adv-x="418" d="M-9 -11l380 672h56l-380 -672h-56z" />
<glyph unicode="&#x2215;" horiz-adv-x="418" d="M-9 -11l380 672h56l-380 -672h-56z" />
<glyph unicode="&#x205f;" horiz-adv-x="220" />
<glyph unicode="&#x2070;" horiz-adv-x="336" d="M168 490q37 0 56 39t19 111q0 70 -18.5 108.5t-56.5 38.5q-34 0 -54.5 -38.5t-20.5 -108.5q0 -72 20 -111t54 -39h1zM165 439q-66 0 -104 52.5t-38 146.5q0 93 39.5 146.5t107.5 53.5q69 0 106 -53t37 -144t-37 -146.5t-110 -55.5h-1z" />
<glyph unicode="&#x2074;" horiz-adv-x="347" d="M205 710q0 17 1 33l2 31h-2l-17 -31q-8 -14 -17 -28l-87 -119l1 -1h119v115zM205 444v101h-189v41l177 247h79v-238h55v-50h-55v-101h-67z" />
<glyph unicode="&#x2075;" horiz-adv-x="308" d="M268 776h-155l-13 -85q6 1 13.5 1.5t17.5 0.5q25 0 49 -5t44 -17q23 -13 39 -38t16 -62q0 -29 -11.5 -53.5t-31.5 -42t-49 -27.5t-63 -10q-33 0 -61.5 7.5t-43.5 16.5l14 49q13 -7 36.5 -14t52.5 -7q17 0 33 5t28 15t19.5 23.5t7.5 31.5q0 35 -26 57t-87 22 q-17 0 -31.5 -1t-25.5 -3l26 191h202v-55z" />
<glyph unicode="&#x2076;" horiz-adv-x="332" d="M171 490q32 0 51 23.5t19 59.5q0 37 -20.5 59t-55.5 22q-23 0 -42 -12.5t-29 -31.5q-5 -10 -5 -22q0 -41 20.5 -69.5t60.5 -28.5h1zM267 784q-8 1 -18.5 1t-21.5 -2q-60 -8 -94 -42.5t-42 -79.5h2q14 16 38 28.5t56 12.5q54 0 88 -34t34 -91q0 -29 -10 -54t-28.5 -43.5 t-44 -29.5t-55.5 -11q-35 0 -62.5 12.5t-46.5 34.5t-29 52.5t-10 66.5q0 56 18.5 100t48.5 73q51 48 138 57q11 1 21 1.5t18 0.5v-53z" />
<glyph unicode="&#x2077;" horiz-adv-x="294" d="M282 831v-43l-172 -344h-70l171 331v1h-192v55h263z" />
<glyph unicode="&#x2078;" horiz-adv-x="328" d="M164 792q-31 0 -47 -16.5t-16 -39.5q0 -26 19 -41.5t51 -23.5q23 8 39 23.5t16 39.5q0 21 -14.5 39.5t-46.5 18.5h-1zM164 486q33 0 52.5 18t19.5 44q0 32 -22 49.5t-58 26.5q-65 -19 -65 -72q0 -26 19 -46t53 -20h1zM168 838q30 0 53 -8t38 -21.5t22.5 -31t7.5 -36.5 q0 -25 -14.5 -49t-48.5 -39v-2q34 -13 56 -37.5t22 -60.5q0 -26 -10.5 -47t-29.5 -36t-45 -23t-57 -8q-34 0 -59.5 9t-43 23.5t-26.5 33.5t-9 39q0 36 20.5 61t56.5 39v3q-32 14 -47.5 37t-15.5 49q0 48 37 76.5t92 28.5h1z" />
<glyph unicode="&#x2079;" horiz-adv-x="327" d="M161 788q-31 0 -51 -24t-20 -61q0 -32 19 -53.5t52 -21.5q25 0 43.5 10.5t27.5 26.5q5 7 5 19q0 43 -18 73.5t-57 30.5h-1zM58 493q8 -1 19 -1t23 2q50 5 84 33q20 16 33.5 38.5t18.5 52.5h-2q-15 -17 -38 -27.5t-52 -10.5q-54 0 -87.5 33.5t-33.5 86.5q0 28 10.5 53 t29 44t44.5 30t58 11q67 0 103 -46.5t36 -118.5q0 -63 -19.5 -107t-48.5 -72q-26 -23 -59.5 -36t-71.5 -16q-14 -2 -26.5 -2.5t-20.5 0.5v53z" />
<glyph unicode="&#x207d;" horiz-adv-x="180" d="M168 868q-30 -43 -51 -102.5t-21 -139.5t21.5 -138.5t50.5 -102.5h-51q-14 18 -27.5 41.5t-24.5 53.5t-18 66t-7 80q0 43 7 79.5t18 66.5t24.5 54t27.5 42h51z" />
<glyph unicode="&#x207e;" horiz-adv-x="180" d="M13 385q29 44 50.5 103t21.5 139t-21 138.5t-51 102.5h51q13 -18 27 -41.5t25 -53.5t18 -66.5t7 -79.5t-7 -79.5t-18 -66.5t-25 -54t-27 -42h-51z" />
<glyph unicode="&#x2080;" horiz-adv-x="336" d="M168 -100q37 0 56 39t19 111q0 70 -18.5 108.5t-56.5 38.5q-34 0 -54.5 -38.5t-20.5 -108.5q0 -72 20 -111t54 -39h1zM165 -151q-66 0 -104 52.5t-38 146.5q0 93 39.5 146.5t107.5 53.5q69 0 106 -53t37 -144t-37 -146.5t-110 -55.5h-1z" />
<glyph unicode="&#x2081;" horiz-adv-x="244" d="M107 -146v328h-2l-72 -35l-11 52l94 44h61v-389h-70z" />
<glyph unicode="&#x2082;" horiz-adv-x="311" d="M12 -109l63 58q63 57 94.5 96.5t31.5 77.5q0 29 -18.5 49t-57.5 20q-26 0 -48 -10t-36 -21l-21 46q20 17 52.5 29t70.5 12q35 0 60 -10t41 -26t23.5 -36t7.5 -40q0 -28 -10 -53t-28 -48.5t-43 -46.5l-52 -49l-30 -28v-2h170v-55h-270v37z" />
<glyph unicode="&#x2083;" horiz-adv-x="305" d="M28 217q17 11 47.5 21t67.5 10q32 0 55 -8t38 -21t22 -30t7 -35q0 -30 -20.5 -53.5t-56.5 -36.5v-2q41 -5 67 -31.5t26 -64.5q0 -23 -10.5 -44.5t-30.5 -37.5t-49.5 -25.5t-67.5 -9.5q-36 0 -67 8.5t-48 19.5l18 50q12 -8 38.5 -17t54.5 -9q23 0 40 6t27.5 16t15.5 21.5 t5 23.5q0 19 -9 32t-24 21.5t-34 12.5t-39 4h-27v46h28q14 0 30 3.5t29.5 11t22.5 19.5t9 29q0 18 -14.5 33.5t-48.5 15.5q-27 0 -50 -9t-35 -17z" />
<glyph unicode="&#x2084;" horiz-adv-x="347" d="M205 120q0 17 1 33l2 31h-2l-17 -31q-8 -14 -17 -28l-87 -119l1 -1h119v115zM205 -146v101h-189v41l177 247h79v-238h55v-50h-55v-101h-67z" />
<glyph unicode="&#x2085;" horiz-adv-x="308" d="M268 186h-155l-13 -85q6 1 13.5 1.5t17.5 0.5q25 0 49 -5t44 -17q23 -13 39 -38t16 -62q0 -29 -11.5 -53.5t-31.5 -42t-49 -27.5t-63 -10q-33 0 -61.5 7.5t-43.5 16.5l14 49q13 -7 36.5 -14t52.5 -7q17 0 33 5t28 15t19.5 23.5t7.5 31.5q0 35 -26 57t-87 22 q-17 0 -31.5 -1t-25.5 -3l26 191h202v-55z" />
<glyph unicode="&#x2086;" horiz-adv-x="332" d="M171 -100q32 0 51 23.5t19 59.5q0 37 -20.5 59t-55.5 22q-23 0 -42 -12.5t-29 -31.5q-5 -10 -5 -22q0 -41 20.5 -69.5t60.5 -28.5h1zM267 194q-8 1 -18.5 1t-21.5 -2q-60 -8 -94 -42.5t-42 -79.5h2q14 16 38 28.5t56 12.5q54 0 88 -34t34 -91q0 -29 -10 -54t-28.5 -43.5 t-44 -29.5t-55.5 -11q-35 0 -62.5 12.5t-46.5 34.5t-29 52.5t-10 66.5q0 56 18.5 100t48.5 73q51 48 138 57q11 1 21 1.5t18 0.5v-53z" />
<glyph unicode="&#x2087;" horiz-adv-x="294" d="M282 241v-43l-172 -344h-70l171 331v1h-192v55h263z" />
<glyph unicode="&#x2088;" horiz-adv-x="328" d="M164 202q-31 0 -47 -16.5t-16 -39.5q0 -26 19 -41.5t51 -23.5q23 8 39 23.5t16 39.5q0 21 -14.5 39.5t-46.5 18.5h-1zM164 -104q33 0 52.5 18t19.5 44q0 32 -22 49.5t-58 26.5q-65 -19 -65 -72q0 -26 19 -46t53 -20h1zM168 248q30 0 53 -8t38 -21.5t22.5 -31t7.5 -36.5 q0 -25 -14.5 -49t-48.5 -39v-2q34 -13 56 -37.5t22 -60.5q0 -26 -10.5 -47t-29.5 -36t-45 -23t-57 -8q-34 0 -59.5 9t-43 23.5t-26.5 33.5t-9 39q0 36 20.5 61t56.5 39v3q-32 14 -47.5 37t-15.5 49q0 48 37 76.5t92 28.5h1z" />
<glyph unicode="&#x2089;" horiz-adv-x="327" d="M161 198q-31 0 -51 -24t-20 -61q0 -32 19 -53.5t52 -21.5q25 0 43.5 10.5t27.5 26.5q5 7 5 19q0 43 -18 73.5t-57 30.5h-1zM58 -97q8 -1 19 -1t23 2q50 5 84 33q20 16 33.5 38.5t18.5 52.5h-2q-15 -17 -38 -27.5t-52 -10.5q-54 0 -87.5 33.5t-33.5 86.5q0 28 10.5 53 t29 44t44.5 30t58 11q67 0 103 -46.5t36 -118.5q0 -63 -19.5 -107t-48.5 -72q-26 -23 -59.5 -36t-71.5 -16q-14 -2 -26.5 -2.5t-20.5 0.5v53z" />
<glyph unicode="&#x208d;" horiz-adv-x="180" d="M168 278q-30 -43 -51 -102.5t-21 -139.5t21.5 -138.5t50.5 -102.5h-51q-14 18 -27.5 41.5t-24.5 53.5t-18 66t-7 80q0 43 7 79.5t18 66.5t24.5 54t27.5 42h51z" />
<glyph unicode="&#x208e;" horiz-adv-x="180" d="M13 -205q29 44 50.5 103t21.5 139t-21 138.5t-51 102.5h51q13 -18 27 -41.5t25 -53.5t18 -66.5t7 -79.5t-7 -79.5t-18 -66.5t-25 -54t-27 -42h-51z" />
<glyph unicode="&#x20ac;" horiz-adv-x="513" d="M496 31q-23 -16 -61.5 -29t-87.5 -13q-61 0 -113.5 22.5t-89.5 67.5q-59 63 -72 171h-62v50h56v15q0 11 0.5 22t1.5 22h-59v50h67q9 53 30 95.5t52 73.5q38 40 87 61.5t110 21.5q45 0 79 -10.5t55 -21.5l-20 -66q-20 11 -49 19.5t-63 8.5q-81 0 -133 -54 q-45 -47 -59 -128h279v-50h-288q-2 -10 -2 -21v-21v-17h290v-50h-283q12 -85 55 -130q28 -30 64 -44t77 -14q40 0 72.5 11t49.5 22z" />
<glyph unicode="&#x2113;" horiz-adv-x="504" d="M475 111q-69 -121 -200 -121q-39 0 -68 12t-49 34t-31.5 51.5t-14.5 64.5q0 6 -1 8q-25 -18 -55 -37l-26 49l40 28q21 15 40 31v265q0 58 12 100t33.5 68t50.5 38.5t62 12.5q60 0 95 -42t35 -111q0 -93 -52 -177.5t-152 -172.5v-14q1 -75 29 -104.5t73 -29.5q24 0 45 8.5 t38 21.5t30.5 28t22.5 29zM194 296q62 63 96.5 129.5t34.5 134.5q0 51 -17.5 72t-44.5 21t-48 -33t-21 -108v-216z" />
<glyph unicode="&#x2116;" horiz-adv-x="916" d="M74 0v654h96l170 -325q61 -117 102 -217l1 1q-5 68 -7 132t-2 142v267h78v-654h-89l-172 327l-53 110q-26 55 -49 111h-2l2 -64q1 -31 1 -64l2 -71v-80v-269h-78zM596 197v52h263v-52h-263zM726 590q-22 0 -38 -11.5t-26.5 -29.5t-15.5 -40.5t-5 -44.5q0 -27 7 -49.5 t18.5 -39t27 -25.5t33.5 -9q40 0 63 35t23 90q0 22 -4.5 44t-15 40t-27 29t-39.5 11h-1zM729 640q72 0 114 -47t42 -125q0 -47 -13.5 -80.5t-35.5 -55t-50.5 -31.5t-58.5 -10q-34 0 -63 11.5t-50 33.5t-33 54t-12 73q0 42 12.5 75t34.5 55.5t50.5 34.5t61.5 12h1z" />
<glyph unicode="&#x2122;" horiz-adv-x="619" d="M552 402l-10 160q-1 16 -1 34.5t-1 41.5h-3l-11 -40q-6 -22 -12 -41l-49 -151h-56l-48 155l-9 37l-11 40h-3q0 -19 -0.5 -38.5t-1.5 -37.5l-10 -160h-52l20 272h82l46 -133q5 -16 9 -32l9 -37h2l10 36q4 17 8 31l47 135h79l20 -272h-54zM258 674v-45h-87v-227h-54v227 h-86v45h227z" />
<glyph unicode="&#x212e;" horiz-adv-x="817" d="M646 524q0 12 -10 22q-44 44 -102 69.5t-124 25.5q-68 0 -126 -26.5t-102 -71.5q-10 -10 -10 -23v-180q0 -5 5 -5h464q5 0 5 5v184zM177 316q-5 0 -5 -4v-183q0 -10 9 -21q43 -46 102 -72.5t127 -26.5q72 0 134 30t106 81h55q-51 -60 -128 -95.5t-168 -35.5 q-77 0 -145 26.5t-119 72t-80.5 106.5t-29.5 131t29.5 131t80.5 106.5t119 72t145 26.5t145 -26.5t118.5 -72t80 -106.5t29.5 -131v-9h-605z" />
<glyph unicode="&#x2202;" horiz-adv-x="530" d="M233 61q33 0 61.5 17.5t50 47.5t35.5 69t19 82q-7 18 -20 35.5t-31 31t-41 21.5t-49 8q-30 0 -56 -13t-45.5 -36t-31 -54.5t-11.5 -68.5q0 -66 32.5 -103t85.5 -37h1zM58 673q25 18 67 36t106 18q52 0 99.5 -23t84 -68t58 -111t21.5 -152q0 -96 -22 -168t-59.5 -120 t-86.5 -72t-102 -24q-51 0 -88 18t-61.5 47.5t-36.5 67t-12 77.5q0 51 17 95.5t46 77.5t69 52t86 19q31 0 57.5 -8t47.5 -21t36 -28t23 -30h1q1 8 1 16v17q0 66 -16 115.5t-42.5 83t-60 50t-68.5 16.5q-50 0 -83.5 -13t-53.5 -27z" />
<glyph unicode="&#x2206;" horiz-adv-x="569" d="M333 420l-13 39l-13 42q-7 21 -13 41t-10 36h-3q-3 -13 -8 -30l-11 -38l-12 -39q-6 -20 -12 -38l-124 -361h338zM26 0v49l212 607h97l209 -606v-50h-518z" />
<glyph unicode="&#x220f;" horiz-adv-x="615" d="M512 577v-667h-83v667h-244v-667h-83v667h-93v73h596v-73h-93z" />
<glyph unicode="&#x2211;" horiz-adv-x="507" d="M9 -90v53l251 315l-238 313v59h461v-73h-349v-3l222 -293l-234 -294v-4h393v-73h-506z" />
<glyph unicode="&#x2212;" horiz-adv-x="596" d="M556 297v-60h-516v60h516z" />
<glyph unicode="&#x221a;" horiz-adv-x="562" d="M348 -95h-63l-160 427l-74 -31l-19 47l138 57l123 -345q6 -17 11 -33.5t8 -30.5h1q2 13 5.5 30t8.5 34l185 767h66z" />
<glyph unicode="&#x221e;" horiz-adv-x="728" d="M184 176q21 0 40 8.5t36.5 21t33.5 28t30 30.5q-15 13 -30 28.5t-32 29t-35.5 22t-40.5 8.5q-19 0 -35 -7t-28 -19t-18.5 -27.5t-6.5 -33.5q0 -38 24 -63.5t61 -25.5h1zM543 176q37 0 62 26.5t25 62.5q0 38 -24 62.5t-61 24.5q-21 0 -40.5 -8.5t-37 -21t-33.5 -28.5 l-30 -29q15 -14 30 -29.5t32 -28.5t35.5 -22t40.5 -9h1zM541 117q-28 0 -52.5 10t-46 25t-40.5 34l-38 37l-39 -38q-20 -19 -42.5 -34t-48 -24.5t-56.5 -9.5q-32 0 -58 11t-45 30.5t-29.5 46.5t-10.5 60q0 29 11.5 55.5t31.5 46.5t47.5 32t60.5 12q28 0 52.5 -10t46.5 -25 t41 -34l38 -37l39 38q20 19 42.5 34t48 24.5t56.5 9.5t57.5 -11t45.5 -30.5t29.5 -46t10.5 -58.5q0 -30 -11.5 -57t-31.5 -47t-47.5 -32t-60.5 -12h-1z" />
<glyph unicode="&#x222b;" horiz-adv-x="316" d="M294 732q-6 2 -14 3t-16 1q-13 0 -25.5 -5.5t-20.5 -16.5q-15 -19 -22 -54.5t-7 -102.5q0 -55 2 -114l4 -119l4 -121q2 -60 2 -117q0 -74 -12 -119t-30 -69q-17 -24 -42 -36t-54 -12q-17 0 -31.5 3t-21.5 7l11 57q7 -2 16 -4t20 -2q12 0 23.5 5t20.5 16q6 8 12 19.5 t10 29.5t6.5 43.5t2.5 61.5q0 57 -2 118l-4 122l-4 122q-2 59 -2 114q0 76 12.5 121.5t39.5 74.5q18 20 40.5 28.5t48.5 8.5q14 0 25.5 -2t19.5 -5z" />
<glyph unicode="&#x2248;" horiz-adv-x="596" d="M574 178q-24 -31 -65 -55t-88 -24q-43 0 -73 13l-54 23q-23 9 -50 21.5t-65 12.5q-34 0 -65.5 -18.5t-51.5 -40.5l-35 43q24 29 65 52.5t88 23.5q44 0 73.5 -13t54.5 -23q23 -9 49.5 -21.5t63.5 -12.5q35 0 66 18.5t51 40.5zM569 376q-12 -15 -28 -29t-35.5 -25 t-42 -17.5t-45.5 -6.5q-44 0 -74 13l-55 23q-23 9 -49.5 21.5t-64.5 12.5q-35 0 -66 -18.5t-51 -40.5l-35 42q24 29 64.5 53t88.5 24q44 0 74 -13l53 -23q23 -9 49.5 -21.5t64.5 -12.5q35 0 66 19.5t50 39.5z" />
<glyph unicode="&#x2260;" horiz-adv-x="596" d="M246 140l-76 -122h-65l79 122h-144v60h182l89 138h-271v60h309l76 122h65l-79 -122h145v-60h-183l-88 -138h271v-60h-310z" />
<glyph unicode="&#x2264;" horiz-adv-x="596" d="M68 0v58h462v-58h-462zM66 292v59l464 192v-66l-382 -155v-2l382 -154v-67z" />
<glyph unicode="&#x2265;" horiz-adv-x="596" d="M66 0v58h462v-58h-462zM66 99v67l382 154v2l-382 155v66l464 -192v-59z" />
<glyph unicode="&#x25ca;" horiz-adv-x="522" d="M271 590q-7 10 -10 23h-2q-2 -6 -5 -12t-6 -11l-128 -264l131 -267q3 -5 5.5 -11t4.5 -12h2q2 6 5 12t5 11l128 264zM295 -31h-69l-181 356l181 355h69l182 -355z" />
<glyph unicode="&#xefed;" d="M150 721q-21 0 -35 15.5t-14 35.5t14.5 35t35.5 15q20 0 34 -15t14 -35t-14 -35.5t-34 -15.5h-1z" />
<glyph unicode="&#xefee;" d="M78 832q4 -17 19.5 -33t52.5 -16q36 0 52 14.5t21 34.5h50q0 -22 -7.5 -41.5t-22.5 -33.5t-38.5 -22.5t-55.5 -8.5q-64 0 -92.5 30.5t-30.5 75.5h52z" />
<glyph unicode="&#xeff1;" d="M180 4l-15 -18q-9 -11 -17.5 -24.5t-14.5 -28.5t-6 -29q0 -23 13.5 -36.5t36.5 -13.5q26 0 46 10l14 -46q-16 -11 -39 -17t-41 -6q-42 0 -68 22t-26 64q0 19 6 37t15 33.5t19.5 29t19.5 23.5h57z" />
<glyph unicode="&#xeff2;" d="M191 2l-31 -53q29 -5 49.5 -24t20.5 -50q0 -22 -9 -37.5t-23 -25t-33 -14t-38 -4.5q-20 0 -38.5 4.5t-32.5 12.5l15 45q11 -6 24.5 -10t30.5 -4t29.5 7t12.5 24q0 20 -21.5 29.5t-56.5 13.5l47 86h54z" />
<glyph unicode="&#xeff3;" horiz-adv-x="400" d="M199 841q-22 0 -34.5 -16.5t-12.5 -38.5q0 -20 13 -35.5t35 -15.5q23 0 36 15t13 38q0 22 -13 37.5t-36 15.5h-1zM202 877q46 0 72.5 -26.5t26.5 -64.5t-27.5 -63t-72.5 -25t-72.5 25.5t-27.5 62.5q0 38 26.5 64.5t73.5 26.5h1z" />
<glyph unicode="&#xeff5;" d="M26 715q-1 46 17.5 74t50.5 28q17 0 30 -6l29 -14q12 -7 24 -12.5t24 -5.5q11 0 18 7.5t9 31.5h46q2 -97 -67 -97q-16 0 -30 5.5t-31 13.5q-14 8 -25 13.5t-22 5.5q-12 0 -18 -12t-8 -32h-47z" />
<glyph unicode="&#xeff7;" d="M182 824l105 -114h-74l-63 69h-2l-64 -69h-71l102 114h67z" />
<glyph unicode="&#xf629;" horiz-adv-x="315" d="M160 -8v60q-30 4 -51.5 15t-38.5 29q-16 17 -25 42.5t-9 56.5q0 57 33 98.5t91 51.5v58h46v-57q19 0 36 -4.5t28 -9.5l-13 -50q-10 5 -24.5 9.5t-36.5 4.5q-43 0 -68 -27.5t-25 -69.5q0 -48 26.5 -72.5t64.5 -24.5q23 0 39.5 4t27.5 9l11 -47q-10 -5 -27.5 -10t-38.5 -7 v-59h-46z" />
<glyph unicode="&#xf62a;" horiz-adv-x="317" d="M134 -51v59q-29 1 -55.5 8.5t-43.5 18.5l16 50q18 -11 42 -19t52 -8q32 0 50.5 14t18.5 37t-16.5 36.5t-51.5 27.5q-51 18 -78.5 41.5t-27.5 64.5q0 38 25.5 65t71.5 35v59h45v-56q27 -1 48 -7t35 -14l-16 -49q-10 5 -30.5 13t-51.5 8q-35 0 -48 -14.5t-13 -31.5 q0 -20 17 -32.5t59 -28.5q51 -19 74.5 -44t23.5 -67q0 -37 -25.5 -66.5t-75.5 -37.5v-62h-45z" />
<glyph unicode="&#xf62b;" horiz-adv-x="191" d="M173 208v-48h-155v48h155z" />
<glyph unicode="&#xf62c;" horiz-adv-x="180" d="M168 425q-30 -43 -51 -102.5t-21 -139.5t21.5 -138.5t50.5 -102.5h-51q-14 18 -27.5 41.5t-24.5 53.5t-18 66t-7 80q0 43 7 79.5t18 66.5t24.5 54t27.5 42h51z" />
<glyph unicode="&#xf62d;" horiz-adv-x="180" d="M13 -58q29 44 50.5 103t21.5 139t-21 138.5t-51 102.5h51q13 -18 27 -41.5t25 -53.5t18 -66.5t7 -79.5t-7 -79.5t-18 -66.5t-25 -54t-27 -42h-51z" />
<glyph unicode="&#xf62e;" horiz-adv-x="315" d="M160 258v60q-30 4 -51.5 15t-38.5 29q-16 17 -25 42.5t-9 56.5q0 57 33 98.5t91 51.5v58h46v-57q19 0 36 -4.5t28 -9.5l-13 -50q-10 5 -24.5 9.5t-36.5 4.5q-43 0 -68 -27.5t-25 -69.5q0 -48 26.5 -72.5t64.5 -24.5q23 0 39.5 4t27.5 9l11 -47q-10 -5 -27.5 -10t-38.5 -7 v-59h-46z" />
<glyph unicode="&#xf62f;" horiz-adv-x="317" d="M134 215v59q-29 1 -55.5 8.5t-43.5 18.5l16 50q18 -11 42 -19t52 -8q32 0 50.5 14t18.5 37t-16.5 36.5t-51.5 27.5q-51 18 -78.5 41.5t-27.5 64.5q0 38 25.5 65t71.5 35v59h45v-56q27 -1 48 -7t35 -14l-16 -49q-10 5 -30.5 13t-51.5 8q-35 0 -48 -14.5t-13 -31.5 q0 -20 17 -32.5t59 -28.5q51 -19 74.5 -44t23.5 -67q0 -37 -25.5 -66.5t-75.5 -37.5v-62h-45z" />
<glyph unicode="&#xf630;" horiz-adv-x="191" d="M173 474v-48h-155v48h155z" />
<glyph unicode="&#xf631;" horiz-adv-x="180" d="M168 691q-30 -43 -51 -102.5t-21 -139.5t21.5 -138.5t50.5 -102.5h-51q-14 18 -27.5 41.5t-24.5 53.5t-18 66t-7 80q0 43 7 79.5t18 66.5t24.5 54t27.5 42h51z" />
<glyph unicode="&#xf632;" horiz-adv-x="180" d="M13 208q29 44 50.5 103t21.5 139t-21 138.5t-51 102.5h51q13 -18 27 -41.5t25 -53.5t18 -66.5t7 -79.5t-7 -79.5t-18 -66.5t-25 -54t-27 -42h-51z" />
<glyph unicode="&#xf633;" horiz-adv-x="737" d="M524 28q-42 -22 -84.5 -31t-93.5 -9q-62 0 -117 22t-96 62.5t-65.5 98.5t-24.5 130q0 77 26 147t73.5 122.5t115 83.5t150.5 31q65 0 118.5 -21.5t91.5 -60t59 -91.5t21 -116q0 -56 -14.5 -100.5t-39 -75t-56.5 -46.5t-67 -16q-15 0 -28.5 5t-24 15.5t-16.5 27.5t-5 40 h-3q-54 -88 -142 -88q-22 0 -41.5 8.5t-34.5 25t-23.5 39.5t-8.5 53q0 46 17.5 89t49 76t75 52.5t95.5 19.5q32 0 60 -6t47 -15l-33 -181q-11 -57 -3.5 -84t32.5 -28q19 -1 38.5 11.5t35 36t25 57.5t9.5 77q0 55 -16 101t-47 79t-76 51.5t-103 18.5q-61 0 -115.5 -23.5 t-95.5 -66.5t-65 -104.5t-24 -137.5q0 -63 19.5 -113t53.5 -85t81 -54t103 -19q44 0 82.5 9t68.5 26zM470 460q-8 3 -20.5 5.5t-29.5 2.5q-33 0 -62.5 -14.5t-51 -39t-34 -57.5t-12.5 -69q0 -33 16.5 -54.5t49.5 -21.5q22 0 42.5 12.5t37 32t28 44t15.5 47.5z" />
<glyph unicode="&#xf634;" d="M76 -181q29 5 52 20.5t23 44.5q0 18 -10 34t-24 27l65 14q15 -10 27.5 -29.5t12.5 -44.5q0 -27 -11.5 -47t-30 -32.5t-41.5 -19.5t-46 -8z" />
<glyph unicode="&#xf638;" horiz-adv-x="513" d="M424 569q53 -85 53 -238q0 -166 -58.5 -254t-166.5 -88q-36 0 -68 12t-58 38l-36 -63l-44 31l46 75q-26 42 -40.5 102.5t-15.5 138.5q0 82 16.5 145.5t46.5 106t71.5 64.5t91.5 22q78 0 128 -49l39 66l44 -29zM169 106q34 -49 86 -49q34 0 60 19t43 54t25.5 85.5 t8.5 112.5q0 88 -21 154zM347 542q-15 24 -37.5 37.5t-52.5 13.5q-31 0 -56 -19t-42.5 -53.5t-27.5 -83.5t-10 -109q-1 -48 5.5 -88t18.5 -72z" />
<glyph unicode="&#xf639;" horiz-adv-x="513" d="M257 57q33 0 58 19t41.5 54t24.5 85.5t8 112.5q0 60 -7.5 109t-24 83.5t-41.5 53.5t-59 19q-30 0 -54.5 -18.5t-41.5 -53t-26.5 -83.5t-9.5 -110q-1 -63 8 -113.5t26.5 -85.5t42 -53.5t54.5 -18.5h1zM252 -11q-96 0 -155 86t-61 248q0 82 17 145t47 106t71.5 65t91.5 22 q103 0 159 -86.5t56 -242.5q0 -167 -59 -255t-166 -88h-1z" />
<glyph unicode="&#xf63a;" horiz-adv-x="447" d="M3 0v54l69 67l108 106q45 47 75 86.5t44.5 75t14.5 72.5q0 25 -6.5 48t-21.5 40.5t-39.5 28t-60.5 10.5q-45 0 -80 -18t-58 -37l-28 62q33 28 80 47t104 19q52 0 89.5 -16.5t61.5 -43t35.5 -60.5t11.5 -69q0 -45 -15.5 -86.5t-45 -83.5t-71 -86t-92.5 -93l-51 -48v-2h291 v-73h-415z" />
<glyph unicode="&#xf63b;" horiz-adv-x="450" d="M31 100q9 -6 24 -13t34 -13t41 -10t45 -4q42 0 70.5 12t45.5 30.5t24 40.5t7 43q0 34 -14.5 58.5t-38 40.5t-53.5 23.5t-62 7.5h-49v66h49q24 0 49.5 6.5t47 20t35 34t13.5 49.5q0 39 -26.5 68.5t-87.5 29.5q-39 0 -74 -14t-56 -29l-24 64q26 19 72 34.5t99 15.5 q48 0 83 -13t58 -35t34 -49.5t11 -57.5q0 -51 -30 -91.5t-90 -62.5v-2q30 -6 56.5 -19.5t46 -35t31 -49.5t11.5 -62q0 -39 -15 -74.5t-45 -62t-74.5 -42.5t-102.5 -16q-55 0 -100 14t-69 30z" />
<glyph unicode="&#xf63c;" horiz-adv-x="503" d="M313 246v217q0 51 3 102h-3l-27 -51l-27 -45l-159 -221v-2h213zM313 0v178h-302v57l290 415h95v-404h91v-68h-91v-178h-83z" />
<glyph unicode="&#xf63d;" horiz-adv-x="460" d="M406 576h-248l-25 -167q11 2 23 3t30 1q38 0 74 -8.5t66 -26.5q38 -21 65.5 -63t27.5 -104q0 -48 -18 -88.5t-50 -70t-76.5 -46.5t-97.5 -17q-54 0 -96 12.5t-66 27.5l22 67q20 -12 57.5 -24t82.5 -12q31 0 59 10t49 28t33 44.5t12 59.5q0 62 -44.5 102.5t-141.5 40.5 q-29 0 -51 -2t-40 -5l42 312h311v-74z" />
<glyph unicode="&#xf63e;" horiz-adv-x="515" d="M267 57q57 0 91.5 43t34.5 113t-36.5 109.5t-97.5 39.5q-40 0 -74.5 -22t-52.5 -58q-4 -8 -6.5 -17t-2.5 -21q0 -40 9.5 -74.5t27.5 -59.5t44.5 -39t61.5 -14h1zM418 588q-26 1 -66 -5q-52 -8 -92 -30t-67.5 -53t-44 -69t-22.5 -78h2q23 32 63.5 54t94.5 22q43 0 79 -15 t62 -42.5t40.5 -66.5t14.5 -86q0 -45 -15 -86.5t-42.5 -73.5t-68 -51t-91.5 -19q-52 0 -94 19.5t-72 55.5t-46.5 87.5t-16.5 114.5q0 97 30.5 171t79.5 122q41 40 93.5 64t114.5 32q20 3 36 4t28 1v-72z" />
<glyph unicode="&#xf63f;" horiz-adv-x="412" d="M411 650v-58l-283 -592h-90l281 575v2h-318v73h410z" />
<glyph unicode="&#xf640;" horiz-adv-x="513" d="M258 598q-55 0 -84 -31t-29 -73q-1 -49 33 -77t91 -43q42 14 70.5 43.5t28.5 74.5q0 19 -6 38t-19 34t-34 24.5t-50 9.5h-1zM257 53q60 0 95 32.5t35 83.5q0 59 -38.5 91t-104.5 51q-57 -17 -87 -52.5t-30 -82.5q-1 -24 7.5 -46.5t25 -39.5t41 -27t55.5 -10h1zM263 661 q47 0 82.5 -13.5t59.5 -36t36 -51t12 -59.5q0 -42 -24 -83t-84 -69v-3q61 -24 96 -66.5t35 -101.5q0 -43 -17 -78t-47 -59.5t-70.5 -38t-86.5 -13.5q-51 0 -91.5 14t-68.5 38t-43 55.5t-15 67.5q0 62 34 105.5t94 69.5v3q-55 26 -79.5 65t-24.5 81q0 39 15.5 70.5t42.5 54.5 t63.5 35.5t79.5 12.5h1z" />
<glyph unicode="&#xf641;" horiz-adv-x="517" d="M255 594q-28 0 -51 -12t-40 -33t-26.5 -50t-9.5 -63q0 -61 34 -99.5t91 -38.5q45 0 78 19.5t51 48.5q3 6 5 13.5t2 18.5q0 42 -7.5 78t-24 62t-42 41t-59.5 15h-1zM96 62q14 -1 31 0t40 4q38 5 73 20.5t63 41.5q32 30 54.5 72.5t31.5 100.5h-3q-27 -33 -65.5 -51.5 t-88.5 -18.5q-44 0 -79.5 15.5t-60.5 42.5t-38.5 63.5t-13.5 78.5q0 46 16 87.5t45.5 73t70.5 50.5t91 19t90 -19.5t67.5 -55t42.5 -86t15 -113.5q0 -108 -32 -183t-80 -122q-38 -36 -87 -58.5t-102 -28.5q-24 -3 -45 -4.5t-36 -0.5v72z" />
<glyph unicode="&#xf642;" horiz-adv-x="818" d="M636 339q-20 0 -36 -11.5t-26.5 -31.5t-16 -46.5t-5.5 -57.5t5.5 -57.5t16 -46t26.5 -31t37 -11.5q43 0 63.5 41.5t20.5 106.5q0 30 -4.5 56t-14.5 46t-26 31.5t-39 11.5h-1zM641 392q68 0 108.5 -50t40.5 -144q0 -51 -12.5 -89.5t-33.5 -64t-49.5 -38.5t-59.5 -13 t-58.5 12.5t-48 37t-33 61t-12.5 85.5t12.5 86.5t33.5 63.5t49.5 39.5t61.5 13.5h1zM205 -12l351 620h56l-351 -620h-56zM181 550q-20 0 -36 -11.5t-26.5 -31.5t-16 -46.5t-5.5 -57.5t5.5 -57.5t16 -46t26.5 -31t37 -11.5q43 0 63.5 41.5t20.5 106.5q0 30 -4.5 56t-14.5 46 t-26 31.5t-39 11.5h-1zM186 603q68 0 108.5 -50t40.5 -144q0 -51 -12.5 -89.5t-33.5 -64t-49.5 -38.5t-59.5 -13t-58.5 12.5t-48 37t-33 61t-12.5 85.5t12.5 86.5t33.5 63.5t49.5 39.5t61.5 13.5h1z" />
<glyph unicode="&#xf643;" horiz-adv-x="530" d="M266 56q33 0 58.5 14t43.5 39t27.5 59t9.5 74t-9.5 74.5t-27.5 59.5t-44 39t-59 14t-59 -14t-44 -39t-27.5 -59.5t-9.5 -74.5t9.5 -74t27.5 -59t44 -39t59 -14h1zM264 -11q-46 0 -87 17t-71.5 49t-48 79.5t-17.5 107.5q0 59 17.5 106t48 80t71.5 50.5t88 17.5 q46 0 87 -17t72 -49.5t48.5 -80t17.5 -107.5q0 -59 -17.5 -106t-48 -79.5t-71.5 -50t-88 -17.5h-1z" />
<glyph unicode="&#xf644;" horiz-adv-x="530" d="M281 0v411h-2l-186 -82l-15 65l214 91h73v-485h-84z" />
<glyph unicode="&#xf645;" horiz-adv-x="530" d="M66 0v48l49 34q56 37 98 69t70 61.5t42 58.5t14 59q0 49 -30 73.5t-77 24.5q-39 0 -74.5 -15t-61.5 -34l-24 57q13 10 32 21t42 20t50.5 15t57.5 6q76 0 124.5 -40.5t48.5 -115.5q0 -35 -13 -66t-36 -59.5t-56 -55.5t-72 -55l-51 -37v-3q19 2 40.5 3t41.5 1h181v-70h-396 z" />
<glyph unicode="&#xf646;" horiz-adv-x="530" d="M72 -29q19 -6 48 -11t61 -5q37 0 68 8.5t53.5 24.5t35 38.5t12.5 49.5q0 48 -41.5 75t-110.5 27q-17 0 -31.5 -0.5t-23.5 -1.5l-2 64l19 1q35 3 65 11t51.5 21.5t34 32t12.5 41.5q0 41 -28 60.5t-77 19.5q-38 0 -71.5 -12t-51.5 -22l-18 58q23 16 66.5 30.5t93.5 14.5 q38 0 70 -9.5t55 -26.5t36 -42t13 -56q0 -51 -33.5 -87.5t-84.5 -50.5v-3q30 -4 56.5 -15t46.5 -29t32 -43t12 -57q0 -43 -20 -78.5t-54.5 -60.5t-80 -38.5t-96.5 -13.5q-39 0 -74.5 6t-52.5 14z" />
<glyph unicode="&#xf647;" horiz-adv-x="530" d="M324 317q0 25 0.5 48t2.5 47l-4 1q-12 -24 -26 -48.5t-28 -46.5l-150 -198l1 -3h204v200zM406 50v-166h-82v166h-292v57l279 385h95v-375h91v-67h-91z" />
<glyph unicode="&#xf648;" horiz-adv-x="530" d="M89 -34q17 -5 45 -9t57 -4q32 0 62 8.5t52.5 24.5t36 40t13.5 56q0 44 -31 73q-29 29 -87 38.5t-140 4.5l51 287h287l-11 -72h-217l-29 -150q31 1 62 -1.5t59.5 -9.5t53.5 -19t45 -31q23 -22 34.5 -51.5t11.5 -61.5q0 -46 -18.5 -83.5t-51.5 -64t-79.5 -41t-102.5 -14.5 q-33 0 -64 4.5t-50 12.5z" />
<glyph unicode="&#xf649;" horiz-adv-x="530" d="M279 56q22 0 43.5 9t38.5 26.5t27.5 44t10.5 62.5q0 62 -33.5 98t-88.5 36q-34 0 -60.5 -14t-40.5 -29q-18 -19 -25 -38.5t-7 -44.5q0 -30 9.5 -57.5t27 -48t42 -32.5t55.5 -12h1zM447 541q-68 -4 -119.5 -23t-88.5 -48.5t-59 -67.5t-30 -80l3 -1q19 27 56.5 50t89.5 23 q38 0 72 -13t59.5 -38t40.5 -60t15 -80q0 -51 -18 -90.5t-47 -67t-66.5 -42t-76.5 -14.5q-50 0 -91.5 18t-70.5 50t-45 77.5t-16 101.5q0 78 26.5 143.5t76.5 114t121.5 78t161.5 34.5z" />
<glyph unicode="&#xf64a;" horiz-adv-x="530" d="M454 429q-23 -61 -56 -131.5t-70.5 -142.5t-77.5 -141t-78 -128l-83 16q31 44 70 110l78 136q39 71 73 140t54 122v2h-297v73h387v-56z" />
<glyph unicode="&#xf64b;" horiz-adv-x="530" d="M263 52q26 0 49 7.5t40 21.5t27 33.5t10 43.5q0 48 -36.5 79.5t-105.5 49.5q-50 -17 -80.5 -49.5t-30.5 -74.5q0 -49 33.5 -80t92.5 -31h1zM268 547q-46 0 -78.5 -25t-32.5 -70q0 -41 32 -67t89 -41q40 12 68 39t28 69q0 24 -9 41.5t-24 29.5t-34 18t-39 6zM350 317 q57 -20 93 -58.5t36 -92.5q0 -41 -17 -73.5t-47 -55.5t-69.5 -35.5t-84.5 -12.5q-48 0 -87 12.5t-67 34.5t-43.5 52.5t-15.5 66.5q0 54 34.5 93.5t90.5 64.5v3q-42 18 -71.5 49.5t-29.5 79.5q0 36 15 66t41.5 51t62.5 33t78 12t76.5 -12t59 -32t38 -48t13.5 -59 q0 -86 -106 -136v-3z" />
<glyph unicode="&#xf64c;" horiz-adv-x="530" d="M260 155q37 0 69.5 19.5t46.5 45.5q16 21 16 60q0 34 -10.5 61.5t-28 47t-41 30.5t-50.5 11q-23 0 -45 -8.5t-40 -26t-29 -43.5t-11 -61t10 -60.5t26.5 -42.5t39 -25t46.5 -8h1zM82 -48q64 3 115 19t88.5 43.5t61.5 64.5t35 81h-2q-16 -25 -54.5 -46t-89.5 -21 q-38 0 -71.5 13t-59 37.5t-40.5 60t-15 80.5q0 46 16.5 85t45.5 67.5t68.5 45t85.5 16.5q45 0 83.5 -16t67.5 -47t45.5 -75.5t16.5 -102.5q0 -83 -28.5 -150.5t-80 -115.5t-123.5 -74.5t-158 -29.5z" />
<glyph unicode="&#xf64e;" horiz-adv-x="530" d="M478 22q-17 -11 -54 -22t-84 -11q-49 0 -95.5 17t-82.5 52q-23 23 -38.5 54t-23.5 66h-62v49h55q0 8 -0.5 13.5t-0.5 10.5q0 8 0.5 16.5t1.5 18.5h-56v48h64q17 71 63 117q38 38 87.5 56.5t101.5 18.5q45 0 74 -9t49 -19l-20 -62q-17 9 -42.5 16.5t-61.5 7.5 q-34 0 -65.5 -11t-57.5 -37q-15 -15 -26 -35t-15 -43h248v-48h-258q-1 -8 -1.5 -16t-0.5 -13v-13q0 -8 1 -17h259v-49h-249q11 -46 39 -72q27 -26 57.5 -37.5t68.5 -11.5q37 0 66.5 8t46.5 18z" />
<glyph unicode="&#xf64f;" horiz-adv-x="530" d="M128 340h99l6 53q4 37 16 75.5t34 69t56.5 50t84.5 19.5q23 0 40.5 -4.5t28.5 -10.5l-16 -64q-12 5 -24.5 7.5t-28.5 2.5q-26 0 -44 -11.5t-31 -30.5t-20.5 -44t-10.5 -53l-7 -59h122v-58h-128l-23 -182q-6 -48 -17 -88t-31.5 -68.5t-51 -44.5t-74.5 -16q-25 0 -45 4.5 t-32 12.5l16 62q23 -11 56 -11q46 0 67 40t30 117l20 174h-92v58z" />
<glyph unicode="&#xf650;" horiz-adv-x="530" d="M114 -3l23 170h-83v59h92l19 145h-87v59h95l22 165h59l-22 -165h105l22 165h59l-22 -165h82v-59h-91l-18 -145h86v-59h-95l-22 -170h-61l23 170h-104l-22 -170h-60zM309 226l19 145h-104l-19 -145h104z" />
<glyph unicode="&#xf651;" horiz-adv-x="530" d="M63 0v50q50 21 78.5 54t28.5 74q0 11 -1 22t-3 22h-97v55h86q-3 16 -5.5 31.5t-2.5 30.5q0 43 14 79t39 61.5t60.5 39.5t78.5 14q38 0 65 -7.5t44 -17.5l-19 -64q-14 8 -36.5 14t-53.5 6q-55 0 -82 -34t-27 -92q0 -16 2 -31.5t5 -29.5h149v-55h-139q3 -17 3 -32 q-1 -39 -18.5 -69t-44.5 -48v-2h292v-71h-416z" />
<glyph unicode="&#xf652;" horiz-adv-x="530" d="M222 0v115h-152v49h152v60h-152v49h127l-149 242h93l86 -154q23 -43 39 -78h2q8 19 20 39l22 41l91 152h91l-160 -242h127v-49h-154v-60h154v-49h-154v-115h-83z" />
<glyph unicode="&#xf653;" horiz-adv-x="530" d="M238 -82v80q-40 1 -81 12t-67 28l24 60q22 -15 60 -25.5t74 -10.5q43 0 74.5 19t31.5 53q0 29 -23.5 47.5t-76.5 36.5q-78 26 -115.5 56.5t-37.5 81.5q0 50 40 84.5t103 42.5v85h57v-83q41 -2 72.5 -11t50.5 -20l-23 -60q-18 11 -49 20.5t-66 9.5q-42 0 -69.5 -17 t-27.5 -45q0 -14 5 -24.5t17.5 -19.5t33.5 -18.5t53 -19.5q75 -25 110.5 -58.5t35.5 -83.5q0 -48 -38.5 -87.5t-110.5 -50.5v-82h-57z" />
<glyph unicode="&#xf654;" horiz-adv-x="530" d="M417 70q-13 -7 -40 -14.5t-60 -9.5v-72h-55v73q-81 9 -131 60t-50 137q0 40 13 75t36.5 62t57 44.5t74.5 23.5v68h55v-66q30 -1 56.5 -7t41.5 -13l-16 -60q-15 8 -39 13t-55 5q-63 0 -102 -39t-39 -102q0 -34 11 -60t29.5 -43.5t43.5 -26.5t53 -9q35 0 60.5 6.5 t41.5 13.5z" />
<glyph unicode="&#xf655;" horiz-adv-x="336" d="M168 47q37 0 56 39t19 111q0 70 -18.5 108.5t-56.5 38.5q-34 0 -54.5 -38.5t-20.5 -108.5q0 -72 20 -111t54 -39h1zM165 -4q-66 0 -104 52.5t-38 146.5q0 93 39.5 146.5t107.5 53.5q69 0 106 -53t37 -144t-37 -146.5t-110 -55.5h-1z" />
<glyph unicode="&#xf656;" horiz-adv-x="244" d="M107 1v328h-2l-72 -35l-11 52l94 44h61v-389h-70z" />
<glyph unicode="&#xf657;" horiz-adv-x="311" d="M12 38l63 58q63 57 94.5 96.5t31.5 77.5q0 29 -18.5 49t-57.5 20q-26 0 -48 -10t-36 -21l-21 46q20 17 52.5 29t70.5 12q35 0 60 -10t41 -26t23.5 -36t7.5 -40q0 -28 -10 -53t-28 -48.5t-43 -46.5l-52 -49l-30 -28v-2h170v-55h-270v37z" />
<glyph unicode="&#xf658;" horiz-adv-x="305" d="M28 364q17 11 47.5 21t67.5 10q32 0 55 -8t38 -21t22 -30t7 -35q0 -30 -20.5 -53.5t-56.5 -36.5v-2q41 -5 67 -31.5t26 -64.5q0 -23 -10.5 -44.5t-30.5 -37.5t-49.5 -25.5t-67.5 -9.5q-36 0 -67 8.5t-48 19.5l18 50q12 -8 38.5 -17t54.5 -9q23 0 40 6t27.5 16t15.5 21.5 t5 23.5q0 19 -9 32t-24 21.5t-34 12.5t-39 4h-27v46h28q14 0 30 3.5t29.5 11t22.5 19.5t9 29q0 18 -14.5 33.5t-48.5 15.5q-27 0 -50 -9t-35 -17z" />
<glyph unicode="&#xf659;" horiz-adv-x="347" d="M205 267q0 17 1 33l2 31h-2l-17 -31q-8 -14 -17 -28l-87 -119l1 -1h119v115zM205 1v101h-189v41l177 247h79v-238h55v-50h-55v-101h-67z" />
<glyph unicode="&#xf65a;" horiz-adv-x="308" d="M268 333h-155l-13 -85q6 1 13.5 1.5t17.5 0.5q25 0 49 -5t44 -17q23 -13 39 -38t16 -62q0 -29 -11.5 -53.5t-31.5 -42t-49 -27.5t-63 -10q-33 0 -61.5 7.5t-43.5 16.5l14 49q13 -7 36.5 -14t52.5 -7q17 0 33 5t28 15t19.5 23.5t7.5 31.5q0 35 -26 57t-87 22 q-17 0 -31.5 -1t-25.5 -3l26 191h202v-55z" />
<glyph unicode="&#xf65b;" horiz-adv-x="332" d="M171 47q32 0 51 23.5t19 59.5q0 37 -20.5 59t-55.5 22q-23 0 -42 -12.5t-29 -31.5q-5 -10 -5 -22q0 -41 20.5 -69.5t60.5 -28.5h1zM267 341q-8 1 -18.5 1t-21.5 -2q-60 -8 -94 -42.5t-42 -79.5h2q14 16 38 28.5t56 12.5q54 0 88 -34t34 -91q0 -29 -10 -54t-28.5 -43.5 t-44 -29.5t-55.5 -11q-35 0 -62.5 12.5t-46.5 34.5t-29 52.5t-10 66.5q0 56 18.5 100t48.5 73q51 48 138 57q11 1 21 1.5t18 0.5v-53z" />
<glyph unicode="&#xf65c;" horiz-adv-x="294" d="M282 388v-43l-172 -344h-70l171 331v1h-192v55h263z" />
</font>
</defs>
</svg>
